<?xml version="1.0" standalone="no"?>
<!DOCTYPE svg PUBLIC "-//W3C//DTD SVG 1.1//EN" "http://www.w3.org/Graphics/SVG/1.1/DTD/svg11.dtd" >
<svg xmlns="http://www.w3.org/2000/svg">
<metadata>
This is a custom SVG webfont generated by Font Squirrel.
Copyright   : Copyright  20042009 Joshua Darden  Phils Fonts Inc All rights reserved Published by Garagefonts USA 3018799222 wwwgaragefontscom
Designer    : Joshua Darden
Foundry     : Joshua Darden  Phils Fonts Inc
Foundry URL : httpwwwgaragefontscom
</metadata>
<defs>
<font id="FreightSansProSemibold" horiz-adv-x="1114" >
<font-face units-per-em="2048" ascent="1638" descent="-410" />
<missing-glyph horiz-adv-x="466" />
<glyph unicode=" "  horiz-adv-x="466" />
<glyph unicode="&#x09;" horiz-adv-x="466" />
<glyph unicode="&#xa0;" horiz-adv-x="466" />
<glyph unicode="!" horiz-adv-x="593" d="M133 122.5q0 67.5 46 108.5t120 41q72 0 116 -41t44 -108.5t-45 -110.5t-115 -43q-74 0 -120 43t-46 110.5zM154 1335h288l-59 -915h-168z" />
<glyph unicode="&#x22;" horiz-adv-x="757" d="M-2 815l235 506l216 -74l-314 -432h-137zM367 815l235 506l213 -74l-311 -432h-137z" />
<glyph unicode="#" horiz-adv-x="1210" d="M35 285v174h203l75 274h-237v174h284l109 408h178l-110 -408h309l110 408h179l-111 -408h158v-174h-205l-74 -274h238v-174h-283l-117 -437h-178l117 437h-309l-117 -437h-178l117 437h-158zM414 453h309l80 286h-311z" />
<glyph unicode="$" horiz-adv-x="1093" d="M59 88l60 215q143 -86 282 -110l52 360q-80 25 -136.5 49.5t-116 67.5t-90 109.5t-30.5 152.5q0 172 124 275.5t335 103.5h41l26 184h121l-29 -197q150 -27 283 -100l-61 -211q-117 68 -252 96l-13 -82q-12 -82 -24 -165l-13 -82q82 -23 143.5 -49.5t122 -70.5 t92.5 -110.5t32 -154.5q0 -178 -132.5 -289t-355.5 -111h-33l-32 -221h-119q2 14 6 39t11 76t12 84l4 35q-183 26 -310 106zM322 946q0 -61 44 -98t138 -68l47 324h-4q-225 0 -225 -158zM516 176h6q113 0 179.5 47t66.5 125q0 68 -46 107t-155 71z" />
<glyph unicode="%" horiz-adv-x="1609" d="M33 979q0 154 95 252t255 98q162 0 256 -98t94 -252q0 -152 -95 -249t-257 -97q-160 0 -254 97t-94 249zM193 979q0 -92 51 -151.5t139 -59.5q86 0 137 59.5t51 151.5q0 96 -51 155.5t-137 59.5q-88 0 -139 -59.5t-51 -155.5zM195 -31l1040 1340h182l-1040 -1340h-182z M879 299q0 152 94 249t256 97q160 0 254 -97t94 -249q0 -154 -95.5 -252t-254.5 -98q-162 0 -255 98t-93 252zM1038 299q0 -96 51.5 -155.5t139.5 -59.5q86 0 136 59.5t50 155.5q0 92 -51 151.5t-137 59.5t-137.5 -59.5t-51.5 -151.5z" />
<glyph unicode="&#x26;" horiz-adv-x="1310" d="M45 326q0 125 86 216t213 126q-201 111 -201 297q0 135 109.5 239.5t292.5 104.5q170 0 274.5 -89.5t104.5 -222.5q0 -100 -70 -177t-176 -115q94 -45 221 -181l160 262h264l-303 -391l309 -379l-252 -43l-192 258q-197 -262 -441 -262q-180 0 -289.5 100.5t-109.5 256.5 zM276 362q0 -88 57.5 -144t153.5 -56q160 0 299 192q-172 193 -321 246q-189 -95 -189 -238zM367 979q0 -74 47 -123t141 -90q150 76 150 205q0 72 -47.5 117t-123 45t-121.5 -45.5t-46 -108.5z" />
<glyph unicode="'" horiz-adv-x="389" d="M-2 815l235 506l216 -74l-314 -432h-137z" />
<glyph unicode="(" horiz-adv-x="806" d="M125 465q0 182 54 350t142.5 292t188.5 214t205 143l119 -159q-197 -115 -341.5 -337.5t-144.5 -502.5q0 -279 144.5 -502t341.5 -338l-117 -160q-106 55 -206.5 145.5t-189 214.5t-142.5 291t-54 349z" />
<glyph unicode=")" horiz-adv-x="806" d="M-27 -375q197 115 341.5 338t144.5 502q0 281 -143.5 503t-342.5 337l121 159q104 -53 203.5 -143t188.5 -214t142.5 -292t53.5 -350t-54.5 -349t-142.5 -291t-187 -214t-206 -146z" />
<glyph unicode="*" horiz-adv-x="755" d="M20 815l297 121v14l-292 123l129 178l204 -247l13 4l30 317l207 -68l-174 -272l8 -10l306 74v-218l-306 76l-8 -10l168 -274l-207 -64l-24 320l-13 2l-204 -242z" />
<glyph unicode="+" horiz-adv-x="1034" d="M76 389l6 193h340v346h196v-346h336l7 -193h-343v-348h-196v348h-346z" />
<glyph unicode="," horiz-adv-x="509" d="M25 -238q207 145 206 238q0 41 -35.5 72.5t-129.5 72.5q8 68 57 111t123 43q86 0 147.5 -65.5t61.5 -159.5q0 -213 -324 -408z" />
<glyph unicode="-" horiz-adv-x="698" d="M61 393v207h578v-207h-578z" />
<glyph unicode="." horiz-adv-x="509" d="M94 129q0 68 46 113t118 45q70 0 115 -45t45 -113t-45 -114t-115 -46q-72 0 -118 46t-46 114z" />
<glyph unicode="/" horiz-adv-x="516" d="M-104 -408l497 1846h191l-498 -1846h-190z" />
<glyph unicode="0" horiz-adv-x="1177" d="M84 485.5q0 231.5 139 375t365 143.5q227 0 367.5 -142.5t140.5 -374t-140.5 -375t-369.5 -143.5q-227 0 -364.5 142.5t-137.5 374zM319 485.5q0 -143.5 74 -230.5t195 -87t195.5 87t74.5 230.5t-74.5 231.5t-195.5 88t-195 -88t-74 -231.5z" />
<glyph unicode="1" horiz-adv-x="747" d="M78 879l483 127v-1006h-239v737l-238 -65z" />
<glyph unicode="2" horiz-adv-x="978" d="M78 870q178 133 405 134q176 0 280.5 -85t104.5 -225q0 -135 -103 -239.5t-335 -247.5h483l2 -207h-825v182q37 27 96.5 67t92 62.5t81 56t75 54t59 49.5t51 49.5t36 45t24.5 46t7 43.5q0 63 -47 101.5t-129 38.5q-131 0 -293 -113z" />
<glyph unicode="3" horiz-adv-x="940" d="M29 -297l34 207q143 -92 328 -92q119 -2 189.5 51t70.5 154q0 180 -256 186q-86 4 -176 -12v186q176 37 277.5 93t101.5 157q0 78 -54.5 121t-154.5 43q-137 0 -293 -115l-65 186q182 135 405 136q190 0 306 -91.5t116 -238.5q0 -109 -72.5 -194t-185.5 -128 q143 -23 222 -114t79 -209q0 -188 -142.5 -300t-355.5 -112q-214 0 -374 86z" />
<glyph unicode="4" horiz-adv-x="1122" d="M45 160l608 835h246v-778h195l6 -203h-201v-381h-229v381h-598zM315 215h363v510z" />
<glyph unicode="5" horiz-adv-x="942" d="M41 -301l31 215q176 -90 336 -90q115 0 185.5 62.5t70.5 168.5q0 94 -72 156.5t-205 62.5q-139 0 -254 -36l-45 45l86 692h694l6 -211h-503l-41 -309q10 0 30.5 3t43 4t47.5 1q209 0 329.5 -108.5t120.5 -282.5q0 -201 -137 -328t-352 -127q-211 0 -371 82z" />
<glyph unicode="6" horiz-adv-x="1112" d="M82 530q0 291 199.5 517.5t554.5 291.5l63 -209q-223 -47 -372.5 -155.5t-196.5 -272.5l6 -4q131 127 323 127q164 0 272.5 -109.5t108.5 -291.5q0 -197 -129 -326t-346 -129q-225 0 -354 158.5t-129 402.5zM336 453q0 -119 64.5 -203t172.5 -84q100 0 161 65.5t61 174.5 q0 102 -60.5 164.5t-156.5 62.5q-133 0 -234 -88q-8 -35 -8 -92z" />
<glyph unicode="7" horiz-adv-x="978" d="M37 758l6 217h895v-178l-563 -1164h-240l553 1125h-651z" />
<glyph unicode="8" horiz-adv-x="1067" d="M78 319q0 111 73.5 194t178.5 110q-233 109 -234 299q0 166 119 269t332 103q201 0 311.5 -97t110.5 -253q0 -102 -63.5 -181t-160.5 -112q244 -113 244 -307q0 -164 -119.5 -269.5t-339.5 -105.5q-211 0 -331.5 97t-120.5 253zM309 344q0 -84 64.5 -137t169 -53t161 45 t56.5 127q0 80 -71 130t-210 101q-80 -33 -125 -89t-45 -124zM330 936q0 -74 66.5 -122t197.5 -97q68 33 107.5 87t39.5 116q0 88 -57 139t-145 51q-96 0 -152.5 -49t-56.5 -125z" />
<glyph unicode="9" horiz-adv-x="1112" d="M72 545q0 199 129 329t346 130q225 0 354 -158t129 -404q0 -291 -199.5 -516t-554.5 -291l-63 207q223 47 371.5 155.5t191.5 272.5l-6 4q-125 -125 -313 -124q-166 0 -275.5 107.5t-109.5 287.5zM317 567q0 -102 60.5 -164.5t157.5 -62.5q135 0 233 90q8 33 8 90 q0 119 -64.5 203t-172.5 84q-100 0 -161 -65.5t-61 -174.5z" />
<glyph unicode=":" horiz-adv-x="509" d="M94 129q0 68 46 113t118 45q70 0 115 -45t45 -113t-45 -114t-115 -46q-72 0 -118 46t-46 114zM94 733.5q0 67.5 46 112.5t118 45q70 0 115 -45t45 -112.5t-45 -114t-115 -46.5q-72 0 -118 46.5t-46 114z" />
<glyph unicode=";" horiz-adv-x="509" d="M25 -238q207 145 206 238q0 41 -35.5 72.5t-129.5 72.5q8 68 57 111t123 43q86 0 147.5 -65.5t61.5 -159.5q0 -213 -324 -408zM94 733.5q0 67.5 46 112.5t118 45q70 0 115 -45t45 -112.5t-45 -114t-115 -46.5q-72 0 -118 46.5t-46 114z" />
<glyph unicode="&#x3c;" horiz-adv-x="999" d="M80 401v162l821 381v-207l-555 -245v-21l557 -244v-207z" />
<glyph unicode="=" horiz-adv-x="993" d="M78 180l10 191h821l11 -191h-842zM78 780h842l-11 -190h-821z" />
<glyph unicode="&#x3e;" horiz-adv-x="999" d="M80 20v207l555 244v21l-555 245v207l821 -381v-162z" />
<glyph unicode="?" horiz-adv-x="792" d="M96 1071l6 211q88 27 191 27q186 0 306 -103.5t120 -255.5q0 -117 -60.5 -179t-166.5 -99q-55 -18 -78 -27.5t-47.5 -30t-26.5 -45.5q0 -10 4 -20t12.5 -21.5t14.5 -20.5t20 -24l21 -20l21 -22q15 -15 20 -17q-131 -29 -140 -29q-72 35 -119 98.5t-47 133.5 q0 84 53.5 132t151.5 79q84 27 122 51t38 69q0 61 -62.5 100.5t-175.5 39.5q-80 0 -178 -27zM174 122.5q0 67.5 46 108.5t118 41t117 -41t45 -108.5t-45 -110.5t-117 -43t-118 43t-46 110.5z" />
<glyph unicode="@" horiz-adv-x="1726" d="M84 496q0 340 236.5 582.5t576.5 242.5q317 0 541.5 -191.5t224.5 -500.5q0 -254 -125 -400.5t-299 -146.5q-195 0 -254 162q-104 -123 -246 -123q-125 0 -207.5 94t-82.5 242q0 199 124.5 334t309.5 135q84 0 182 -45l207 45l-101 -510q-41 -209 121 -209 q115 0 197 113.5t82 308.5q0 268 -202 439t-472 171q-299 0 -510 -220t-211 -521q0 -289 186.5 -486.5t473.5 -197.5q119 0 256 41l24 -78q-147 -47 -285 -47q-324 0 -535.5 221t-211.5 545zM647 475q0 -90 48 -145.5t120 -55.5q74 0 148 64l75 371q-70 66 -153 65 q-102 0 -170 -91t-68 -208z" />
<glyph unicode="A" horiz-adv-x="1247" d="M8 0l467 1280h303l461 -1280h-252l-106 303h-516l-105 -303h-252zM430 510h387l-192 555z" />
<glyph unicode="B" horiz-adv-x="1214" d="M147 0v1280h490q465 0 465 -338q0 -203 -230 -278q127 -29 199 -107t72 -190q0 -367 -498 -367h-498zM393 201h248q250 0 250 176q0 172 -268 172h-230v-348zM393 731h215q119 0 181.5 47t62.5 131q0 82 -57.5 126t-165.5 44h-236v-348z" />
<glyph unicode="C" horiz-adv-x="1243" d="M86 637q0 305 183.5 489.5t484.5 184.5q233 0 413 -101l-77 -217q-156 102 -336 103q-188 0 -302 -122t-114 -329q0 -213 113.5 -337t306.5 -124q184 0 350 115l47 -229q-168 -100 -407 -101q-299 0 -480.5 178.5t-181.5 489.5z" />
<glyph unicode="D" horiz-adv-x="1355" d="M147 0v1280h435q324 0 507 -171t183 -460q0 -301 -185.5 -475t-521.5 -174h-418zM397 211h183q207 0 324.5 108.5t117.5 317.5q0 215 -117 323.5t-338 108.5h-170v-858z" />
<glyph unicode="E" d="M147 0v1280h873v-211h-627v-321h514v-211h-514v-326h627v-211h-873z" />
<glyph unicode="F" horiz-adv-x="1060" d="M147 0v1280h852v-217h-604v-338h492v-215h-492v-510h-248z" />
<glyph unicode="G" horiz-adv-x="1345" d="M86 637q0 307 183.5 490.5t484.5 183.5q119 0 243.5 -30t208.5 -81l-80 -217q-182 113 -368 113q-190 0 -305 -122t-115 -329q0 -215 111.5 -340t308.5 -125q129 0 241 51v246h-335v211h567v-598q-213 -121 -479 -121q-299 0 -482.5 180.5t-183.5 487.5z" />
<glyph unicode="H" horiz-adv-x="1402" d="M147 0v1280h250v-526h609v526h247v-1280h-247v537h-609v-537h-250z" />
<glyph unicode="I" horiz-adv-x="550" d="M152 0v1280h247v-1280h-247z" />
<glyph unicode="J" horiz-adv-x="911" d="M25 53l45 215q135 -84 252 -84q104 0 151 60.5t47 191.5v844h248v-860q0 -215 -104.5 -333t-317.5 -118q-186 0 -321 84z" />
<glyph unicode="K" horiz-adv-x="1202" d="M147 0v1280h250v-588h2l484 588h297l-549 -629l557 -651h-305l-484 586h-2v-586h-250z" />
<glyph unicode="L" horiz-adv-x="1038" d="M147 0v1280h250v-1061h578v-219h-828z" />
<glyph unicode="M" horiz-adv-x="1660" d="M115 0l43 1280h346l330 -1008l329 1008h342l41 -1280h-241l-11 1026l-333 -1008h-263l-336 1008l-12 -1026h-235z" />
<glyph unicode="N" horiz-adv-x="1411" d="M147 0v1280h273l606 -932v932h238v-1292h-267l-612 942v-930h-238z" />
<glyph unicode="O" horiz-adv-x="1486" d="M86 637q0 295 187.5 484.5t471.5 189.5q289 0 472.5 -178.5t183.5 -487.5q0 -295 -186.5 -485.5t-471.5 -190.5q-291 0 -474 179.5t-183 488.5zM338 645q0 -211 111.5 -339t298.5 -128q182 0 292.5 127t110.5 332q0 211 -112.5 338t-299.5 127q-182 0 -291.5 -126 t-109.5 -331z" />
<glyph unicode="P" horiz-adv-x="1159" d="M147 0v1280h414q258 0 393.5 -116.5t135.5 -311.5q0 -219 -143.5 -335t-403.5 -118l-146 -2v-397h-250zM393 604l160 4q287 6 287 236q0 227 -295 227h-152v-467z" />
<glyph unicode="Q" horiz-adv-x="1486" d="M86 637q0 295 187.5 484.5t471.5 189.5q289 0 472.5 -178.5t183.5 -487.5q0 -195 -89 -349.5t-245 -236.5l379 -176l-103 -209l-559 297q-6 0 -20 -1t-21 -1q-291 0 -474 179.5t-183 488.5zM338 645q0 -211 111.5 -341t298.5 -130q182 0 292.5 127t110.5 336 q0 211 -112.5 338t-299.5 127q-182 0 -291.5 -126t-109.5 -331z" />
<glyph unicode="R" horiz-adv-x="1189" d="M147 0v1280h3h2h2h2h2h2h2h2h2h2h2h2h2h2h2h2h2h2h2h2h2h3h2h2h2h2h2h2h2h2h2h2h2h2h2h2h2h2h2h4h2h3h2h2h2h2h2h2h4h2h2h2h2h2h4h2h2h2h4h3h2h2h4h2h2h4h2h2h4h2h2h4h2h2h4h3h2h4h2h4h2h2h4h2h4h2h4h2h4h2h5h2h4h2h4h2h4h2h4h2h4h4h2h5h2h4h4h2h4h2h4h4h2h4h4h2h5h4h2h4 h4h2h4h4h2h4h4h4h3h4h4h4h2h4h4h4h4h2h4h4h5h4h4h2h4h4h4h4h4h4h4h3h18q238 0 367 -104.5t129 -284.5q0 -135 -72 -229.5t-205 -139.5l336 -522h-285l-284 469l-185 -12v-457h-250zM395 653l187 4q119 6 186.5 60.5t67.5 156.5q0 197 -279 197h-162v-418z" />
<glyph unicode="S" horiz-adv-x="1097" d="M68 88l57 215q203 -123 407 -123q104 0 171 47t67 123q0 74 -64.5 114t-220.5 83q-84 23 -142 47t-122.5 68.5t-98.5 112t-34 157.5q0 172 124 275.5t335 103.5q242 0 440 -113l-61 -211q-184 111 -377 111q-109 0 -162 -41t-53 -111q0 -72 69.5 -111.5t221.5 -80.5 q84 -23 144 -49.5t121.5 -70.5t93.5 -110.5t32 -154.5q0 -178 -132 -289t-356 -111q-265 0 -460 119z" />
<glyph unicode="T" horiz-adv-x="1189" d="M43 1061v219h1104v-219h-428v-1061h-248v1061h-428z" />
<glyph unicode="U" horiz-adv-x="1349" d="M141 485v795h250v-762q0 -330 291 -330q279 0 279 320v2v2v2v2v2v2v2v2v2v2v2v2v3v2v2v2v2v2v2v2v2v2v2v2v2v2v2v2v2v2v2v2v2v3v2v2v2v2v2v2v2v2v2v2v2v2v2v2v2v2v2v2v2v2v3v2v2v2v2v2v2v2v2v2v2v2v2v2v2v2v2v2v2v5v2v2v2v2v2v2v2v2v4v2v2v2v2v2v4v2v2v2v3v2v4v2v2v2v2v4 v2v2v2v4v2v2v2v4v2v3v4v2v2v2v4v2v2v4v2v2v4v2v2v4v2v3v4v2v2v4v2v2v4v2v4v2v2v4v2v4v3v2v4v2v4v2v4v2v4v2v2v4v2v4v2v5v2v4v2v4v2v4v2v4v2v4v2v4v3v4v2v4v2v4v4v2v4v2v4v2v4v2v5v4v2v4v2v4v4v2v4v2v4v4v2v5v4v2v4v2v4v4v2v4v4v2v4v5v2v4v4v2v4v4v4v2v4v4v2v4v5v4v2v4v4v2v4 v4v4v2v4v4v5v2v4v4v4v4v2v4v4v4v4v3v4v4v4v4v2v4v4v4v4v4v2v5v4v4v4v4v2v4v4v4v4v4v5v18h247v-772q0 -260 -139 -399.5t-395 -139.5q-250 0 -391.5 134t-141.5 382z" />
<glyph unicode="V" horiz-adv-x="1226" d="M4 1280h258l350 -1028l351 1028h258l-459 -1280h-303z" />
<glyph unicode="W" horiz-adv-x="1898" d="M55 1280h267l223 -975l266 975h287l270 -975l221 975h254l-352 -1280h-258l-283 989l-288 -989h-254z" />
<glyph unicode="X" horiz-adv-x="1247" d="M23 0l450 643l-436 637h291l295 -459l305 459h282l-440 -627l455 -653h-293l-314 481l-313 -481h-282z" />
<glyph unicode="Y" horiz-adv-x="1179" d="M20 1280h271l303 -553l297 553h268l-444 -784v-496h-248v498z" />
<glyph unicode="Z" horiz-adv-x="1128" d="M55 0v172l682 891h-669v217h983v-176l-680 -887h678v-217h-994z" />
<glyph unicode="[" horiz-adv-x="798" d="M154 -438v1837h630v-182h-415v-1471h415v-184h-630z" />
<glyph unicode="\" horiz-adv-x="522" d="M-61 1438h190l498 -1846h-191z" />
<glyph unicode="]" horiz-adv-x="800" d="M18 -254h416v1471h-416v182h629v-1837h-629v184z" />
<glyph unicode="^" horiz-adv-x="811" d="M53 1071l240 383h233l240 -383h-170l-184 242h-4l-183 -242h-172z" />
<glyph unicode="_" horiz-adv-x="1028" d="M-20 0h1069v-180h-1069v180z" />
<glyph unicode="`" horiz-adv-x="808" d="M102 1446h273l211 -375h-162z" />
<glyph unicode="a" horiz-adv-x="985" d="M66 236q0 317 559 335v23q0 96 -44 138t-145 42q-137 0 -313 -100l-49 190q178 111 395 111q215 0 308 -95q89 -91 89 -278v-16v-338q0 -53 14.5 -67.5t69.5 -18.5l-18 -182q-35 -4 -67 -4q-183 0 -232 133h-8q-115 -139 -267 -140q-127 0 -209.5 77t-82.5 190zM303 268 q0 -55 39 -89t102 -34q104 0 181 82v217q-176 -23 -249 -61.5t-73 -114.5z" />
<glyph unicode="b" horiz-adv-x="1116" d="M129 -31v1399l242 33v-547q125 121 264 121q186 0 300 -137.5t114 -356.5q0 -223 -137.5 -366.5t-340.5 -143.5q-113 0 -211 33zM371 217q70 -53 178 -53q119 0 186.5 86t67.5 221q0 139 -63.5 220t-174.5 81q-106 0 -194 -78v-2v-2v-2v-2v-2v-2v-2v-2v-2v-2v-2v-2v-2v-2 v-2v-2v-3v-2v-2v-2v-2v-2v-2v-2v-2v-2v-2v-2v-2v-2v-2v-2v-2v-2v-2v-2v-3v-2v-2v-2v-2v-2v-2v-2v-2v-2v-2v-2v-4v-2v-2v-2v-2v-2v-2v-5v-2v-2v-2v-2v-4v-2v-2v-2v-4v-2v-2v-2v-4v-2v-2v-4v-3v-2v-4v-2v-2v-4v-2v-2v-4v-2v-2v-4v-2v-4v-2v-2v-5v-2v-4v-2v-4v-2v-4v-2v-2v-4 v-2v-4v-2v-4v-3v-4v-4v-2v-4v-2v-4v-2v-4v-2v-4v-4v-2v-5v-2v-4v-4v-2v-4v-2v-4v-4v-2v-4v-4v-2v-5v-4v-2v-4v-4v-2v-4v-4v-4v-2v-4v-4v-3v-4v-4v-4v-2v-4v-4v-4v-4v-2v-4v-4v-5v-4v-2v-4v-4v-4v-4v-2v-4v-4v-4v-5v-16z" />
<glyph unicode="c" horiz-adv-x="962" d="M74 469q0 229 137 367.5t360 138.5q190 0 326 -80l-51 -195q-121 76 -256 76q-129 0 -198.5 -81t-69.5 -220q0 -143 73.5 -224t194.5 -81q147 0 262 74l39 -197q-129 -78 -328 -78q-229 0 -359 133.5t-130 366.5z" />
<glyph unicode="d" horiz-adv-x="1122" d="M74 465q0 223 137 366.5t340 143.5q102 0 201 -31v424l241 33v-1401h-241v92q-127 -123 -267 -123q-186 0 -298.5 137.5t-112.5 358.5zM319 475q0 -137 65 -219t173 -82q111 0 195 78v2v2v2v2v2v2v2v2v2v2v2v2v3v2v2v2v2v2v2v2v2v2v2v2v2v2v2v2v2v2v2v2v2v3v2v2v2v2v4v2 v2v2v2v2v2v2v2v2v2v2v4v2v3v2v2v2v4v2v2v2v2v4v2v2v2v4v2v2v5v2v2v2v4v2v2v4v2v2v4v2v4v2v2v4v3v4v2v2v4v2v4v2v4v2v4v2v4v2v5v2v4v2v4v2v4v2v4v2v4v2v4v4v3v4v2v4v2v4v4v2v4v4v2v4v4v3v4v4v2v4v4v2v4v4v2v4v4v5v2v4v4v4v2v4v4v4v2v4v4v5v4v2v4v4v4v4v2v4v4v4v5v4v18 q-76 55 -179 55q-119 0 -186.5 -86t-67.5 -221z" />
<glyph unicode="e" horiz-adv-x="1021" d="M74 463q0 229 137 370.5t350 141.5q184 0 286.5 -103.5t102.5 -279.5q0 -90 -20 -158l-619 -8v-6q8 -117 83 -187.5t200 -70.5q156 0 295 86l31 -201q-143 -78 -342 -78q-227 0 -365.5 134.5t-138.5 359.5zM317 567l406 2v17q0 207 -180 207q-94 0 -155 -66t-71 -160z " />
<glyph unicode="f" horiz-adv-x="702" d="M8 750l8 153l154 45l2 101q8 377 342 376q115 0 223 -47l-4 -22q-6 -20 -13 -51t-15.5 -62t-12.5 -51l-6 -21q-86 39 -154 39q-66 0 -95 -40t-29 -128v-104h280l-6 -199h-268v-739h-242v737z" />
<glyph unicode="g" horiz-adv-x="1028" d="M6 -248q0 78 55.5 135.5t157.5 73.5q-63 23 -103 66t-40 98q0 63 48 117.5t126 81.5q-80 41 -126 117.5t-46 172.5q0 152 112.5 256.5t303.5 104.5q131 0 266 -60l254 23l10 -211l-180 31q43 -47 43 -148q0 -145 -111.5 -244.5t-283.5 -99.5q-61 0 -130 17 q-74 -29 -73 -82q0 -39 42 -56.5t152 -17.5h2h2h2h3h2h2h4h2h2h2h2h4h2h4h2h4h2h4h5h2h4h4h4h4h4h4h4h17q424 0 424 -260q0 -164 -161 -270.5t-390 -106.5q-195 0 -322 69.5t-127 192.5zM225 -199q0 -66 75 -107.5t194 -41.5q127 0 209.5 44t82.5 116q0 63 -61 85.5 t-201 22.5q-102 0 -180 8q-119 -43 -119 -127zM311 612q0 -86 49.5 -137t135.5 -51q80 0 125 53t45 144q0 88 -46.5 139t-134.5 51q-80 0 -127 -54.5t-47 -144.5z" />
<glyph unicode="h" horiz-adv-x="1107" d="M129 0v1368l242 33v-576q137 150 319 150q137 0 216 -87t79 -239v-649h-242v575q0 100 -38.5 143.5t-118.5 43.5q-123 0 -215 -88v-674h-242z" />
<glyph unicode="i" horiz-adv-x="499" d="M102 1262q0 66 39 105.5t109 39.5q72 0 110.5 -40t38.5 -105q0 -68 -38.5 -107t-110.5 -39q-70 0 -109 39t-39 107zM129 0v938l242 35v-973h-242z" />
<glyph unicode="j" horiz-adv-x="495" d="M-37 -338q90 43 128 114.5t38 219.5v2v2v2v2v2v2v2v2v2v2v2v2v3v2v2v2v2v2v2v2v2v2v2v2v2v2v2v2v2v2v2v2v2v3v2v2v2v2v2v2v2v2v2v2v2v2v2v2v2v2v2v2v2v2v3v2v2v2v2v2v2v2v2v2v2v2v2v2v2v2v2v2v2v2v3v2v2v2v2v2v2v2v2v2v2v2v2v2v2v4v2v2v2v2v3v2v2v2v4v2v2v2v2v2v2v4v2v2 v2v2v2v4v3v2v2v2v4v2v2v2v4v2v2v2v2v4v2v2v2v5v2v2v4v2v2v2v4v2v2v4v2v2v2v4v2v2v5v2v2v4v2v2v4v2v2v4v2v4v2v2v4v3v2v4v2v4v2v2v4v2v4v2v2v4v2v5v2v4v2v2v4v2v4v2v4v2v4v2v4v2v5v2v4v2v2v4v2v4v2v4v4v2v4v2v5v2v4v2v4v2v4v2v4v2v4v4v2v5v2v4v2v4v4v2v4v2v4v4v2v4v2v5v4v2v4 v2v4v4v2v4v4v2v4v2v5v4v2v4v4v2v4v4v2v4v4v2v5v4v2v4v4v4v2v4v4v2v4v4v3v4v4v4v2v4v4v4v2v4v4v4v3v4v4v4v2v4v4v4v2v4v4v4v5v2v4v4v4v4v2v4v4v4v4v2v5v4v4v4v4v2v4v4v4v4v4v5v2v4v4v4v4v4v4v4v2v4v5v18l242 35v-2v-2v-2v-2v-2v-2v-3v-2v-2v-2v-2v-2v-2v-2v-2v-2v-2v-2v-2v-2 v-2v-2v-2v-2v-2v-2v-2v-3v-2v-2v-2v-2v-2v-2v-2v-2v-2v-2v-2v-2v-2v-2v-2v-2v-2v-2v-2v-3v-2v-2v-2v-2v-2v-2v-2v-2v-2v-2v-2v-2v-2v-2v-2v-2v-2v-2v-2v-2v-3v-2v-2v-2v-2v-2v-2v-2v-2v-2v-2v-2v-2v-2v-2v-2v-2v-2v-2v-2v-2v-3v-4v-2v-2v-2v-2v-2v-2v-2v-2v-4v-2v-2v-2v-2 v-2v-2v-4v-3v-2v-2v-2v-4v-2v-2v-2v-2v-4v-2v-2v-2v-2v-4v-2v-2v-2v-5v-2v-2v-2v-4v-2v-2v-2v-4v-2v-2v-4v-2v-2v-2v-4v-3v-2v-4v-2v-2v-4v-2v-2v-4v-2v-2v-4v-2v-2v-4v-3v-2v-4v-2v-4v-2v-2v-4v-2v-4v-2v-2v-4v-2v-4v-3v-2v-4v-2v-4v-2v-4v-2v-4v-2v-2v-4v-2v-4v-2v-5v-2 v-4v-2v-4v-2v-4v-2v-4v-2v-4v-2v-4v-2v-5v-2v-4v-2v-4v-2v-4v-4v-2v-4v-2v-4v-2v-5v-2v-4v-4v-2v-4v-2v-4v-4v-2v-4v-2v-4v-5v-2v-4v-2v-4v-4v-2v-4v-4v-2v-4v-2v-4v-5v-2v-4v-4v-2v-4v-4v-2v-4v-4v-2v-4v-5v-4v-2v-4v-4v-2v-4v-4v-2v-4v-4v-4v-2v-5v-4v-4v-2v-4v-4v-4v-2 v-4v-4v-4v-2v-5v-4v-4v-4v-2v-4v-4v-4v-4v-2v-4v-5v-4v-4v-2v-4v-4v-4v-4v-4v-4v-2v-4v-5v-4v-4v-4v-4v-2v-4v-4v-4v-4v-5v-4v-4v-4v-4v-4v-4v-2v-4v-4v-4v-5v-4v-4v-4v-4v-4v-4v-4v-4v-4v-4v-5v-6v-4v-16q0 -207 -59.5 -320.5t-200.5 -173.5zM102 1262q0 66 39 105.5 t109 39.5q72 0 110.5 -40t38.5 -105q0 -68 -38.5 -107t-110.5 -39q-70 0 -109 39t-39 107z" />
<glyph unicode="k" horiz-adv-x="1011" d="M129 0v1368l242 33v-877h4l338 420h288l-391 -448l394 -496h-289l-340 455h-4v-455h-242z" />
<glyph unicode="l" horiz-adv-x="499" d="M129 0v1368l242 33v-1401h-242z" />
<glyph unicode="m" horiz-adv-x="1677" d="M129 0v940l242 33v-133q135 135 301 135q186 0 258 -162q150 162 336 162q135 0 212.5 -87t77.5 -241v-647h-241v573q0 100 -39 144.5t-117 44.5q-100 0 -196 -84v-57v-621h-242v573q0 102 -38 145.5t-116 43.5q-115 0 -196 -78v-684h-242z" />
<glyph unicode="n" horiz-adv-x="1107" d="M129 0v940l242 33v-150q137 152 311 152q143 0 223 -87t80 -239v-649h-242v575q0 102 -39.5 144.5t-123.5 42.5q-117 0 -209 -88v-674h-242z" />
<glyph unicode="o" d="M74 471q0 229 138 367.5t351 138.5q211 0 344 -136t133 -368q0 -227 -139 -365.5t-350 -138.5t-344 135.5t-133 366.5zM311 473q0 -137 65.5 -222t182.5 -85q115 0 178.5 83t63.5 222t-65.5 225t-180.5 86q-117 0 -180.5 -85t-63.5 -224z" />
<glyph unicode="p" horiz-adv-x="1122" d="M129 -451v1391l242 33v-119q125 121 264 121q186 0 300 -137.5t114 -356.5q0 -223 -137.5 -366.5t-340.5 -143.5q-115 0 -200 27v-449h-242zM371 217q70 -53 178 -53q119 0 186.5 86t67.5 221q0 139 -63.5 220t-174.5 81q-106 0 -194 -78v-2v-2v-2v-2v-2v-2v-2v-2v-2v-2 v-2v-2v-2v-2v-2v-2v-3v-2v-2v-2v-2v-2v-2v-2v-2v-2v-2v-2v-2v-2v-2v-2v-2v-2v-2v-2v-3v-2v-2v-2v-2v-2v-2v-2v-2v-2v-2v-2v-4v-2v-2v-2v-2v-2v-2v-5v-2v-2v-2v-2v-4v-2v-2v-2v-4v-2v-2v-2v-4v-2v-2v-4v-3v-2v-4v-2v-2v-4v-2v-2v-4v-2v-2v-4v-2v-4v-2v-2v-5v-2v-4v-2v-4v-2 v-4v-2v-2v-4v-2v-4v-2v-4v-3v-4v-4v-2v-4v-2v-4v-2v-4v-2v-4v-4v-2v-5v-2v-4v-4v-2v-4v-2v-4v-4v-2v-4v-4v-2v-5v-4v-2v-4v-4v-2v-4v-4v-4v-2v-4v-4v-3v-4v-4v-4v-2v-4v-4v-4v-4v-2v-4v-4v-5v-4v-2v-4v-4v-4v-4v-2v-4v-4v-4v-5v-16z" />
<glyph unicode="q" horiz-adv-x="1122" d="M74 465q0 223 137 366.5t340 143.5q123 0 233 -41l209 39v-1424h-241v543q-127 -123 -267 -123q-186 0 -298.5 137.5t-112.5 358.5zM319 475q0 -139 65 -222t173 -83q106 0 195 82v2v2v2v2v2v2v2v2v2v2v2v2v3v2v2v2v2v2v2v2v2v2v2v2v2v2v2v2v2v2v2v2v2v3v2v2v2v2v4v2v2v2 v2v2v2v2v2v2v2v2v4v2v3v2v2v2v4v2v2v2v2v4v2v2v2v4v2v2v5v2v2v2v4v2v2v4v2v2v4v2v4v2v2v4v3v4v2v2v4v2v4v2v4v2v4v2v4v2v5v2v4v2v4v2v4v2v4v2v4v2v4v4v3v4v2v4v2v4v4v2v4v4v2v4v4v3v4v4v2v4v4v2v4v4v2v4v4v5v2v4v4v4v2v4v4v4v2v4v4v5v4v2v4v4v4v4v2v4v4v4v5v4v18 q-78 57 -179 57q-119 0 -186.5 -87t-67.5 -222z" />
<glyph unicode="r" horiz-adv-x="800" d="M129 0v938l242 35v-154q92 156 245 156q96 0 168 -43l-53 -217q-68 37 -135 37q-133 0 -225 -168v-584h-242z" />
<glyph unicode="s" horiz-adv-x="882" d="M55 55l54 189q156 -88 319 -88q72 0 114 27.5t42 76.5q0 51 -47.5 78t-143.5 49q-152 35 -235.5 101.5t-83.5 191.5q0 133 103.5 214t273.5 81q197 0 344 -76l-54 -188q-152 78 -297 77q-141 0 -141 -94q0 -49 46 -73.5t145 -49.5q154 -37 237.5 -103.5t83.5 -193.5 q0 -135 -107.5 -221t-285.5 -86q-211 0 -367 88z" />
<glyph unicode="t" horiz-adv-x="733" d="M16 750l7 153l147 47l4 209h234l-5 -221h267l-6 -199h-275l-12 -436q-2 -129 125 -129q61 0 147 29l33 -197q-109 -37 -219 -37q-162 0 -241 77q-73 71 -73 219q0 12 1 24l14 444z" />
<glyph unicode="u" horiz-adv-x="1099" d="M121 295v649h241v-575q0 -100 40 -142.5t120 -42.5q121 0 207 82v678h242v-938l-242 -33v140q-133 -143 -311 -144q-139 0 -218 87t-79 239z" />
<glyph unicode="v" horiz-adv-x="978" d="M-2 944h258l238 -690l227 690h260l-365 -946h-258z" />
<glyph unicode="w" horiz-adv-x="1490" d="M25 944h251l164 -663l189 661h241l203 -657l141 659h256l-276 -948h-238l-211 663l-204 -663h-236z" />
<glyph unicode="x" horiz-adv-x="931" d="M-4 0l326 483l-314 461h262l195 -305l188 305h265l-306 -457l324 -487h-262l-207 336l-205 -336h-266z" />
<glyph unicode="y" horiz-adv-x="970" d="M-55 -410l71 199q94 -45 150 -45q53 0 87 33t71 127l41 108l-369 932h260l236 -676l225 676h258l-361 -926l-55 -147q-70 -188 -155 -262t-220 -74q-118 0 -239 55z" />
<glyph unicode="z" horiz-adv-x="888" d="M41 0v166l494 573h-476v205h785v-162l-496 -575h496v-207h-803z" />
<glyph unicode="{" horiz-adv-x="755" d="M25 489l6 107q135 10 192.5 45t57.5 115q0 51 -40 182t-40 219q0 147 130 206.5t392 70.5v-154q-162 -12 -229.5 -45t-67.5 -98q0 -47 38 -168t38 -209q0 -111 -77 -181.5t-210 -78.5v-21q133 -8 210 -78.5t77 -181.5q0 -88 -38 -205.5t-38 -165.5q0 -68 67.5 -102.5 t229.5 -44.5v-154q-264 10 -393 69.5t-129 207.5q0 88 40 217t40 182q0 78 -58.5 114t-191.5 46z" />
<glyph unicode="|" horiz-adv-x="505" d="M150 -408v1846h206v-1846h-206z" />
<glyph unicode="}" horiz-adv-x="755" d="M33 -299q162 10 229.5 45t67.5 102q0 47 -37 165t-37 206q0 111 76 181.5t211 78.5v21q-135 8 -211 78.5t-76 181.5q0 88 37 209t37 168q0 66 -67.5 98.5t-229.5 44.5v154q264 -10 394 -69.5t130 -207.5q0 -88 -42 -219t-42 -182q0 -80 58.5 -115t193.5 -45l6 -107 l-6 -106q-135 -10 -193.5 -46t-58.5 -114q0 -53 42 -182t42 -217q0 -147 -129 -206.5t-395 -70.5v154z" />
<glyph unicode="~" horiz-adv-x="811" d="M35 385q16 156 67.5 221.5t145.5 65.5q72 0 178 -65.5t133 -65.5q55 0 70 116h2h2h2h2h2h2h2h2h2h2h2h2h2h2h5h2h2h2h2h4h2h2h4h2h4h2h4h2h4h2h5h4h2h4h4h2h4h4h4h2h4h4h5h4h4h4h18q-16 -154 -66 -219t-145 -65q-72 0 -178 64.5t-135 64.5q-53 0 -70 -117h-2h-2h-2h-2h-2 h-2h-2h-2h-2h-2h-2h-2h-2h-4h-2h-2h-2h-3h-4h-2h-2h-4h-2h-4h-2h-4h-2h-4h-2h-4h-2h-5h-4h-2h-4h-4h-4h-4h-2h-4h-4h-4h-5h-4h-4h-20z" />
<glyph unicode="&#xa1;" horiz-adv-x="593" d="M137 1155.5q0 65.5 45 109.5t112.5 44t114 -44t46.5 -109.5t-46.5 -107.5t-114 -42t-112.5 42t-45 107.5zM156 -57l59 915h160l61 -915h-280z" />
<glyph unicode="&#xa2;" horiz-adv-x="948" d="M74 469q0 229 136 367.5t359 138.5h31l29 192h119l-31 -206q102 -18 180 -66l-51 -195q-76 47 -160 66l-22 -150l-46 -299l-22 -149q145 4 256 76l39 -197q-129 -78 -326 -78l-35 -235h-120l36 246q-174 35 -273 162.5t-99 326.5zM315 475q0 -225 164 -289l90 592 q-123 -6 -188.5 -87t-65.5 -216z" />
<glyph unicode="&#xa3;" horiz-adv-x="1103" d="M43 154q125 33 174 82t49 147q0 72 -10 178h-188l-9 127h183q-8 127 -9 182q0 211 121 326t320 115q190 0 336 -94q-51 -193 -52 -197q-129 90 -272 90q-109 0 -163 -65.5t-54 -174.5q0 -43 8 -182h375l-8 -127h-357q4 -102 5 -151q0 -78 -15 -136q123 -100 254 -100 q152 0 187 207l176 -33q-12 -184 -108.5 -281.5t-233.5 -97.5q-172 0 -344 160q-94 -117 -312 -164z" />
<glyph unicode="&#xa4;" horiz-adv-x="952" d="M57 1032l123 123l127 -127q74 43 170 43t176 -43l119 119l121 -121l-125 -125q41 -78 41 -166q0 -90 -41 -168l135 -135l-123 -123l-133 133q-74 -43 -170 -43q-109 0 -172 39l-121 -121l-121 121l121 121q-41 68 -41 176q0 104 41 172zM301 735q0 -76 48 -128t128 -52 q78 0 126 52t48 128t-47 128t-127 52t-128 -52t-48 -128z" />
<glyph unicode="&#xa5;" horiz-adv-x="1183" d="M23 1280h270l299 -522l299 522h264l-399 -635h315l-6 -127h-358v-147h358l6 -127h-360v-244h-242v244h-360l8 127h356v147h-356l-8 127h317z" />
<glyph unicode="&#xa6;" horiz-adv-x="505" d="M150 -285v686h206v-686h-206zM150 629v686h206v-686h-206z" />
<glyph unicode="&#xa7;" horiz-adv-x="1021" d="M47 584q0 86 57.5 150.5t149.5 96.5q-104 72 -104 189q0 133 103 215t273 82q197 0 344 -76l-53 -188q-147 76 -297 75q-141 0 -141 -92q0 -12 4 -22t13.5 -19.5t18.5 -17.5t26.5 -15.5t30.5 -13.5t36.5 -13t38.5 -11l43 -13l43 -12q76 -23 127 -42t109.5 -53t88 -83 t29.5 -113q0 -86 -50 -149.5t-140 -98.5q104 -74 104 -186q0 -135 -107.5 -222t-285.5 -87q-215 0 -367 86l54 190q150 -88 317 -88q72 0 115 28t43 77q0 27 -18.5 48t-61.5 38.5t-75 27t-99.5 27.5t-106.5 29.5t-96 36t-88 51t-54.5 71t-23.5 97.5zM250 637q0 -53 63.5 -88 t191.5 -72t187 -63q92 57 92 143q0 43 -44 76t-99 50t-145 46t-144 51q-102 -69 -102 -143z" />
<glyph unicode="&#xa8;" horiz-adv-x="811" d="M41 1224.5q0 63.5 40 102.5t103.5 39t103.5 -39t40 -102q0 -66 -40 -106t-103.5 -40t-103.5 41t-40 104.5zM489 1225q0 63 40 102t103.5 39t103.5 -39t40 -102q0 -66 -40 -106t-103.5 -40t-103.5 40t-40 106z" />
<glyph unicode="&#xa9;" horiz-adv-x="1562" d="M68 637q0 297 208.5 507t503.5 210q297 0 506 -210t209 -507q0 -295 -209 -504t-506 -209q-295 0 -503.5 209t-208.5 504zM133 637q0 -268 190.5 -460.5t456.5 -192.5q268 0 459 192.5t191 460.5q0 270 -190.5 462.5t-459.5 192.5q-266 0 -456.5 -193.5t-190.5 -461.5z M422 635q0 182 108.5 288.5t292.5 106.5q141 0 248 -55l-59 -158q-84 53 -189 53q-98 0 -155.5 -61t-57.5 -168q0 -109 57.5 -172t157.5 -63q104 0 197 61l41 -168q-96 -53 -246 -53q-180 0 -287.5 102.5t-107.5 286.5z" />
<glyph unicode="&#xaa;" horiz-adv-x="765" d="M41 717q0 119 103.5 192.5t328.5 81.5v37q0 121 -129 121q-121 0 -238 -90l-61 147q145 106 324 107q297 0 297 -279v-274q0 -106 84 -213l-199 -43q-47 55 -68 117h-4q-98 -115 -221 -115q-96 0 -156.5 59.5t-60.5 151.5zM223 750q0 -47 30 -73t77 -26q88 0 143 56v176 q-250 -14 -250 -133z" />
<glyph unicode="&#xab;" horiz-adv-x="1214" d="M37 373v213l512 313l35 -156l-330 -262v-4l330 -262l-35 -156zM602 367v223l531 330l32 -162l-342 -277v-4l342 -278l-32 -162z" />
<glyph unicode="&#xac;" horiz-adv-x="1034" d="M82 506l6 192h866v-471h-190v279h-682z" />
<glyph unicode="&#xad;" horiz-adv-x="698" d="M61 393v207h578v-207h-578z" />
<glyph unicode="&#xae;" horiz-adv-x="1562" d="M68 637q0 297 208.5 507t503.5 210q297 0 506 -210t209 -507q0 -295 -209 -504t-506 -209q-295 0 -503.5 209t-208.5 504zM133 637q0 -268 190.5 -460.5t456.5 -192.5q268 0 459 192.5t191 460.5q0 270 -190.5 462.5t-459.5 192.5q-266 0 -456.5 -193.5t-190.5 -461.5z M487 272v748h316q145 0 225 -63.5t80 -176.5q0 -160 -143 -215l178 -293h-205l-145 254l-119 -6v-248h-187zM672 647l102 2q145 2 146 119q0 111 -148 111h-100v-232z" />
<glyph unicode="&#xaf;" horiz-adv-x="811" d="M82 1114l16 141h621l16 -141h-653z" />
<glyph unicode="&#xb0;" horiz-adv-x="774" d="M49 973q0 141 93.5 239.5t242.5 98.5q154 0 246 -97.5t92 -240.5q0 -141 -92 -238.5t-246 -97.5q-150 0 -243 98.5t-93 237.5zM160 973q0 -96 61.5 -163t163.5 -67q104 0 166.5 67t62.5 163q0 100 -62.5 166.5t-166.5 66.5q-102 0 -163.5 -66.5t-61.5 -166.5z" />
<glyph unicode="&#xb1;" horiz-adv-x="1034" d="M76 0l6 193h872l7 -193h-885zM76 518l6 193h340v274h196v-274h336l7 -193h-343v-274h-196v274h-346z" />
<glyph unicode="&#xb2;" horiz-adv-x="675" d="M41 1245q115 96 276 96q129 0 203 -67.5t74 -171.5q0 -88 -70.5 -166t-265.5 -229q-2 0 84 0h174h86l4 -148h-559l-4 131q246 209 283 248q78 82 77 149q0 47 -31.5 76t-86.5 29q-96 0 -181 -78q-2 0 -18 33t-31.5 65.5t-13.5 32.5z" />
<glyph unicode="&#xb3;" horiz-adv-x="675" d="M45 592l29 137q115 -47 209 -47q70 0 113.5 24.5t43.5 73.5q0 43 -40 71t-119 28q-43 -2 -125 -13v125q129 23 188 51.5t59 77.5q0 78 -110 78q-102 0 -189 -65l-57 133q113 76 264 75q127 0 201 -50t74 -142q0 -139 -207 -188q115 2 177 -50.5t62 -132.5 q0 -111 -91 -174t-236 -63q-133 0 -246 51z" />
<glyph unicode="&#xb4;" horiz-adv-x="808" d="M233 1071l209 375h273l-322 -375h-160z" />
<glyph unicode="&#xb5;" horiz-adv-x="1107" d="M129 -477v1421h242v-567q0 -104 51 -148.5t122.5 -44.5t132 46t60.5 157v557h242v-944h-242v98q-25 -55 -78 -89t-112 -34q-119 0 -176 99v-551h-242z" />
<glyph unicode="&#x3bc;" horiz-adv-x="1107" d="M129 -477v1421h242v-567q0 -104 51 -148.5t122.5 -44.5t132 46t60.5 157v557h242v-944h-242v98q-25 -55 -78 -89t-112 -34q-119 0 -176 99v-551h-242z" />
<glyph unicode="&#xb6;" d="M84 868q0 197 141.5 304.5t390.5 107.5h-2h2h2h3h2h2h2h2h2h2h2h2h2h2h2h2h2h2h2h2h2h2h2h3h2h2h2h4h2h2h2h2h2h2h2h2h2h4h2h2h2h2h3h4h2h2h2h4h2h2h4h2h2h4h2h2h4h2h5h2h2h4h2h4h2h4h2h2h4h2h4h2h5h4h2h4h2h4h2h4h4h2h4h2h4h5h2h4h4h2h4h4h2h4h4h2h4h4h5h2h4h4h4h2h4h4 h4h4h2h5h4h4h18v-1417h-207v608q-53 -8 -139 -8q-254 0 -384 108.5t-130 296.5z" />
<glyph unicode="&#xb7;" horiz-adv-x="505" d="M94 495.5q0 67.5 46 112.5t118 45q70 0 115 -45t45 -112.5t-45 -113.5t-115 -46q-72 0 -118 46t-46 113.5z" />
<glyph unicode="&#xb8;" horiz-adv-x="811" d="M236 -147l239 227h137q-190 -182 -215 -201q117 -4 186.5 -53t69.5 -133q0 -205 -370 -250l-15 125q227 14 228 110q0 109 -242 78z" />
<glyph unicode="&#xb9;" horiz-adv-x="675" d="M94 1262l395 75v-778h-196v590l-193 -39z" />
<glyph unicode="&#xba;" horiz-adv-x="894" d="M59 907.5q0 182.5 111 293t283 110.5q170 0 275.5 -109.5t105.5 -294.5q0 -182 -110 -291.5t-280 -109.5t-277.5 109.5t-107.5 292zM254 909.5q0 -112.5 51 -182.5t143.5 -70t142.5 68t50 180.5t-52 183t-143 70.5q-92 0 -142 -68.5t-50 -181z" />
<glyph unicode="&#xbb;" horiz-adv-x="1224" d="M59 199l342 278v4l-342 277l33 162l533 -330v-223l-533 -330zM641 215l330 262v4l-330 262l37 156l510 -313v-213l-510 -314z" />
<glyph unicode="&#xbc;" horiz-adv-x="1464" d="M94 1262l395 75v-778h-196v590l-193 -39zM125 -238l1116 1518h182l-1116 -1518h-182zM811 10l307 469h223v-456h103l4 -134h-107v-182h-167v182h-353zM971 20h207v322z" />
<glyph unicode="&#xbd;" horiz-adv-x="1464" d="M94 -238l1116 1518h183l-1117 -1518h-182zM94 1262l395 75v-778h-196v590l-193 -39zM829 393q115 96 277 96q129 0 202.5 -67.5t73.5 -171.5q0 -88 -70.5 -166t-264.5 -229q-2 0 83 0h173h88l4 -148h-559l-5 131q246 209 283 248q78 82 78 150q0 47 -32 75.5t-87 28.5 q-96 0 -180 -78q-2 0 -18.5 33t-32 65.5t-13.5 32.5z" />
<glyph unicode="&#xbe;" horiz-adv-x="1464" d="M45 592l29 137q115 -47 209 -47q70 0 113.5 24.5t43.5 73.5q0 43 -40 71t-119 28q-43 -2 -125 -13v125q129 23 188 51.5t59 77.5q0 78 -110 78q-102 0 -189 -65l-57 133q113 76 264 75q127 0 201 -50t74 -142q0 -139 -207 -188q115 2 177 -50.5t62 -132.5 q0 -111 -91 -174t-236 -63q-133 0 -246 51zM125 -238l1116 1518h182l-1116 -1518h-182zM811 10l307 469h223v-456h103l4 -134h-107v-182h-167v182h-353zM971 20h207v322z" />
<glyph unicode="&#xbf;" horiz-adv-x="792" d="M72 330q0 117 61.5 178t167.5 98q55 20 77.5 29.5t46.5 30t26 45.5q0 41 -111 145q129 27 139 27q72 -33 119 -96.5t47 -133.5q0 -86 -53 -134t-152 -79q-86 -27 -122.5 -50t-36.5 -71q0 -61 63.5 -100t173.5 -39q90 0 176 29l-6 -211q-78 -29 -190 -29 q-184 0 -305 104.5t-121 256.5zM291 1155q0 70 45 112t116.5 42t117.5 -42t46 -112q0 -68 -46 -108.5t-117.5 -40.5t-116.5 40.5t-45 108.5z" />
<glyph unicode="&#xc0;" horiz-adv-x="1247" d="M8 0l467 1280h303l461 -1280h-252l-106 303h-516l-105 -303h-252zM225 1761h273l211 -375h-162zM430 510h387l-192 555z" />
<glyph unicode="&#xc1;" horiz-adv-x="1247" d="M8 0l467 1280h303l461 -1280h-252l-106 303h-516l-105 -303h-252zM430 510h387l-192 555zM535 1386l208 375h273l-322 -375h-159z" />
<glyph unicode="&#xc2;" horiz-adv-x="1247" d="M8 0l467 1280h303l461 -1280h-252l-106 303h-516l-105 -303h-252zM270 1386l240 383h233l240 -383h-170l-184 242h-4l-183 -242h-172zM430 510h387l-192 555z" />
<glyph unicode="&#xc3;" horiz-adv-x="1247" d="M8 0l467 1280h303l461 -1280h-252l-106 303h-516l-105 -303h-252zM252 1407q16 156 67.5 221.5t145.5 65.5q72 0 178.5 -65.5t132.5 -65.5q55 0 70 116h2h2h2h2h2h2h2h2h2h2h2h2h2h2h5h2h2h2h2h4h2h2h4h2h4h2h4h2h5h2h4h4h2h4h4h2h4h4h4h2h4h5h4h4h4h4h18 q-16 -154 -66 -219t-145 -65q-72 0 -178 64.5t-135 64.5q-53 0 -70 -117h-2h-2h-2h-2h-2h-2h-2h-2h-2h-2h-2h-2h-2h-4h-2h-2h-2h-2h-5h-2h-2h-4h-2h-4h-2h-4h-2h-4h-2h-4h-2h-4h-5h-2h-4h-4h-4h-4h-2h-4h-4h-4h-4h-5h-4h-20zM430 510h387l-192 555z" />
<glyph unicode="&#xc4;" horiz-adv-x="1247" d="M8 0l467 1280h303l461 -1280h-252l-106 303h-516l-105 -303h-252zM252 1540.5q0 63.5 40 102t103.5 38.5t103.5 -38.5t40 -102.5q0 -66 -40 -105.5t-103.5 -39.5t-103.5 41t-40 104.5zM430 510h387l-192 555zM700 1540q0 63 40 102t103.5 39t103.5 -38.5t40 -102.5 q0 -66 -40 -105.5t-103.5 -39.5t-103.5 39.5t-40 105.5z" />
<glyph unicode="&#xc5;" horiz-adv-x="1247" d="M8 0l447 1227q-100 63 -101 178q0 100 75 166.5t196 66.5q123 0 195.5 -66.5t74.5 -166.5q4 -113 -98 -178l442 -1227h-252l-106 303h-516l-105 -303h-252zM430 510h387l-192 555zM469 1407q0 -59 43 -99t113 -40q72 0 115.5 40t43.5 99t-44 99t-115 40q-70 0 -113 -40 t-43 -99z" />
<glyph unicode="&#xc6;" horiz-adv-x="1771" d="M-16 0l678 1280h1028v-211h-629v-321h522v-211h-522v-326h629v-211h-875v303h-403l-158 -303h-270zM514 514h301v582z" />
<glyph unicode="&#xc7;" horiz-adv-x="1243" d="M86 637q0 305 183.5 489.5t484.5 184.5q233 0 413 -101l-77 -217q-156 102 -336 103q-188 0 -302 -122t-114 -329q0 -213 113.5 -337t306.5 -124q184 0 350 115l47 -229q-147 -90 -373 -101q-18 -16 -41.5 -38.5t-38 -35t-18.5 -16.5q117 -4 186.5 -53t69.5 -133 q0 -205 -371 -250l-14 125q227 14 227 110q0 109 -241 78l-19 97l129 122q-260 29 -412.5 203t-152.5 459z" />
<glyph unicode="&#xc8;" d="M147 0v1280h873v-211h-627v-321h514v-211h-514v-326h627v-211h-873zM207 1761h272l211 -375h-162z" />
<glyph unicode="&#xc9;" d="M147 0v1280h873v-211h-627v-321h514v-211h-514v-326h627v-211h-873zM477 1386l209 375h272l-321 -375h-160z" />
<glyph unicode="&#xca;" d="M147 0v1280h873v-211h-627v-321h514v-211h-514v-326h627v-211h-873zM227 1386l240 383h233l240 -383h-170l-184 242h-4l-183 -242h-172z" />
<glyph unicode="&#xcb;" d="M147 0v1280h873v-211h-627v-321h514v-211h-514v-326h627v-211h-873zM215 1540.5q0 63.5 40 102t103.5 38.5t103.5 -38.5t40 -102.5q0 -66 -40 -105.5t-103.5 -39.5t-103.5 41t-40 104.5zM664 1540q0 63 39.5 102t103 39t103.5 -38.5t40 -102.5q0 -66 -40 -105.5 t-103.5 -39.5t-103 39.5t-39.5 105.5z" />
<glyph unicode="&#xcc;" horiz-adv-x="550" d="M-111 1761h273l211 -375h-162zM152 0v1280h247v-1280h-247z" />
<glyph unicode="&#xcd;" horiz-adv-x="550" d="M152 0v1280h247v-1280h-247zM182 1386l209 375h273l-322 -375h-160z" />
<glyph unicode="&#xce;" horiz-adv-x="550" d="M-78 1386l240 383h233l240 -383h-170l-184 242h-5l-182 -242h-172zM152 0v1280h247v-1280h-247z" />
<glyph unicode="&#xcf;" horiz-adv-x="550" d="M-90 1540.5q0 63.5 40 102t103.5 38.5t103.5 -38.5t40 -102.5q0 -66 -40 -105.5t-103.5 -39.5t-103.5 41t-40 104.5zM152 0v1280h247v-1280h-247zM358 1540q0 63 40 102t103.5 39t103.5 -38.5t40 -102.5q0 -66 -40 -105.5t-103.5 -39.5t-103.5 39.5t-40 105.5z" />
<glyph unicode="&#xd0;" horiz-adv-x="1406" d="M33 547v201h170v532h432q326 0 509 -171t183 -460q0 -301 -185.5 -475t-520.5 -174h-418v547h-170zM453 211h168q209 0 332.5 109.5t123.5 316.5q0 213 -123 322.5t-346 109.5h-155v-321h290v-201h-290v-336z" />
<glyph unicode="&#xd1;" horiz-adv-x="1411" d="M147 0v1280h273l606 -932v932h238v-1292h-267l-612 942v-930h-238zM334 1407q16 156 67.5 221.5t145.5 65.5q72 0 178 -65.5t133 -65.5q55 0 70 116h2h2h2h2h2h2h2h2h2h2h2h2h2h2h5h2h2h2h2h4h2h2h4h2h4h2h4h2h4h2h5h4h2h4h4h2h4h4h4h2h4h4h5h4h4h4h18q-16 -154 -66 -219 t-145 -65q-72 0 -178 64.5t-135 64.5q-53 0 -70 -117h-2h-2h-2h-2h-2h-2h-2h-2h-2h-2h-2h-2h-2h-4h-2h-2h-2h-3h-4h-2h-2h-4h-2h-4h-2h-4h-2h-4h-2h-4h-2h-5h-4h-2h-4h-4h-4h-4h-2h-4h-4h-4h-5h-4h-4h-20z" />
<glyph unicode="&#xd2;" horiz-adv-x="1486" d="M86 637q0 295 187.5 484.5t471.5 189.5q289 0 472.5 -178.5t183.5 -487.5q0 -295 -186.5 -485.5t-471.5 -190.5q-291 0 -474 179.5t-183 488.5zM338 645q0 -211 111.5 -339t298.5 -128q182 0 292.5 127t110.5 332q0 211 -112.5 338t-299.5 127q-182 0 -291.5 -126 t-109.5 -331zM358 1767h273l211 -374h-162z" />
<glyph unicode="&#xd3;" horiz-adv-x="1486" d="M86 637q0 295 187.5 484.5t471.5 189.5q289 0 472.5 -178.5t183.5 -487.5q0 -295 -186.5 -485.5t-471.5 -190.5q-291 0 -474 179.5t-183 488.5zM338 645q0 -211 111.5 -339t298.5 -128q182 0 292.5 127t110.5 332q0 211 -112.5 338t-299.5 127q-182 0 -291.5 -126 t-109.5 -331zM653 1393l209 374h273l-322 -374h-160z" />
<glyph unicode="&#xd4;" horiz-adv-x="1486" d="M86 637q0 295 187.5 484.5t471.5 189.5q289 0 472.5 -178.5t183.5 -487.5q0 -295 -186.5 -485.5t-471.5 -190.5q-291 0 -474 179.5t-183 488.5zM338 645q0 -211 111.5 -339t298.5 -128q182 0 292.5 127t110.5 332q0 211 -112.5 338t-299.5 127q-182 0 -291.5 -126 t-109.5 -331zM391 1386l240 383h233l240 -383h-170l-184 242h-5l-182 -242h-172z" />
<glyph unicode="&#xd5;" horiz-adv-x="1486" d="M86 637q0 295 187.5 484.5t471.5 189.5q289 0 472.5 -178.5t183.5 -487.5q0 -295 -186.5 -485.5t-471.5 -190.5q-291 0 -474 179.5t-183 488.5zM338 645q0 -211 111.5 -339t298.5 -128q182 0 292.5 127t110.5 332q0 211 -112.5 338t-299.5 127q-182 0 -291.5 -126 t-109.5 -331zM373 1407q16 156 67.5 221.5t145.5 65.5q70 0 176 -65.5t135 -65.5q55 0 70 116h2h2h2h2h2h2h2h2h2h2h2h2h2h2h4h2h3h2h2h4h2h2h4h2h4h2h4h2h4h2h4h5h2h4h4h2h4h4h4h2h4h4h4h5h4h4h18q-16 -154 -66.5 -219t-144.5 -65q-72 0 -178 64.5t-135 64.5 q-53 0 -70 -117h-2h-2h-2h-2h-2h-2h-2h-2h-2h-2h-2h-2h-2h-4h-2h-3h-2h-2h-4h-2h-2h-4h-2h-4h-2h-4h-2h-4h-2h-4h-3h-4h-4h-2h-4h-4h-4h-4h-2h-4h-4h-4h-5h-4h-4h-20z" />
<glyph unicode="&#xd6;" horiz-adv-x="1486" d="M86 637q0 295 187.5 484.5t471.5 189.5q289 0 472.5 -178.5t183.5 -487.5q0 -295 -186.5 -485.5t-471.5 -190.5q-291 0 -474 179.5t-183 488.5zM338 645q0 -211 111.5 -339t298.5 -128q182 0 292.5 127t110.5 332q0 211 -112.5 338t-299.5 127q-182 0 -291.5 -126 t-109.5 -331zM379 1540.5q0 63.5 40 102t103.5 38.5t103.5 -38.5t40 -102.5q0 -66 -40 -105.5t-103.5 -39.5t-103.5 41t-40 104.5zM827 1540q0 63 40 102t103.5 39t103.5 -38.5t40 -102.5q0 -66 -40 -105.5t-103.5 -39.5t-103.5 39.5t-40 105.5z" />
<glyph unicode="&#xd7;" horiz-adv-x="1034" d="M76 172l317 311l-317 314l133 131l311 -318l314 318l131 -131l-316 -314l316 -311l-131 -133l-314 315l-311 -315z" />
<glyph unicode="&#xd8;" horiz-adv-x="1486" d="M90 637q0 295 187.5 484.5t472.5 189.5q145 0 282 -56l94 162h140l-125 -217q264 -180 264 -555q0 -295 -186.5 -485.5t-470.5 -190.5q-158 0 -291 58l-92 -164h-140l127 221q-125 84 -193.5 226.5t-68.5 326.5zM342 645q0 -231 133 -358l449 778q-80 37 -181 37 q-182 0 -291.5 -126t-109.5 -331zM567 219q80 -41 185 -41q182 0 291.5 127t109.5 332q0 233 -135 362z" />
<glyph unicode="&#xd9;" horiz-adv-x="1349" d="M141 485v795h250v-762q0 -330 291 -330q279 0 279 320v2v2v2v2v2v2v2v2v2v2v2v2v3v2v2v2v2v2v2v2v2v2v2v2v2v2v2v2v2v2v2v2v2v3v2v2v2v2v2v2v2v2v2v2v2v2v2v2v2v2v2v2v2v2v3v2v2v2v2v2v2v2v2v2v2v2v2v2v2v2v2v2v2v5v2v2v2v2v2v2v2v2v4v2v2v2v2v2v4v2v2v2v3v2v4v2v2v2v2v4 v2v2v2v4v2v2v2v4v2v3v4v2v2v2v4v2v2v4v2v2v4v2v2v4v2v3v4v2v2v4v2v2v4v2v4v2v2v4v2v4v3v2v4v2v4v2v4v2v4v2v2v4v2v4v2v5v2v4v2v4v2v4v2v4v2v4v2v4v3v4v2v4v2v4v4v2v4v2v4v2v4v2v5v4v2v4v2v4v4v2v4v2v4v4v2v5v4v2v4v2v4v4v2v4v4v2v4v5v2v4v4v2v4v4v4v2v4v4v2v4v5v4v2v4v4v2v4 v4v4v2v4v4v5v2v4v4v4v4v2v4v4v4v4v3v4v4v4v4v2v4v4v4v4v4v2v5v4v4v4v4v2v4v4v4v4v4v5v18h247v-772q0 -260 -139 -399.5t-395 -139.5q-250 0 -391.5 134t-141.5 382zM307 1761h273l211 -375h-162z" />
<glyph unicode="&#xda;" horiz-adv-x="1349" d="M141 485v795h250v-762q0 -330 291 -330q279 0 279 320v2v2v2v2v2v2v2v2v2v2v2v2v3v2v2v2v2v2v2v2v2v2v2v2v2v2v2v2v2v2v2v2v2v3v2v2v2v2v2v2v2v2v2v2v2v2v2v2v2v2v2v2v2v2v3v2v2v2v2v2v2v2v2v2v2v2v2v2v2v2v2v2v2v5v2v2v2v2v2v2v2v2v4v2v2v2v2v2v4v2v2v2v3v2v4v2v2v2v2v4 v2v2v2v4v2v2v2v4v2v3v4v2v2v2v4v2v2v4v2v2v4v2v2v4v2v3v4v2v2v4v2v2v4v2v4v2v2v4v2v4v3v2v4v2v4v2v4v2v4v2v2v4v2v4v2v5v2v4v2v4v2v4v2v4v2v4v2v4v3v4v2v4v2v4v4v2v4v2v4v2v4v2v5v4v2v4v2v4v4v2v4v2v4v4v2v5v4v2v4v2v4v4v2v4v4v2v4v5v2v4v4v2v4v4v4v2v4v4v2v4v5v4v2v4v4v2v4 v4v4v2v4v4v5v2v4v4v4v4v2v4v4v4v4v3v4v4v4v4v2v4v4v4v4v4v2v5v4v4v4v4v2v4v4v4v4v4v5v18h247v-772q0 -260 -139 -399.5t-395 -139.5q-250 0 -391.5 134t-141.5 382zM565 1386l209 375h273l-322 -375h-160z" />
<glyph unicode="&#xdb;" horiz-adv-x="1349" d="M141 485v795h250v-762q0 -330 291 -330q279 0 279 320v2v2v2v2v2v2v2v2v2v2v2v2v3v2v2v2v2v2v2v2v2v2v2v2v2v2v2v2v2v2v2v2v2v3v2v2v2v2v2v2v2v2v2v2v2v2v2v2v2v2v2v2v2v2v3v2v2v2v2v2v2v2v2v2v2v2v2v2v2v2v2v2v2v5v2v2v2v2v2v2v2v2v4v2v2v2v2v2v4v2v2v2v3v2v4v2v2v2v2v4 v2v2v2v4v2v2v2v4v2v3v4v2v2v2v4v2v2v4v2v2v4v2v2v4v2v3v4v2v2v4v2v2v4v2v4v2v2v4v2v4v3v2v4v2v4v2v4v2v4v2v2v4v2v4v2v5v2v4v2v4v2v4v2v4v2v4v2v4v3v4v2v4v2v4v4v2v4v2v4v2v4v2v5v4v2v4v2v4v4v2v4v2v4v4v2v5v4v2v4v2v4v4v2v4v4v2v4v5v2v4v4v2v4v4v4v2v4v4v2v4v5v4v2v4v4v2v4 v4v4v2v4v4v5v2v4v4v4v4v2v4v4v4v4v3v4v4v4v4v2v4v4v4v4v4v2v5v4v4v4v4v2v4v4v4v4v4v5v18h247v-772q0 -260 -139 -399.5t-395 -139.5q-250 0 -391.5 134t-141.5 382zM322 1386l239 383h234l239 -383h-170l-184 242h-4l-182 -242h-172z" />
<glyph unicode="&#xdc;" horiz-adv-x="1349" d="M141 485v795h250v-762q0 -330 291 -330q279 0 279 320v2v2v2v2v2v2v2v2v2v2v2v2v3v2v2v2v2v2v2v2v2v2v2v2v2v2v2v2v2v2v2v2v2v3v2v2v2v2v2v2v2v2v2v2v2v2v2v2v2v2v2v2v2v2v3v2v2v2v2v2v2v2v2v2v2v2v2v2v2v2v2v2v2v5v2v2v2v2v2v2v2v2v4v2v2v2v2v2v4v2v2v2v3v2v4v2v2v2v2v4 v2v2v2v4v2v2v2v4v2v3v4v2v2v2v4v2v2v4v2v2v4v2v2v4v2v3v4v2v2v4v2v2v4v2v4v2v2v4v2v4v3v2v4v2v4v2v4v2v4v2v2v4v2v4v2v5v2v4v2v4v2v4v2v4v2v4v2v4v3v4v2v4v2v4v4v2v4v2v4v2v4v2v5v4v2v4v2v4v4v2v4v2v4v4v2v5v4v2v4v2v4v4v2v4v4v2v4v5v2v4v4v2v4v4v4v2v4v4v2v4v5v4v2v4v4v2v4 v4v4v2v4v4v5v2v4v4v4v4v2v4v4v4v4v3v4v4v4v4v2v4v4v4v4v4v2v5v4v4v4v4v2v4v4v4v4v4v5v18h247v-772q0 -260 -139 -399.5t-395 -139.5q-250 0 -391.5 134t-141.5 382zM309 1540.5q0 63.5 40 102t103.5 38.5t103.5 -38.5t40 -102.5q0 -66 -40 -105.5t-103.5 -39.5t-103.5 41 t-40 104.5zM758 1540q0 63 40 102t103.5 39t103 -38.5t39.5 -102.5q0 -66 -39.5 -105.5t-103 -39.5t-103.5 39.5t-40 105.5z" />
<glyph unicode="&#xdd;" horiz-adv-x="1179" d="M20 1280h271l303 -553l297 553h268l-444 -784v-496h-248v498zM496 1386l209 375h272l-322 -375h-159z" />
<glyph unicode="&#xde;" horiz-adv-x="1150" d="M147 0v1280h250v-195h164q258 0 393.5 -116.5t135.5 -311.5q0 -219 -143.5 -334.5t-403.5 -117.5l-146 -2v-203h-250zM393 412l158 2q141 2 215 63.5t74 171.5q0 227 -295 228h-152v-465z" />
<glyph unicode="&#xdf;" horiz-adv-x="1255" d="M8 750l10 153l152 45l2 92q4 201 124 293t308 92q184 0 295 -92t111 -243q0 -59 -28 -111.5t-61.5 -81.5t-61.5 -61.5t-28 -59.5q0 -43 39 -80t94.5 -67.5t110.5 -68.5t94 -104.5t39 -154.5q0 -154 -98 -244t-272 -90q-162 0 -312 80l43 199q131 -84 238 -84 q152 0 151 123q0 55 -35.5 96t-88 69.5t-103.5 59.5t-87 84t-36 127q0 55 24.5 104t53.5 79t53.5 74t24.5 91q0 72 -47 120t-119 48q-88 0 -137 -50t-49 -145v-1042h-240v737z" />
<glyph unicode="&#xe0;" horiz-adv-x="985" d="M66 236q0 317 559 335v23q0 96 -44 138t-145 42q-137 0 -313 -100l-49 190q178 111 395 111q215 0 308 -95.5t89 -293.5v-338q0 -53 14.5 -67.5t69.5 -18.5l-18 -182q-242 -27 -299 129h-8q-115 -139 -267 -140q-127 0 -209.5 77t-82.5 190zM80 1446h272l211 -375h-162z M303 268q0 -55 39 -89t102 -34q104 0 181 82v217q-176 -23 -249 -61.5t-73 -114.5z" />
<glyph unicode="&#xe1;" horiz-adv-x="985" d="M66 236q0 317 559 335v23q0 96 -44 138t-145 42q-137 0 -313 -100l-49 190q178 111 395 111q215 0 308 -95.5t89 -293.5v-338q0 -53 14.5 -67.5t69.5 -18.5l-18 -182q-242 -27 -299 129h-8q-115 -139 -267 -140q-127 0 -209.5 77t-82.5 190zM303 268q0 -55 39 -89 t102 -34q104 0 181 82v217q-176 -23 -249 -61.5t-73 -114.5zM352 1071l209 375h273l-322 -375h-160z" />
<glyph unicode="&#xe2;" horiz-adv-x="985" d="M66 236q0 317 559 335v23q0 96 -44 138t-145 42q-137 0 -313 -100l-49 190q178 111 395 111q215 0 308 -95.5t89 -293.5v-338q0 -53 14.5 -67.5t69.5 -18.5l-18 -182q-242 -27 -299 129h-8q-115 -139 -267 -140q-127 0 -209.5 77t-82.5 190zM111 1071l239 383h234 l239 -383h-170l-184 242h-4l-182 -242h-172zM303 268q0 -55 39 -89t102 -34q104 0 181 82v217q-176 -23 -249 -61.5t-73 -114.5z" />
<glyph unicode="&#xe3;" horiz-adv-x="985" d="M66 236q0 317 559 335v23q0 96 -44 138t-145 42q-137 0 -313 -100l-49 190q178 111 395 111q215 0 308 -95.5t89 -293.5v-338q0 -53 14.5 -67.5t69.5 -18.5l-18 -182q-242 -27 -299 129h-8q-115 -139 -267 -140q-127 0 -209.5 77t-82.5 190zM98 1092q16 156 67.5 221 t145.5 65q70 0 176.5 -65.5t135.5 -65.5q55 0 69 117h2h2h2h2h2h3h2h2h2h2h2h2h2h2h4h2h2h2h2h4h2h2h4h3h4h2h4h2h4h2h4h4h2h4h4h2h5h4h4h2h4h4h4h4h4h4h19q-16 -154 -66.5 -219.5t-144.5 -65.5q-72 0 -178.5 64.5t-135.5 64.5q-53 0 -69 -116h-2h-2h-2h-2h-2h-2h-2h-3h-2 h-2h-2h-2h-2h-4h-2h-2h-2h-2h-4h-2h-2h-4h-2h-4h-3h-4h-2h-4h-2h-4h-2h-4h-4h-2h-4h-4h-4h-5h-2h-4h-4h-4h-4h-4h-4h-21zM303 268q0 -55 39 -89t102 -34q104 0 181 82v217q-176 -23 -249 -61.5t-73 -114.5z" />
<glyph unicode="&#xe4;" horiz-adv-x="985" d="M66 236q0 317 559 335v23q0 96 -44 138t-145 42q-137 0 -313 -100l-49 190q178 111 395 111q215 0 308 -95.5t89 -293.5v-338q0 -53 14.5 -67.5t69.5 -18.5l-18 -182q-242 -27 -299 129h-8q-115 -139 -267 -140q-127 0 -209.5 77t-82.5 190zM104 1218.5q0 63.5 40 102.5 t103.5 39t103.5 -39t40 -102q0 -66 -40 -106t-103.5 -40t-103.5 41t-40 104.5zM303 268q0 -55 39 -89t102 -34q104 0 181 82v217q-176 -23 -249 -61.5t-73 -114.5zM553 1219q0 63 40 102t103.5 39t103.5 -39t40 -102q0 -66 -40 -106t-103.5 -40t-103.5 40t-40 106z" />
<glyph unicode="&#xe5;" horiz-adv-x="985" d="M66 236q0 317 559 335v23q0 96 -44 138t-145 42q-137 0 -313 -100l-49 190q178 111 395 111q215 0 308 -95.5t89 -293.5v-338q0 -53 14.5 -67.5t69.5 -18.5l-18 -182q-242 -27 -299 129h-8q-115 -139 -267 -140q-127 0 -209.5 77t-82.5 190zM188 1300q0 100 75 168 t198 68t196.5 -67.5t75.5 -168.5q0 -98 -74.5 -164.5t-197.5 -66.5t-198 66.5t-75 164.5zM303 268q0 -55 39 -89t102 -34q104 0 181 82v217q-176 -23 -249 -61.5t-73 -114.5zM305 1302.5q0 -59.5 43 -99.5t113 -40q72 0 114.5 40t42.5 99.5t-43 99.5t-114 40q-70 0 -113 -40 t-43 -99.5z" />
<glyph unicode="&#xe6;" horiz-adv-x="1576" d="M66 236q0 319 575 335v19q0 100 -50 142t-155 42q-137 0 -313 -100l-49 190q178 111 397 111q238 0 328 -129q123 129 321 129q182 0 281.5 -104.5t99.5 -278.5q0 -90 -20 -158l-617 -8v-6q6 -117 81 -187.5t200 -70.5q160 0 295 86l30 -201q-143 -78 -342 -78 q-274 0 -411 195q-143 -195 -359 -195q-127 0 -209.5 77t-82.5 190zM303 268q0 -55 40 -89t108 -34q57 0 118.5 32t100.5 81q-23 63 -29 186q-180 -14 -259 -57t-79 -119zM868 567l406 2v17q0 207 -178 207q-94 0 -156 -66t-72 -160z" />
<glyph unicode="&#xe7;" horiz-adv-x="964" d="M74 469q0 229 137 367.5t360 138.5q190 0 326 -80l-51 -195q-121 76 -256 76q-129 0 -198.5 -81t-69.5 -220q0 -143 73.5 -224t194.5 -81q147 0 262 74l39 -197q-109 -63 -270 -76q-78 -74 -101 -92q117 -4 186.5 -53t69.5 -133q0 -205 -370 -250l-15 125q227 14 227 110 q0 109 -241 78l-19 97l127 120q-195 23 -303 154t-108 342z" />
<glyph unicode="&#xe8;" horiz-adv-x="1021" d="M74 463q0 229 137 370.5t350 141.5q184 0 286.5 -103.5t102.5 -279.5q0 -90 -20 -158l-619 -8v-6q8 -117 83 -187.5t200 -70.5q156 0 295 86l31 -201q-143 -78 -342 -78q-227 0 -365.5 134.5t-138.5 359.5zM154 1446h272l211 -375h-162zM317 567l406 2v17q0 207 -180 207 q-94 0 -155 -66t-71 -160z" />
<glyph unicode="&#xe9;" horiz-adv-x="1021" d="M74 463q0 229 137 370.5t350 141.5q184 0 286.5 -103.5t102.5 -279.5q0 -90 -20 -158l-619 -8v-6q8 -117 83 -187.5t200 -70.5q156 0 295 86l31 -201q-143 -78 -342 -78q-227 0 -365.5 134.5t-138.5 359.5zM317 567l406 2v17q0 207 -180 207q-94 0 -155 -66t-71 -160z M428 1071l209 375h272l-321 -375h-160z" />
<glyph unicode="&#xea;" horiz-adv-x="1021" d="M74 463q0 229 137 370.5t350 141.5q184 0 286.5 -103.5t102.5 -279.5q0 -90 -20 -158l-619 -8v-6q8 -117 83 -187.5t200 -70.5q156 0 295 86l31 -201q-143 -78 -342 -78q-227 0 -365.5 134.5t-138.5 359.5zM152 1071l239 383h234l239 -383h-170l-184 242h-4l-182 -242 h-172zM317 567l406 2v17q0 207 -180 207q-94 0 -155 -66t-71 -160z" />
<glyph unicode="&#xeb;" horiz-adv-x="1021" d="M74 463q0 229 137 370.5t350 141.5q184 0 286.5 -103.5t102.5 -279.5q0 -90 -20 -158l-619 -8v-6q8 -117 83 -187.5t200 -70.5q156 0 295 86l31 -201q-143 -78 -342 -78q-227 0 -365.5 134.5t-138.5 359.5zM152 1218.5q0 63.5 39.5 102.5t103 39t103.5 -39t40 -102 q0 -66 -40 -106t-103.5 -40t-103 41t-39.5 104.5zM317 567l406 2v17q0 207 -180 207q-94 0 -155 -66t-71 -160zM600 1219q0 63 40 102t103.5 39t103.5 -39t40 -102q0 -66 -40 -106t-103.5 -40t-103.5 40t-40 106z" />
<glyph unicode="&#xec;" horiz-adv-x="499" d="M-125 1446h272l211 -375h-161zM135 0v934l242 27v-961h-242z" />
<glyph unicode="&#xed;" horiz-adv-x="499" d="M135 0v934l242 27v-961h-242zM154 1071l208 375h273l-322 -375h-159z" />
<glyph unicode="&#xee;" horiz-adv-x="499" d="M-98 1071l239 383h234l239 -383h-170l-184 242h-4l-182 -242h-172zM135 0v934l242 27v-961h-242z" />
<glyph unicode="&#xef;" horiz-adv-x="499" d="M-111 1218.5q0 63.5 40 102.5t103.5 39t103.5 -39t40 -102q0 -66 -40 -106t-103.5 -40t-103.5 41t-40 104.5zM135 0v934l242 27v-961h-242zM338 1219q0 63 40 102t103.5 39t103.5 -39t40 -102q0 -66 -40 -106t-103.5 -40t-103.5 40t-40 106z" />
<glyph unicode="&#xf0;" horiz-adv-x="1134" d="M76 438q0 217 128 343t283.5 126t262.5 -112l4 2q-59 131 -248 319l-230 -61l-36 141l147 39q-102 90 -158 133l271 55q78 -61 137 -120l231 61l35 -139l-151 -39q307 -342 307 -666q0 -240 -132 -395.5t-366 -155.5q-215 0 -350 131t-135 338zM326 453q0 -133 68.5 -208 t176.5 -75q106 0 174 79t68 216q0 84 -33 174q-27 37 -89 60.5t-138 23.5q-96 0 -161.5 -73.5t-65.5 -196.5z" />
<glyph unicode="&#xf1;" horiz-adv-x="1107" d="M129 0v940l242 33v-150q137 152 311 152q143 0 223 -87t80 -239v-649h-242v575q0 102 -39.5 144.5t-123.5 42.5q-117 0 -209 -88v-674h-242zM184 1092q16 156 67.5 221t145.5 65q70 0 176.5 -65.5t135.5 -65.5q55 0 69 117h2h2h2h2h2h3h2h2h2h2h2h2h2h2h4h2h2h2h2h4h2h2 h4h3h4h2h4h2h4h2h4h4h2h4h4h2h5h4h4h2h4h4h4h4h4h4h19q-16 -154 -66.5 -219.5t-144.5 -65.5q-72 0 -178.5 64.5t-134.5 64.5q-53 0 -70 -116h-2h-2h-2h-2h-2h-2h-2h-3h-2h-2h-2h-2h-2h-4h-2h-2h-2h-2h-4h-2h-2h-4h-2h-4h-3h-4h-2h-4h-2h-4h-2h-4h-4h-2h-4h-4h-4h-5h-2h-4h-4 h-4h-4h-4h-4h-21z" />
<glyph unicode="&#xf2;" d="M74 471q0 229 138 367.5t351 138.5q211 0 344 -136t133 -368q0 -227 -139 -365.5t-350 -138.5t-344 135.5t-133 366.5zM211 1446h272l211 -375h-162zM311 473q0 -137 65.5 -222t182.5 -85q115 0 178.5 83t63.5 222t-65.5 225t-180.5 86q-117 0 -180.5 -85t-63.5 -224z " />
<glyph unicode="&#xf3;" d="M74 471q0 229 138 367.5t351 138.5q211 0 344 -136t133 -368q0 -227 -139 -365.5t-350 -138.5t-344 135.5t-133 366.5zM311 473q0 -137 65.5 -222t182.5 -85q115 0 178.5 83t63.5 222t-65.5 225t-180.5 86q-117 0 -180.5 -85t-63.5 -224zM434 1071l209 375h272l-321 -375 h-160z" />
<glyph unicode="&#xf4;" d="M74 471q0 229 138 367.5t351 138.5q211 0 344 -136t133 -368q0 -227 -139 -365.5t-350 -138.5t-344 135.5t-133 366.5zM207 1071l239 383h234l240 -383h-170l-185 242h-4l-182 -242h-172zM311 473q0 -137 65.5 -222t182.5 -85q115 0 178.5 83t63.5 222t-65.5 225 t-180.5 86q-117 0 -180.5 -85t-63.5 -224z" />
<glyph unicode="&#xf5;" d="M74 471q0 229 138 367.5t351 138.5q211 0 344 -136t133 -368q0 -227 -139 -365.5t-350 -138.5t-344 135.5t-133 366.5zM190 1092q16 156 67.5 221t145.5 65q72 0 178.5 -65.5t133.5 -65.5q55 0 69 117h2h2h3h2h2h2h2h2h2h2h2h2h2h2h4h2h2h2h2h4h2h3h4h2h4h2h4h2h4h2h4h4 h2h4h5h2h4h4h4h2h4h4h4h4h4h5h18q-16 -154 -66.5 -219.5t-144.5 -65.5q-72 0 -178.5 64.5t-134.5 64.5q-53 0 -70 -116h-2h-2h-2h-2h-2h-2h-2h-2h-2h-2h-3h-2h-2h-4h-2h-2h-2h-2h-4h-2h-2h-4h-2h-4h-2h-4h-3h-4h-2h-4h-2h-4h-4h-2h-4h-4h-4h-4h-2h-5h-4h-4h-4h-4h-4h-21z M311 473q0 -137 65.5 -222t182.5 -85q115 0 178.5 83t63.5 222t-65.5 225t-180.5 86q-117 0 -180.5 -85t-63.5 -224z" />
<glyph unicode="&#xf6;" d="M74 471q0 229 138 367.5t351 138.5q211 0 344 -136t133 -368q0 -227 -139 -365.5t-350 -138.5t-344 135.5t-133 366.5zM195 1218.5q0 63.5 39.5 102.5t103 39t103.5 -39t40 -102q0 -66 -40 -106t-103.5 -40t-103 41t-39.5 104.5zM311 473q0 -137 65.5 -222t182.5 -85 q115 0 178.5 83t63.5 222t-65.5 225t-180.5 86q-117 0 -180.5 -85t-63.5 -224zM643 1219q0 63 40 102t103.5 39t103.5 -39t40 -102q0 -66 -40 -106t-103.5 -40t-103.5 40t-40 106z" />
<glyph unicode="&#xf7;" horiz-adv-x="1034" d="M76 389l6 193h872l7 -193h-885zM369 139q0 63 43 104.5t110 41.5q66 0 108 -41t42 -105q0 -61 -42 -104t-108 -43q-68 0 -110.5 43t-42.5 104zM369 829q0 63 42 106.5t107 43.5q68 0 111 -43t43 -107q0 -61 -43 -103t-111 -42q-66 0 -107.5 42t-41.5 103z" />
<glyph unicode="&#xf8;" d="M80 473q0 227 138 365.5t351 138.5q111 0 197 -37l80 137h143l-117 -198q174 -141 175 -406q0 -227 -137.5 -365.5t-350.5 -138.5q-104 0 -192 35l-84 -141h-142q8 12 20.5 33.5t38 65.5t42.5 75l16 29q-178 139 -178 407zM315 477q0 -133 58 -223l299 516 q-51 27 -111 27q-117 0 -181.5 -87.5t-64.5 -232.5zM463 174q55 -20 106 -20q117 0 180.5 86t63.5 231q0 127 -55 219z" />
<glyph unicode="&#xf9;" horiz-adv-x="1099" d="M121 295v649h241v-575q0 -100 40 -142.5t120 -42.5q121 0 207 82v678h242v-938l-242 -33v140q-133 -143 -311 -144q-139 0 -218 87t-79 239zM176 1446h273l210 -375h-161z" />
<glyph unicode="&#xfa;" horiz-adv-x="1099" d="M121 295v649h241v-575q0 -100 40 -142.5t120 -42.5q121 0 207 82v678h242v-938l-242 -33v140q-133 -143 -311 -144q-139 0 -218 87t-79 239zM449 1071l208 375h273l-322 -375h-159z" />
<glyph unicode="&#xfb;" horiz-adv-x="1099" d="M121 295v649h241v-575q0 -100 40 -142.5t120 -42.5q121 0 207 82v678h242v-938l-242 -33v140q-133 -143 -311 -144q-139 0 -218 87t-79 239zM197 1071l239 383h234l239 -383h-170l-184 242h-4l-182 -242h-172z" />
<glyph unicode="&#xfc;" horiz-adv-x="1099" d="M121 295v649h241v-575q0 -100 40 -142.5t120 -42.5q121 0 207 82v678h242v-938l-242 -33v140q-133 -143 -311 -144q-139 0 -218 87t-79 239zM180 1218.5q0 63.5 40 102.5t103.5 39t103.5 -39t40 -102q0 -66 -40 -106t-103.5 -40t-103.5 41t-40 104.5zM629 1219 q0 63 40 102t103.5 39t103 -39t39.5 -102q0 -66 -39.5 -106t-103 -40t-103.5 40t-40 106z" />
<glyph unicode="&#xfd;" horiz-adv-x="970" d="M-55 -410l71 199q94 -45 150 -45q53 0 87 33t71 127l41 108l-369 932h260l236 -676l225 676h258l-361 -926l-55 -147q-70 -188 -155 -262t-220 -74q-118 0 -239 55zM387 1071l209 375h272l-321 -375h-160z" />
<glyph unicode="&#xfe;" horiz-adv-x="1116" d="M129 -469v1837l242 33v-541q131 115 258 115q190 0 305 -137.5t115 -356.5q0 -223 -137.5 -366.5t-340.5 -143.5q-115 0 -200 27v-467h-242zM371 217q70 -53 178 -53q119 0 186.5 86t67.5 221q0 139 -63.5 220t-174.5 81q-106 0 -194 -78v-2v-2v-2v-2v-2v-2v-2v-2v-2v-2 v-2v-2v-2v-2v-2v-2v-3v-2v-2v-2v-2v-2v-2v-2v-2v-2v-2v-2v-2v-2v-2v-2v-2v-2v-2v-2v-3v-2v-2v-2v-2v-2v-2v-2v-2v-2v-2v-2v-4v-2v-2v-2v-2v-2v-2v-5v-2v-2v-2v-2v-4v-2v-2v-2v-4v-2v-2v-2v-4v-2v-2v-4v-3v-2v-4v-2v-2v-4v-2v-2v-4v-2v-2v-4v-2v-4v-2v-2v-5v-2v-4v-2v-4v-2 v-4v-2v-2v-4v-2v-4v-2v-4v-3v-4v-4v-2v-4v-2v-4v-2v-4v-2v-4v-4v-2v-5v-2v-4v-4v-2v-4v-2v-4v-4v-2v-4v-4v-2v-5v-4v-2v-4v-4v-2v-4v-4v-4v-2v-4v-4v-3v-4v-4v-4v-2v-4v-4v-4v-4v-2v-4v-4v-5v-4v-2v-4v-4v-4v-4v-2v-4v-4v-4v-5v-16z" />
<glyph unicode="&#xff;" horiz-adv-x="970" d="M-55 -410l71 199q94 -45 150 -45q53 0 87 33t71 127l41 108l-369 932h260l236 -676l225 676h258l-361 -926l-55 -147q-70 -188 -155 -262t-220 -74q-118 0 -239 55zM119 1224.5q0 63.5 40 102.5t103.5 39t103.5 -39t40 -102q0 -66 -40 -106t-103.5 -40t-103.5 41 t-40 104.5zM567 1225q0 63 40 102t103.5 39t103.5 -39t40 -102q0 -66 -40 -106t-103.5 -40t-103.5 40t-40 106z" />
<glyph unicode="&#x152;" horiz-adv-x="1925" d="M90 631q0 301 182.5 475t518.5 174h1052v-211h-624v-321h518v-211h-518v-326h624v-211h-1061q-324 0 -508 171t-184 460zM342 643q0 -215 115.5 -323.5t339.5 -108.5h172v858h-185q-207 0 -324.5 -108.5t-117.5 -317.5z" />
<glyph unicode="&#x153;" horiz-adv-x="1734" d="M74 471q0 229 138 367.5t351 138.5q229 0 352 -170q133 168 359 168q184 0 286.5 -103.5t102.5 -279.5q0 -90 -21 -158l-618 -8v-6q6 -117 82 -187.5t199 -70.5q160 0 294 86l31 -201q-143 -78 -342 -78q-242 0 -379 170q-129 -170 -358 -170q-211 0 -344 135.5 t-133 366.5zM311 473q0 -137 65.5 -222t182.5 -85q115 0 178.5 83t63.5 222t-65.5 225t-180.5 86q-117 0 -180.5 -85t-63.5 -224zM1030 567l404 2q2 4 2 17q0 207 -181 207q-94 0 -154.5 -66t-70.5 -160z" />
<glyph unicode="&#x178;" horiz-adv-x="1179" d="M20 1280h271l303 -553l297 553h268l-444 -784v-496h-248v498zM223 1540.5q0 63.5 40 102t103.5 38.5t103.5 -38.5t40 -102.5q0 -66 -40 -105.5t-103.5 -39.5t-103.5 41t-40 104.5zM672 1540q0 63 40 102t103.5 39t103 -38.5t39.5 -102.5q0 -66 -39.5 -105.5t-103 -39.5 t-103.5 39.5t-40 105.5z" />
<glyph unicode="&#x2c6;" horiz-adv-x="811" d="M53 1071l240 383h233l240 -383h-170l-184 242h-4l-183 -242h-172z" />
<glyph unicode="&#x2dc;" horiz-adv-x="808" d="M35 1092q16 156 67.5 221t145.5 65q72 0 178 -65.5t133 -65.5q55 0 70 117h2h2h2h2h2h2h2h2h2h2h2h2h2h2h5h2h2h2h2h4h2h2h4h2h4h2h4h2h4h2h5h4h2h4h4h2h4h4h4h2h4h4h5h4h4h4h18q-16 -154 -66 -219.5t-145 -65.5q-72 0 -178 64.5t-135 64.5q-53 0 -70 -116h-2h-2h-2h-2 h-2h-2h-2h-2h-2h-2h-2h-2h-2h-4h-2h-2h-2h-3h-4h-2h-2h-4h-2h-4h-2h-4h-2h-4h-2h-4h-2h-5h-4h-2h-4h-4h-4h-4h-2h-4h-4h-4h-5h-4h-4h-20z" />
<glyph unicode="&#x2000;" horiz-adv-x="884" />
<glyph unicode="&#x2001;" horiz-adv-x="1769" />
<glyph unicode="&#x2002;" horiz-adv-x="884" />
<glyph unicode="&#x2003;" horiz-adv-x="1769" />
<glyph unicode="&#x2004;" horiz-adv-x="589" />
<glyph unicode="&#x2005;" horiz-adv-x="442" />
<glyph unicode="&#x2006;" horiz-adv-x="294" />
<glyph unicode="&#x2007;" horiz-adv-x="294" />
<glyph unicode="&#x2008;" horiz-adv-x="221" />
<glyph unicode="&#x2009;" horiz-adv-x="352" />
<glyph unicode="&#x200a;" horiz-adv-x="98" />
<glyph unicode="&#x2010;" horiz-adv-x="698" d="M61 393v207h578v-207h-578z" />
<glyph unicode="&#x2011;" horiz-adv-x="698" d="M61 393v207h578v-207h-578z" />
<glyph unicode="&#x2012;" horiz-adv-x="698" d="M61 393v207h578v-207h-578z" />
<glyph unicode="&#x2013;" horiz-adv-x="1009" d="M57 397l6 183h889l6 -183h-901z" />
<glyph unicode="&#x2014;" horiz-adv-x="1972" d="M57 397l6 183h1852l6 -183h-1864z" />
<glyph unicode="&#x2018;" horiz-adv-x="503" d="M47 944q0 217 326 410l104 -97q-205 -145 -205 -237q0 -41 36 -73t128 -73q-8 -68 -56 -110.5t-122 -42.5q-86 0 -148.5 65.5t-62.5 157.5z" />
<glyph unicode="&#x2019;" horiz-adv-x="503" d="M25 831q207 145 206 238q0 41 -35.5 73t-129.5 72q8 68 57 111t123 43q86 0 147.5 -65.5t61.5 -157.5q0 -215 -324 -410z" />
<glyph unicode="&#x201a;" horiz-adv-x="503" d="M25 -225q207 145 206 237q0 41 -35.5 73t-129.5 73q8 68 57 110.5t123 42.5q86 0 147.5 -65.5t61.5 -157.5q0 -215 -324 -410z" />
<glyph unicode="&#x201c;" horiz-adv-x="997" d="M47 944q0 217 326 410l104 -97q-205 -145 -205 -237q0 -41 36 -73t128 -73q-8 -68 -56 -110.5t-122 -42.5q-86 0 -148.5 65.5t-62.5 157.5zM541 944q0 217 325 410l105 -97q-205 -145 -205 -237q0 -41 36 -73t128 -73q-8 -68 -56.5 -110.5t-121.5 -42.5 q-86 0 -148.5 65.5t-62.5 157.5z" />
<glyph unicode="&#x201d;" horiz-adv-x="997" d="M25 831q207 145 206 238q0 41 -35.5 73t-129.5 72q8 68 57 111t123 43q86 0 147.5 -65.5t61.5 -157.5q0 -215 -324 -410zM518 831q207 145 207 238q0 41 -36 73t-130 72q8 68 57.5 111t122.5 43q86 0 147.5 -65.5t61.5 -157.5q0 -215 -323 -410z" />
<glyph unicode="&#x201e;" horiz-adv-x="976" d="M25 -225q207 145 206 237q0 41 -35.5 73t-129.5 73q8 68 57 110.5t123 42.5q86 0 147.5 -65.5t61.5 -157.5q0 -215 -324 -410zM518 -225q207 145 207 237q0 41 -36 73t-130 73q8 68 57.5 110.5t122.5 42.5q86 0 147.5 -65.5t61.5 -157.5q0 -215 -323 -410z" />
<glyph unicode="&#x2022;" horiz-adv-x="909" d="M59 475q0 45 43 146.5t74 132t133.5 72.5t145.5 42q45 0 146 -42t132 -72.5t73 -132t42 -146.5t-41 -146.5t-74 -133.5q-31 -31 -133 -73t-147 -42q-43 0 -145.5 42t-131.5 73q-31 33 -74 135t-43 145z" />
<glyph unicode="&#x2026;" horiz-adv-x="1531" d="M98 127q0 66 45 110t115 44q66 0 111 -44t45 -110q0 -68 -45 -113t-111 -45q-70 0 -115 45t-45 113zM610 127q0 66 46 110t114 44t113 -44t45 -110q0 -68 -45 -113t-113 -45t-114 45t-46 113zM1122 127q0 66 46 110t114 44q70 0 115 -44t45 -110q0 -68 -45 -113t-115 -45 q-68 0 -114 45t-46 113z" />
<glyph unicode="&#x202f;" horiz-adv-x="352" />
<glyph unicode="&#x2039;" horiz-adv-x="722" d="M57 367v223l551 330l35 -162l-375 -277v-4l375 -278l-35 -162z" />
<glyph unicode="&#x203a;" horiz-adv-x="722" d="M78 199l375 278v4l-375 277l37 162l551 -330v-223l-551 -330z" />
<glyph unicode="&#x205f;" horiz-adv-x="442" />
<glyph unicode="&#x20ac;" horiz-adv-x="1077" d="M57 416l6 127h148q-2 29 -2 92q0 72 2 106h-2h-2h-2h-2h-2h-2h-2h-2h-2h-3h-2h-2h-2h-2h-4h-2h-2h-2h-2h-4h-2h-2h-2h-4h-2h-4h-3h-2h-4h-2h-4h-2h-4h-2h-4h-2h-4h-4h-2h-5h-4h-2h-4h-4h-2h-4h-4h-19l-6 127h170q45 229 174 339t318 110q205 0 334 -78l-49 -192 q-121 72 -267 71q-207 0 -264 -250h436l-6 -127h-448q-2 -27 -2 -92q0 -57 6 -106h383l6 -127h-367q61 -248 260 -248q152 0 269 72l37 -195q-129 -76 -334 -76q-414 0 -490 447h-166z" />
<glyph unicode="&#x2122;" horiz-adv-x="1978" d="M82 1128v154h733v-154h-295v-612h-168v612h-270zM911 516l13 766h293l131 -561h24l158 561h278l9 -766h-166l6 596h-25l-190 -573h-185l-163 573h-23l-8 -596h-152z" />
<glyph unicode="&#xe000;" horiz-adv-x="945" d="M0 945h945v-945h-945v945z" />
<glyph unicode="&#xfb01;" horiz-adv-x="1175" d="M8 750l8 153l154 45l2 101q4 197 91 286.5t251 89.5q96 0 205 -41q0 -2 -11.5 -54t-23.5 -104t-12 -50q-82 35 -140 34q-66 0 -95 -40t-29 -128v-104h274l-6 -199h-262v-739h-242v737zM784 1247q0 68 38 107t110 39t110.5 -39t38.5 -107q0 -66 -38.5 -104.5t-110.5 -38.5 t-110 38.5t-38 104.5zM811 0v938l242 35v-973h-242z" />
<glyph unicode="&#xfb02;" horiz-adv-x="1202" d="M8 750l8 153l154 45l2 101q8 377 342 376q115 0 223 -47l-4 -22q-6 -20 -13 -51t-15.5 -62t-12.5 -51l-6 -21q-86 39 -154 39q-66 0 -95 -40t-29 -128v-104h280l-6 -199h-268v-739h-242v737zM831 0v1368l242 33v-1401h-242z" />
<glyph unicode="&#xfb03;" horiz-adv-x="1863" d="M8 750l8 153l154 45l2 80q8 377 342 377q115 0 223 -47l-4 -23q-6 -20 -13 -51t-15.5 -61.5t-12.5 -51.5l-6 -20q-86 39 -154 39q-66 0 -95 -40t-29 -128v-84h452l2 111q4 197 90 286.5t250 89.5q96 0 205 -41q0 -2 -5 -23.5t-11.5 -52t-13.5 -61t-13 -51.5l-4 -20 q-82 35 -139 34q-66 0 -95.5 -40t-29.5 -128v-104h274l-6 -199h-260v-739h-242v739h-448v-739h-242v737zM1473 1247q0 68 38.5 107t108.5 39q72 0 110.5 -39t38.5 -107q0 -66 -38.5 -104.5t-110.5 -38.5q-70 0 -108.5 38.5t-38.5 104.5zM1499 0v938l242 35v-973h-242z" />
<glyph unicode="&#xfb04;" horiz-adv-x="1890" d="M8 750l8 153l154 45l2 80q8 377 342 377q115 0 223 -47l-4 -23q-6 -20 -13 -51t-15.5 -61.5t-12.5 -51.5l-6 -20q-86 39 -154 39q-66 0 -95 -40t-29 -128v-84h452l2 111q4 197 90 286.5t250 89.5q115 0 223 -47l-4 -22q-6 -20 -13 -51l-14 -62q-7 -31 -14 -51l-4 -21 q-90 39 -155.5 39t-95 -40t-29.5 -128v-104h282l-6 -199h-268v-739h-242v739h-448v-739h-242v737zM1520 0v1368l241 33v-1401h-241z" />
</font>
</defs>
</svg>
