<?xml version="1.0" standalone="no"?>
<!DOCTYPE svg PUBLIC "-//W3C//DTD SVG 1.1//EN" "http://www.w3.org/Graphics/SVG/1.1/DTD/svg11.dtd" >
<svg xmlns="http://www.w3.org/2000/svg">
<metadata>
This is a custom SVG webfont generated by Font Squirrel.
Copyright   : Copyright c Manfred Klein 032005
</metadata>
<defs>
<font id="NillandRegular" horiz-adv-x="552" >
<font-face units-per-em="1000" ascent="800" descent="-200" />
<missing-glyph horiz-adv-x="250" />
<glyph horiz-adv-x="333" d="M311 669h-42q-16 -36 -44 -54q-26 -17 -58 -17t-59 18q-26 17 -44 53h-42q20 -56 59 -86q40 -32 86 -32q45 0 86 32q40 31 58 86z" />
<glyph horiz-adv-x="333" d="M199 580v64h-64v-64h64z" />
<glyph horiz-adv-x="333" d="M258 612q0 38 -27 65t-65 27t-65 -27q-26 -28 -26 -65q0 -38 27 -65q25 -27 64 -27q38 0 65 27t27 65zM228 612q0 -26 -18 -44t-44 -18t-44 18q-17 19 -17 44q0 26 18 44q16 18 43 18q26 0 44 -18t18 -44z" />
<glyph unicode="&#xa;" horiz-adv-x="333" d="M396 691h-57l-100 -155h38zM281 691h-56l-100 -155h38z" />
<glyph horiz-adv-x="333" d="M253 -156v42q-11 -4 -19.5 -6.5t-15.5 -4.5q-6 -1 -13.5 -1.5t-15.5 -0.5q-23 0 -43 14q-18 13 -18 42q0 20 12 40q5 10 11.5 17.5t13.5 13.5h-41q-16 -13 -30 -34q-14 -22 -14 -46q0 -44 33 -69q31 -25 77 -25q19 0 34 5q12 3 29 13z" />
<glyph horiz-adv-x="333" d="M314 686h-35l-113 -104l-112 104h-35l118 -145h58z" />
<glyph unicode="&#xd;" horiz-adv-x="250" d="M241 0v45h-81v428h-135v-45h83v-383h-83v-45h216z" />
<glyph horiz-adv-x="344" d="M430 679h-35l-479 -679h35z" />
<glyph horiz-adv-x="542" d="M475 650q0 16 -12 28t-28 12t-28 -12t-12 -29q0 -16 12 -28t28 -12t28 12t12 29zM529 0v45h-71v428h-223h-14h-70v95q0 38 17 58q16 19 47 19q25 0 42 -15q16 -14 23 -42l46 7q-6 37 -35 66q-27 29 -75 29q-52 0 -85 -36q-32 -37 -32 -96v-85h-73v-45h73v-383h-76v-45 h197v45h-69v383h70h14h171v-383h-74v-45h197z" />
<glyph horiz-adv-x="542" d="M529 0v45h-72v634h-190q-20 11 -50 11q-53 0 -86 -36q-32 -37 -32 -96v-85h-76v-45h76v-383h-76v-45h197v45h-69v383h77v45h-77v95q0 38 17 58q16 19 47 19q24 0 41 -15q16 -14 24 -42l46 7q-2 11 -5.5 21t-8.5 18h93v-589h-73v-45h197z" />
<glyph horiz-adv-x="510" d="M498 0v270h-54v-225h-280v312l137 112v44l-137 -112v233h91v45h-238v-45h91v-279l-108 -88v-44l108 88v-266h-92v-45h482z" />
<glyph horiz-adv-x="240" d="M256 434v39l-110 -90v296h-138v-45h86v-293l-109 -89v-39l109 89v-257h-85v-45h222v45h-85v299z" />
<glyph d="M424 889h-35l-113 -104l-112 104h-35l118 -145h58zM521 0v175h-46v-130h-381l417 590v44h-462v-45h45h349l-416 -589v-45h494z" />
<glyph horiz-adv-x="479" d="M387 686h-35l-113 -104l-112 104h-35l118 -145h58zM436 429v44h-367v-45h41h268l-333 -383v-45h390v173h-42v-128h-291z" />
<glyph unicode=" "  horiz-adv-x="250" />
<glyph unicode="&#x09;" horiz-adv-x="250" />
<glyph unicode="&#xa0;" horiz-adv-x="250" />
<glyph unicode="!" horiz-adv-x="250" d="M151 463v216h-52v-213l12 -286h28zM153 0v54h-56v-54h56z" />
<glyph unicode="&#x22;" horiz-adv-x="281" d="M247 585v105h-56v-104l14 -126h28zM91 585v105h-56v-104l14 -126h28z" />
<glyph unicode="#" horiz-adv-x="668" d="M587 210v45h-132l40 194h92v45h-82l42 204h-47l-42 -204h-188l42 204h-47l-42 -204h-141v-45h131l-40 -194h-91v-45h82l-42 -203h47l42 203h188l-42 -203h47l42 203h141zM448 449l-40 -194h-188l40 194h188z" />
<glyph unicode="$" horiz-adv-x="510" d="M482 169q0 79 -45 129q-39 44 -151 69v251q46 -9 77 -40q20 -21 30.5 -49t11.5 -65h48q-4 108 -62 153q-48 38 -105 45v28h-46v-28q-71 -7 -121 -45q-59 -45 -59 -112q0 -72 44 -119q41 -43 136 -62v-289q-69 8 -101 40l-35 -35q46 -41 136 -49v-76h46v76q78 6 133 50 q63 52 63 128zM240 376q-61 17 -90 40q-37 31 -37 89q0 50 41 82q35 28 86 32v-243zM434 175q0 -61 -47 -102q-41 -35 -101 -39v282q80 -20 109 -47q39 -38 39 -94z" />
<glyph unicode="%" horiz-adv-x="844" d="M810 177q0 88 -34 135q-33 47 -101 47q-67 0 -101 -48q-34 -46 -34 -134q0 -89 34 -135q33 -47 101 -47q69 0 102 47q33 46 33 135zM770 177q0 -73 -23 -114q-22 -40 -71 -40q-47 0 -71 40q-23 41 -23 113t24 114q23 41 69 41q48 0 72 -41q23 -41 23 -113zM677 679h-26 h-8h-417q-27 11 -58 11q-66 0 -101 -47q-34 -46 -34 -134q0 -89 34 -135q33 -47 102 -47q68 0 101 47q33 46 33 135q0 88 -34 134q-8 13 -23 24h389l-470 -667h34zM263 509q0 -73 -23 -114q-22 -40 -71 -40q-47 0 -71 41q-23 41 -23 112q0 72 24 113q23 41 70 41t71 -41 q23 -41 23 -112z" />
<glyph unicode="&#x26;" horiz-adv-x="698" d="M658 296v45h-115q-5 -29 -13.5 -57t-19.5 -55q-9 -22 -18.5 -40.5t-20.5 -33.5l-170 234q64 22 114 60q56 42 56 105q0 59 -46 98q-46 38 -108 38q-64 0 -113 -41q-47 -41 -47 -100q0 -38 30 -83q23 -34 43 -59q-82 -28 -129 -77q-49 -50 -49 -130q0 -78 59 -145 q57 -65 163 -65q55 0 109 25q45 20 84 64l57 -79l53 2l-78 114q28 35 45 71q22 45 38 109h76zM425 555q0 -46 -45 -79q-20 -14 -46 -26.5t-59 -23.5q-8 11 -17.5 24t-20.5 30q-30 45 -30 73q0 43 33 69q33 24 75 24q46 0 78 -25q32 -26 32 -66zM439 117q-38 -40 -71 -57 q-41 -21 -87 -21q-74 0 -123 50q-50 48 -50 121q0 52 40 95q38 40 108 65z" />
<glyph unicode="'" horiz-adv-x="219" d="M138 585v105h-56v-104l14 -126h28z" />
<glyph unicode="(" horiz-adv-x="354" d="M329 -201v43q-102 61 -145 157q-43 100 -43 240q0 141 44 240q41 96 144 157v43q-125 -56 -183 -171t-58 -269t59 -270q58 -115 182 -170z" />
<glyph unicode=")" horiz-adv-x="354" d="M266 239q0 154 -59 270q-58 115 -182 170v-43q102 -61 145 -157q43 -100 43 -240q0 -141 -44 -240q-41 -96 -144 -157v-43q124 55 183 171q58 116 58 269z" />
<glyph unicode="*" horiz-adv-x="490" d="M451 507l-18 57q-71 -23 -76 -28q-6 -6 -101 -49q10 103 15 111q4 7 4 81h-60q0 -74 4 -81q4 -8 15 -111q-95 43 -101 49q-6 5 -76 28l-18 -57q64 -21 79 -21q8 0 34.5 -5t74.5 -15q-71 -80 -78 -81q-6 -2 -50 -62l48 -36q45 60 45 68q0 6 53 98q53 -92 53 -99t45 -67 l48 36q-44 61 -51 62q-7 2 -77 81q48 10 75.5 15t36.5 5q11 0 76 21z" />
<glyph unicode="+" horiz-adv-x="667" d="M595 300v44h-240v239h-44v-239h-240v-44h240v-242h44v242h240z" />
<glyph unicode="," horiz-adv-x="250" d="M153 -18v81h-56v-63h25q-1 -61 -9 -76q-8 -14 -25 -14v-36q31 2 48 29q17 28 17 79z" />
<glyph unicode="-" horiz-adv-x="344" d="M308 251v45h-274v-45h274z" />
<glyph unicode="." horiz-adv-x="250" d="M158 0v64h-56v-64h56z" />
<glyph unicode="/" horiz-adv-x="281" d="M280 679h-46l-234 -697h46z" />
<glyph unicode="0" horiz-adv-x="531" d="M484 340q0 166 -54 258q-53 92 -164 92t-165 -92t-54 -258t54 -257q53 -92 164 -92t165 92t54 257zM433 340q0 -143 -42 -225q-40 -82 -125 -82t-127 83q-41 84 -41 224q0 143 42 226q40 82 125 82t127 -83q41 -84 41 -225z" />
<glyph unicode="1" horiz-adv-x="531" d="M392 0v45h-96v634l-148 -20v-35h96v-579h-96v-45h244z" />
<glyph unicode="2" horiz-adv-x="531" d="M460 161h-44l-5 -116h-305q9 72 58 139q47 66 157 134q70 43 101 88q29 44 29 108q0 78 -50 128q-50 48 -133 48q-91 0 -144 -59l31 -31q37 48 114 48q54 0 94 -38q37 -39 37 -96q0 -60 -31 -97q-31 -36 -90 -73q-126 -77 -176 -171q-25 -46 -38 -85.5t-11 -73.5l1 -14 h399z" />
<glyph unicode="3" horiz-adv-x="531" d="M473 188q0 73 -41 117q-40 44 -109 55q57 22 84 62q27 37 27 92q0 76 -50 126t-127 50q-80 0 -128 -48t-51 -135h48q1 69 36 105q34 36 92 36t94 -38q35 -38 35 -94q0 -64 -42 -103q-21 -19 -47.5 -26.5t-58.5 -11.5l-18 -2v-39l44 1q72 1 118 -40q44 -39 44 -106 q0 -69 -46 -112q-47 -44 -117 -44q-73 0 -119 48l-36 -31q64 -59 153 -59q94 0 155 55q60 55 60 142z" />
<glyph unicode="4" horiz-adv-x="531" d="M486 199v40h-111v446h-44l-287 -446l-24 -39l49 -1h262v-154v-45h105v45h-61v154h111zM331 239h-241l241 382v-382z" />
<glyph unicode="5" horiz-adv-x="531" d="M480 220q0 91 -57 153q-57 61 -143 61q-39 0 -81 -17q-38 -15 -72 -50l25 262h242h46v50h-330l-31 -347q5 -2 11 -4.5t11 -5.5q9 -5 18 -14q31 43 69 64q38 20 80 20q73 0 118 -48q44 -49 44 -125q0 -81 -47 -134q-46 -52 -122 -52q-68 0 -109 40l-37 -26q59 -56 145 -56 q98 0 159 64q61 62 61 165z" />
<glyph unicode="6" horiz-adv-x="531" d="M477 216q0 94 -53 155q-53 60 -135 60q-55 0 -107 -31q-19 -11 -35.5 -25t-31.5 -31q1 69 11 123t30 96q40 85 137 85q57 0 90 -40l28 34q-50 48 -123 48q-107 0 -165 -96q-58 -94 -58 -272q0 -175 56 -254q54 -77 157 -77q88 0 144 63q55 61 55 162zM427 212 q0 -80 -41 -130q-40 -49 -109 -49t-116 62q-46 61 -46 183v17q34 41 76 66q46 28 91 28q67 0 106 -48t39 -129z" />
<glyph unicode="7" horiz-adv-x="531" d="M460 634v45h-396v-151h46v101h299q-93 -117 -140 -274q-9 -31 -16.5 -72.5t-13 -82t-9.5 -76.5t-6 -56.5t-2 -22.5v-45h132v45h-80q0 79 11.5 156.5t35.5 155.5q23 78 57.5 146.5t81.5 130.5z" />
<glyph unicode="8" horiz-adv-x="531" d="M488 187q0 60 -33 107q-33 46 -108 65q61 17 90 56q30 40 30 99q0 77 -58 126q-58 50 -144 50q-87 0 -145 -50q-56 -50 -56 -127q0 -61 33 -101q31 -39 87 -53q-69 -17 -105 -62q-37 -46 -37 -109q0 -87 64 -142q62 -55 160 -55t160 55q62 54 62 141zM419 513 q0 -64 -42 -100q-41 -35 -112 -35q-70 0 -112 36q-41 35 -41 97q0 61 44 99t113 38q64 0 108 -38q42 -38 42 -97zM438 190q0 -71 -48 -114q-47 -43 -125 -43q-79 0 -125 43q-47 44 -47 115q0 67 47 108q46 39 126 39q78 0 125 -40q47 -41 47 -108z" />
<glyph unicode="9" horiz-adv-x="531" d="M465 359q0 177 -55 254q-56 77 -156 77q-90 0 -145 -63q-56 -64 -56 -163q0 -92 53 -154q51 -60 135 -60q55 0 106 30q38 23 68 56q-1 -137 -41 -219q-41 -84 -131 -84q-60 0 -93 37l-29 -33q49 -46 127 -46q105 0 161 98t56 270zM415 385q-34 -40 -77 -66 q-47 -27 -89 -27q-66 0 -106 48q-39 46 -39 123q0 87 40 136t110 49q72 0 117 -61q44 -62 44 -184v-18z" />
<glyph unicode=":" horiz-adv-x="250" d="M158 380v64h-56v-64h56zM158 0v64h-56v-64h56z" />
<glyph unicode=";" horiz-adv-x="250" d="M158 380v64h-56v-64h56zM153 -18v81h-56v-63h25q-1 -61 -9 -76q-8 -14 -25 -14v-36q31 2 48 29q17 28 17 79z" />
<glyph unicode="&#x3c;" horiz-adv-x="667" d="M595 77v50l-463 193l463 193v50l-524 -223v-40z" />
<glyph unicode="=" horiz-adv-x="667" d="M600 413v44h-524v-44h524zM600 273v44h-524v-44h524z" />
<glyph unicode="&#x3e;" horiz-adv-x="667" d="M596 300v40l-524 223v-50l462 -193l-462 -193v-50z" />
<glyph unicode="?" horiz-adv-x="448" d="M406 506q0 68 -50 127q-50 57 -138 57q-91 0 -140 -55q-48 -56 -48 -130h47q0 64 39 102q38 38 98 38q62 0 103 -41q39 -41 39 -97q0 -76 -50 -108q-36 -23 -89 -23q-19 0 -38 3l-8 -3l18 -192h24l12 145h11q78 0 125 53q45 52 45 124zM227 0v64h-56v-64h56z" />
<glyph unicode="@" horiz-adv-x="666" d="M607 237h-34q-26 -39 -86 -70q-62 -32 -137 -32q-95 0 -171 73q-76 72 -76 185q0 110 73 184q73 76 175 76q94 0 157 -63q64 -63 64 -147q0 -77 -44 -135q-44 -57 -84 -57q-7 0 -13 6q-4 6 -4 13q0 2 0.5 4.5t0.5 5.5l57 263h-41l-10 -49q-10 29 -41 46q-29 16 -54 16 q-77 0 -122 -64q-45 -65 -45 -139q0 -64 34 -97q33 -34 77 -34q36 0 67 20q28 20 44 42q5 -37 15 -50q9 -14 19 -14q61 0 115 66t54 155q0 94 -70 166q-71 71 -178 71q-113 0 -193 -86q-79 -85 -79 -196q0 -114 77 -200q78 -86 201 -86q86 0 157 42q71 41 95 85zM419 442 q0 -61 -36 -125t-87 -64q-29 0 -57 23q-26 23 -26 73q0 67 34 123q33 55 91 55q36 0 58 -25q23 -24 23 -60z" />
<glyph unicode="A" horiz-adv-x="656" d="M680 0v45h-84l-207 589h85v45h-192l-15 -45l-204 -589h-86v-45h142v45h-1l73 213h274l75 -213h-85v-45h225zM450 303h-243l122 355z" />
<glyph unicode="B" horiz-adv-x="563" d="M524 194q0 62 -36 106q-36 43 -101 60q48 17 75 53q28 35 28 92q0 84 -54 129q-53 45 -150 45h-269v-45h87v-589v-1v-45l182 1q111 0 175 50q63 49 63 144zM434 507q0 -60 -44 -95t-116 -35h-114v257h123q70 0 110 -34q41 -35 41 -93zM468 190q0 -70 -50 -108 q-49 -37 -137 -37h-121v287h123q89 0 137 -36q48 -35 48 -106z" />
<glyph unicode="C" horiz-adv-x="750" d="M719 221l-46 27q-40 -110 -109 -161q-68 -48 -162 -48q-125 0 -204 85q-80 86 -80 216q0 132 79 217q78 84 201 84q86 0 160 -48q72 -46 89 -131h47v157h-46v-51q-50 65 -116 93q-69 29 -132 29q-149 0 -244 -98q-94 -97 -94 -252q0 -157 94 -254q93 -96 245 -96 q106 0 189 54q82 54 129 177z" />
<glyph unicode="D" horiz-adv-x="708" d="M661 339q0 151 -89 246q-88 94 -273 94h-291v-45h94v-589v-45h196q202 0 283 102q80 103 80 237zM605 339q0 -145 -76 -220q-77 -74 -223 -74h-148v589h146q143 0 223 -77q78 -77 78 -218z" />
<glyph unicode="E" horiz-adv-x="604" d="M559 0v45h-46h-355v280h282v45h-282v264h355v-120h45v165h-543v-45h87v-589v-45h457z" />
<glyph unicode="F" horiz-adv-x="531" d="M532 513v166h-517v-45h88v-589h-88v-45h144v45v282l250 -1v46h-250v262h328v-121h45z" />
<glyph unicode="G" horiz-adv-x="792" d="M738 306h-338v-45h280q-14 -106 -92 -164q-79 -58 -184 -58q-131 0 -215 85q-83 85 -83 216t80 217q79 84 205 84q86 0 161 -48q76 -49 101 -136h45v172h-45v-67q-44 59 -114 94q-71 34 -149 34q-146 0 -243 -100q-97 -98 -97 -250q0 -155 99 -252q100 -98 254 -98 q146 0 241 86q92 85 94 230z" />
<glyph unicode="H" horiz-adv-x="688" d="M667 634v45h-226v-45h88v-257h-371v257v45h-139v-45h83v-589h-82v-45h138v45v288h371v-288h-87v-45h143v45v589h82z" />
<glyph unicode="I" horiz-adv-x="281" d="M167 730v64h-56v-64h56zM254 0v45h-86v589v45h-56v-45v-589h-85v-45h227z" />
<glyph unicode="J" horiz-adv-x="271" d="M263 634v45h-255v-45h102v-688q0 -60 -25 -85q-24 -24 -83 -24l-2 -48q85 0 125 40q41 39 41 123v682h97z" />
<glyph unicode="K" horiz-adv-x="583" d="M600 0v45h-73l-289 317l275 272h73v45h-93l-45 -45l-282 -277l282 -312l39 -45h113zM253 0v45h-94v312v277h93v45h-239v-45h90v-589v-45h150z" />
<glyph unicode="L" horiz-adv-x="510" d="M498 0v220h-54v-175h-280v589h1v45h-149v-45h92v-589h-92v-45h482z" />
<glyph unicode="M" horiz-adv-x="854" d="M836 0v45h-85v589h85v45h-175l-233 -569l-235 569h-174v-45h88v-589v-45h128v45h-81v607l264 -652h11l266 650v-605v-45h141z" />
<glyph unicode="N" horiz-adv-x="708" d="M698 634v45h-135v-45v-560q-49 78 -98 153.5t-99 149.5q-49 73 -98 148.5t-98 153.5h-160v-45h91v-589v-45h143v45h-96v573l409 -627h53v643h88z" />
<glyph unicode="O" horiz-adv-x="781" d="M734 340q0 151 -97 251q-98 99 -245 99q-148 0 -245 -100q-97 -98 -97 -250q0 -151 97 -251q97 -99 245 -99t245 100q97 98 97 250zM678 340q0 -131 -81 -216q-79 -85 -205 -85q-124 0 -205 86q-81 85 -81 215t81 216q81 85 205 85q125 0 206 -86q80 -86 80 -215z" />
<glyph unicode="P" d="M533 479q0 95 -60 148q-60 52 -166 52h-291v-45h90v-589h-90v-45h146v45v235h155q98 0 157 54t59 145zM477 473q0 -73 -47 -111q-46 -37 -133 -37h-135v309h135q93 0 137 -38q43 -37 43 -123z" />
<glyph unicode="Q" horiz-adv-x="781" d="M734 340q0 151 -97 251q-98 99 -245 99q-148 0 -245 -100q-97 -98 -97 -250q0 -151 97 -251q66 -69 173 -92q-28 -3 -45 -8q-14 -5 -27 -11t-24 -15l21 -30q21 15 43 22q11 3 22 5t22 2q14 0 47 -12t70 -28t71 -33.5t50 -27.5l27 41q-9 5 -36.5 18.5t-58 28.5t-57.5 27 t-35 14q137 8 227 99q97 100 97 251zM678 340q0 -131 -81 -216q-79 -85 -205 -85q-124 0 -205 86q-81 85 -81 215t81 216q81 85 205 85q125 0 206 -86q80 -86 80 -215z" />
<glyph unicode="R" horiz-adv-x="573" d="M588 0v45h-87l-136 299q82 17 119 61q37 45 37 111q0 71 -52 117t-132 46h-334v-45h100v-635h56v340h150l153 -339h126zM465 511q0 -62 -42 -95q-41 -32 -116 -32h-148v250h166q65 0 102 -34q38 -33 38 -89z" />
<glyph unicode="S" horiz-adv-x="542" d="M498 178q0 81 -50 128t-187 80q-75 18 -120 48q-44 30 -44 88q0 50 41 85q40 34 102 34q37 0 69 -5.5t58 -25.5q13 -10 21.5 -24t14 -28.5t7.5 -27.5t2 -21v-13h53q0 2 -1 15t-4 33t-10 34t-13.5 23.5t-17.5 21.5q-18 20 -36 30t-41 21q-23 10 -48 13t-51 3 q-83 0 -141 -48q-57 -48 -57 -118q0 -78 49 -121q49 -45 155 -70t150 -59q43 -33 43 -90q0 -64 -46 -104q-47 -41 -115 -41q-80 0 -136 52q-56 51 -56 118v24h-46v-233h46v91q16 -25 36.5 -44t46.5 -32q51 -25 108 -25q92 0 155 54t63 134z" />
<glyph unicode="T" horiz-adv-x="573" d="M557 545v134h-540v-214h46v169h196v-589h-93v-45h149v634h196v-89h46z" />
<glyph unicode="U" horiz-adv-x="646" d="M642 634v45h-143v-45v-439q0 -78 -45 -117t-132 -39q-83 0 -130 41q-46 39 -46 117v437h86v45h-229v-45h87v-431q0 -104 61 -159q60 -54 172 -54q113 0 172 55q60 55 60 158v431h87z" />
<glyph unicode="V" horiz-adv-x="656" d="M679 634v45h-219v-45h83l-206 -560l-214 560l-15 45h-130v-45h88l243 -641h47l235 641h88z" />
<glyph unicode="W" horiz-adv-x="948" d="M966 634v45h-219v-45h87l-157 -565l-154 565l-13 45h-71l-10 -45l-145 -565l-162 565l-12 45h-130v-45h85l192 -641h46l169 656l180 -656h44l185 641h85z" />
<glyph unicode="X" horiz-adv-x="656" d="M642 0v45h-95l-195 306l178 283h90v45h-228v-45h84l-153 -240l-151 240l-30 45h-128v-45h94l187 -292l-187 -297h-94v-45h239v45h-89l159 254l160 -254h1l27 -45h131z" />
<glyph unicode="Y" horiz-adv-x="604" d="M622 634v45h-223v-45h88l-177 -279l-176 279h-1l-28 45h-124v-45h88l208 -328v-261h-94v-45h150v45v261l208 328h81z" />
<glyph unicode="Z" d="M521 0v175h-46v-130h-381l417 590v44h-462v-45h45h349l-416 -589v-45h494z" />
<glyph unicode="[" horiz-adv-x="344" d="M329 -201v45h-160v790h160v45h-212v-880h212z" />
<glyph unicode="\" horiz-adv-x="281" d="M281 -14l-234 693h-47l234 -693h47z" />
<glyph unicode="]" horiz-adv-x="344" d="M228 679h-213v-45h160l1 -790h-161v-45h212z" />
<glyph unicode="^" horiz-adv-x="656" d="M546 428l-218 262l-218 -262l30 -27l188 225l188 -225z" />
<glyph unicode="_" horiz-adv-x="500" d="M500 -125v50h-500v-50h500z" />
<glyph unicode="`" horiz-adv-x="333" d="M240 536l-100 155h-57l119 -155h38z" />
<glyph unicode="a" horiz-adv-x="510" d="M500 0v45h-79v307q0 68 -45 101t-131 33q-19 0 -40.5 -4.5t-39.5 -10.5t-29.5 -10.5l-11.5 -4.5l13 -31l11 3.5t27 8t34.5 8.5t33.5 4q57 0 92 -23q34 -22 34 -74v-112q-38 21 -75 30q-38 9 -66 9q-80 0 -129 -42q-48 -41 -48 -104q0 -57 42 -99q41 -41 105 -41 q39 0 87 20q45 19 84 54v-67h131zM369 111q-29 -33 -74 -56q-43 -22 -85 -22q-49 0 -78 29q-28 28 -28 67q0 47 35 79t98 32q35 0 70 -12q32 -11 62 -30v-87z" />
<glyph unicode="b" horiz-adv-x="615" d="M573 245q0 106 -67 173q-66 68 -170 68q-50 0 -99 -25q-50 -26 -85 -86v304h-138v-45h86v-589v-45h52v95q40 -58 86 -80q44 -22 93 -22q108 0 175 70t67 182zM520 243q0 -91 -52 -149q-51 -58 -133 -58q-78 0 -131 56t-53 149q0 89 55 145q54 57 131 57q79 0 132 -57 q51 -56 51 -143z" />
<glyph unicode="c" horiz-adv-x="510" d="M480 128l-42 18q-21 -50 -62 -82q-40 -31 -100 -31q-82 0 -132 56t-50 147t49 147q48 56 126 56q56 0 103 -36q45 -34 48 -110h43v150h-43v-34q-24 37 -63 57q-38 20 -88 20q-99 0 -163 -72q-65 -73 -65 -178q0 -109 65 -180q64 -70 169 -70q71 0 124 37q54 37 81 105z " />
<glyph unicode="d" horiz-adv-x="594" d="M591 0v45h-86v634h-52v-45v-259q-38 62 -86 87q-50 24 -100 24q-100 0 -166 -71q-65 -71 -65 -179q0 -104 67 -174q67 -69 167 -69q51 0 99 23q46 22 84 78v-94h138zM454 239q0 -88 -52 -146q-51 -57 -132 -57q-78 0 -132 58q-53 59 -53 142q0 87 53 148q51 59 130 59 q78 0 132 -59t54 -145z" />
<glyph unicode="e" d="M518 225q-6 124 -70 192q-65 69 -167 69q-105 0 -173 -71t-68 -179q0 -109 69 -179q69 -71 175 -71q19 0 43 5.5t45 12t35.5 12l14.5 5.5l-12 38l-13 -5t-31 -10.5t-38.5 -10.5t-35.5 -5q-88 0 -144 59q-52 54 -57 138h427zM463 270h-370q11 71 50 113q53 59 134 59 q77 0 127 -48q49 -49 59 -124z" />
<glyph unicode="f" horiz-adv-x="250" d="M323 595q-6 37 -35 66q-27 29 -75 29q-52 0 -85 -36q-32 -37 -32 -96v-85h-73v-45h73v-383h1v-45h144v45h-93v383h93v45h-93v95q0 38 17 58q16 19 47 19q25 0 42 -15q16 -14 23 -42z" />
<glyph unicode="g" horiz-adv-x="594" d="M601 428v45h-139v-103q-45 69 -92 93q-48 23 -96 23q-98 0 -167 -74q-68 -74 -68 -180q0 -103 67 -171q68 -68 167 -68q53 0 105 26q51 26 84 85v-120q0 -77 -51 -119t-132 -42q-12 0 -29 2.5t-32 5.5t-26 5.5l-11 2.5l-12 -45q2 -1 18.5 -5t42 -8.5t44.5 -4.5 q106 0 173 58t67 155v439h87zM462 236q0 -85 -54 -142q-53 -57 -132 -57q-80 0 -133 56q-51 55 -51 143q0 85 53 146q53 59 131 59q76 0 132 -60q54 -60 54 -145z" />
<glyph unicode="h" horiz-adv-x="542" d="M536 0v45h-76v317q0 56 -35 91q-35 33 -92 33q-50 0 -96 -21t-86 -56v270h-138v-45h86v-589h2v-45h128v45h-78v312q35 34 85 58q48 24 90 24q40 0 61 -22q21 -21 21 -61v-311v-45h128z" />
<glyph unicode="i" horiz-adv-x="250" d="M159 650q0 16 -12 28t-28 12t-28 -12t-12 -29q0 -16 12 -28t28 -12t28 12t12 29zM240 0v45h-81v428h-135v-45h83v-383h1v-45h132z" />
<glyph unicode="j" horiz-adv-x="240" d="M161 650q0 16 -12 28t-28 12t-28 -12t-12 -29q0 -16 12 -28t28 -12t28 12t12 29zM161 -59v532h-139v-45h87v-474q0 -59 -25 -87q-13 -14 -32.5 -21.5t-47.5 -5.5v-45q38 -2 67.5 8.5t49.5 29.5q40 37 40 108z" />
<glyph unicode="k" horiz-adv-x="521" d="M534 0v45h-72l-246 206l259 177h51v45h-64q-2 -1 -22 -15t-56 -39t-76.5 -52.5t-82 -56t-73.5 -49.5v418h-139v-45h87v-589h1v-45h138v45h-87v199l280 -244h102z" />
<glyph unicode="l" horiz-adv-x="240" d="M231 0v45h-85v634h-138v-45h86v-589v-45h137z" />
<glyph unicode="m" horiz-adv-x="844" d="M830 0v45h-74v317q0 56 -35 91q-35 33 -94 33q-46 0 -98 -27q-55 -28 -82 -58q-13 43 -45 64t-77 21q-47 0 -93 -21q-43 -20 -82 -56v64h-138v-45h86v-383v-45h130v45h-78v312q35 33 84 58q46 24 87 24t60 -22q20 -22 20 -61v-356h52v353q39 39 84 63q46 23 88 23 q38 0 59 -22q20 -22 20 -61v-311v-45h126z" />
<glyph unicode="n" horiz-adv-x="531" d="M528 0v45h-75v317q0 56 -35 91q-35 33 -91 33q-49 0 -95 -21t-86 -56v64h-138v-45h86v-383v-45h129v45h-77v312q35 33 84 58q48 24 90 24q39 0 60 -22q21 -21 21 -61v-311v-45h127z" />
<glyph unicode="o" d="M513 236q0 105 -68 178q-68 72 -168 72q-102 0 -169 -72q-67 -71 -67 -178q0 -105 68 -178q67 -72 168 -72q100 0 169 72q67 73 67 178zM460 236q0 -88 -52 -146q-51 -57 -131 -57t-132 58q-51 57 -51 145t52 146q51 57 131 57t132 -58q51 -57 51 -145z" />
<glyph unicode="p" horiz-adv-x="594" d="M551 239q0 106 -66 177q-64 70 -164 70q-50 0 -98 -24q-47 -22 -87 -85v96h-132v-45h80v-595v-45h138v45h-86v263q34 -64 83 -87q48 -23 99 -23q103 0 168 71t65 182zM503 236q0 -89 -51 -146t-133 -57q-80 0 -132 57q-53 58 -53 148q0 92 52 147q53 56 130 56 q83 0 135 -58q52 -56 52 -147z" />
<glyph unicode="q" horiz-adv-x="594" d="M596 434v45h-140v-99q-36 58 -85 82q-50 24 -98 24q-99 0 -165 -72q-66 -71 -66 -176q0 -111 65 -182q64 -70 171 -70q51 0 99 24q48 25 79 85v-262h-84v-45h136v45v601h88zM459 238q0 -91 -53 -149q-53 -56 -133 -56q-81 0 -132 57q-50 58 -50 147q0 88 53 147 q51 57 134 57q79 0 130 -56t51 -147z" />
<glyph unicode="r" horiz-adv-x="396" d="M383 436v50l-19 1q-16 1 -34.5 -1t-37 -5.5t-35.5 -9.5t-30 -13q-17 -9 -32 -26t-22.5 -29t-8.5 -14v84h-142v-45h90v-383v-45h149v45h-97v212q0 93 49 136t151 43h19z" />
<glyph unicode="s" horiz-adv-x="448" d="M409 127q0 57 -33 89q-32 31 -138 51q-75 14 -101 31q-26 18 -26 57q0 37 28 62q28 26 75 26q55 0 92 -34q37 -33 38 -85h44v135h-44v-37q-25 33 -58 49q-32 15 -73 15q-63 0 -106 -36t-43 -97q0 -62 39 -90q37 -28 123 -43q79 -13 108 -35q29 -20 29 -63q0 -41 -38 -70 q-38 -27 -90 -27q-68 0 -109 37t-42 102h-46v-164h46v60q27 -42 65 -59q36 -16 81 -16q81 0 131 39q48 37 48 103z" />
<glyph unicode="t" horiz-adv-x="260" d="M238 0v45l-56 -9q-23 0 -33 12q-10 11 -10 40v340h99v45h-99v107l-52 -1v-106h-84v-45h84v-350q0 -45 21 -67t64 -22z" />
<glyph unicode="u" horiz-adv-x="542" d="M534 0v45h-82v428h-52v-45v-303q-35 -35 -82 -60t-92 -25q-37 0 -58 21q-20 22 -20 59v353h-135v-45h83v-317q0 -56 33 -87q31 -31 88 -31q54 0 101 22q23 11 44 23.5t38 28.5v-67h134z" />
<glyph unicode="v" horiz-adv-x="521" d="M524 428v45h-105l-17 -45l-136 -369l-137 369h65v45h-196v-45h78l167 -435h48l160 435h73z" />
<glyph unicode="w" horiz-adv-x="750" d="M749 428v45h-104l-13 -45l-116 -346l-109 346h53v45h-179v-45h55l-113 -356l-109 356l-13 45h-98v-45h62l135 -435h51l119 415l123 -415h48l141 435h67z" />
<glyph unicode="x" horiz-adv-x="531" d="M513 0v45h-59l-161 199l144 184h64v45h-174v-45h51l-115 -147l-117 147h56v45h-176v-45h61l147 -184l-152 -199l-35 -45h155v45h-62l123 163l133 -163h2l34 -45h81z" />
<glyph unicode="y" horiz-adv-x="531" d="M530 428v45h-197v-45h75l-133 -352l-144 352l-17 45h-112v-45h78l170 -415l-80 -225h46l242 640h72z" />
<glyph unicode="z" horiz-adv-x="479" d="M436 429v44h-367v-45h41h268l-333 -383v-45h390v173h-42v-128h-291z" />
<glyph unicode="{" horiz-adv-x="333" d="M285 -201v47q-47 0 -68 22q-21 21 -21 94v117q0 70 -26 110q-26 38 -67 50q42 12 67 51q26 38 26 109v117q0 72 21 95q21 21 68 21v47h-16q-72 0 -100 -39q-27 -39 -27 -95v-137q0 -64 -23 -104q-21 -38 -71 -38v-54q49 0 72 -39q22 -39 22 -103v-137q0 -57 28 -95 q27 -39 99 -39h16z" />
<glyph unicode="|" horiz-adv-x="496" d="M274 -224v903h-52v-903h52z" />
<glyph unicode="}" horiz-adv-x="333" d="M285 212v54q-50 0 -72 39t-22 103v137q0 57 -28 95q-27 39 -99 39h-16v-47q47 0 68 -22q21 -21 21 -94v-117q0 -70 26 -110q26 -38 67 -50q-42 -12 -67 -51q-26 -38 -26 -109v-117q0 -73 -21 -95q-21 -21 -68 -21v-47h16q71 0 100 39q27 39 27 95v137q0 64 23 104 q21 38 71 38z" />
<glyph unicode="~" horiz-adv-x="656" d="M590 339l-1 54q-20 -14 -38 -25.5t-34 -20.5q-32 -18 -69 -18q-41 0 -117 38q-77 37 -125 37q-49 0 -87 -23q-19 -11 -32 -20t-21 -16v-54q35 28 70 46q33 18 71 18q39 0 117 -38q75 -37 126 -37q48 0 86 23q19 11 32.5 20t21.5 16z" />
<glyph unicode="&#xa1;" horiz-adv-x="250" d="M153 379v94h-56v-94h56zM151 -206v213l-12 286h-28l-12 -283v-216h52z" />
<glyph unicode="&#xa2;" horiz-adv-x="510" d="M480 128l-42 18q-21 -50 -62 -82q-40 -31 -100 -31q-26 0 -44 5l99 382q21 -10 40 -24q46 -34 49 -110h43v180h-43v-64q-24 37 -63 57l-14 7l52 203h-34l-50 -194q-16 4 -42 4q-98 0 -163 -71t-65 -176q0 -107 65 -177q30 -33 83 -55l-55 -212h34l52 203q23 -5 55 -5 q71 0 124 37q54 37 81 105zM299 429l-98 -382q-35 16 -57 41q-50 56 -50 144q0 90 49 145q48 55 126 55q16 0 30 -3z" />
<glyph unicode="&#xa3;" horiz-adv-x="521" d="M503 141v9h-40q-2 -60 -19 -88q-18 -29 -57 -29q-32 0 -63 22q-16 11 -33.5 25.5t-37.5 32.5q2 11 4 21.5t4 20.5q1 9 1.5 19.5t0.5 22.5q0 31 -7 60q-6 32 -16 56h116v45h-131q-20 50 -36 97t-16 84q0 52 35 81q34 28 83 28q59 0 89 -35q29 -34 31 -87h49q-2 77 -46 120 q-44 44 -124 44q-79 0 -124 -45q-44 -44 -44 -109q0 -39 14 -83q7 -21 16 -45t22 -50h-120v-45h135q6 -14 12 -30t11 -35t7.5 -36.5t2.5 -34.5l-4 -37q-18 13 -36 20q-21 8 -42 8q-43 0 -71 -26q-26 -26 -26 -62q0 -39 25 -64t65 -25q29 0 57 19q27 17 50 63q41 -41 77 -61 q37 -21 70 -21q52 0 84 42q32 43 32 108zM209 100q-12 -31 -32 -53q-20 -20 -45 -20q-23 0 -38 15q-14 14 -14 35q0 27 20 41t41 14q18 0 33 -7q16 -7 35 -25z" />
<glyph unicode="&#xa4;" horiz-adv-x="750" d="M739 221l-46 27q-18 -48 -42 -87t-57 -66t-75.5 -41.5t-96.5 -14.5q-53 0 -98 16t-80 44.5t-59 67.5t-36 86h391v44h-400q-1 11 -1.5 21.5t-0.5 21.5q0 14 1 27t3 26h398v44h-389q12 45 36 82.5t58 64.5t77.5 42t95.5 15q42 0 83 -11.5t75 -34t58.5 -56t32.5 -77.5h47 v157h-46v-51q-45 58 -109.5 90t-138.5 32q-64 0 -118 -18.5t-96 -51.5t-71 -79.5t-42 -103.5h-77v-44h69q-3 -26 -3 -53q0 -11 0.5 -21.5t1.5 -21.5h-68v-44h74q12 -59 40 -107.5t70.5 -83t98 -53.5t122.5 -19q121 0 198.5 60.5t119.5 170.5z" />
<glyph unicode="&#x20ac;" horiz-adv-x="750" d="M739 221l-46 27q-18 -48 -42 -87t-57 -66t-75.5 -41.5t-96.5 -14.5q-53 0 -98 16t-80 44.5t-59 67.5t-36 86h391v44h-400q-1 11 -1.5 21.5t-0.5 21.5q0 14 1 27t3 26h398v44h-389q12 45 36 82.5t58 64.5t77.5 42t95.5 15q42 0 83 -11.5t75 -34t58.5 -56t32.5 -77.5h47 v157h-46v-51q-45 58 -109.5 90t-138.5 32q-64 0 -118 -18.5t-96 -51.5t-71 -79.5t-42 -103.5h-77v-44h69q-3 -26 -3 -53q0 -11 0.5 -21.5t1.5 -21.5h-68v-44h74q12 -59 40 -107.5t70.5 -83t98 -53.5t122.5 -19q121 0 198.5 60.5t119.5 170.5z" />
<glyph unicode="&#xa5;" d="M553 634v45h-225v-45h88l-57 -118h-85h-67l-54 118h89v45h-242v-45h88l55 -118h-143v-45h164l56 -120h-220v-45h241l7 -16v-245h-94v-45h247v45h-97v251l5 10h241v45h-219l59 120h160v45h-138l58 118h83zM337 471l-56 -116l-53 116h46h63z" />
<glyph unicode="&#xa6;" horiz-adv-x="496" d="M274 315v364h-52v-364h52zM274 -224v363h-52v-363h52z" />
<glyph unicode="&#xa7;" horiz-adv-x="438" d="M421 212q0 57 -34 94q-35 39 -106 70l-81 35q-61 27 -89 58q-27 31 -27 72q0 53 40 80t82 27q54 0 92 -30q39 -31 43 -95h47q-4 86 -59 127q-53 40 -118 40q-73 0 -125 -41q-50 -39 -50 -112q0 -36 16 -68q15 -32 51 -60q-43 -28 -65 -66q-22 -41 -22 -77q0 -57 34 -94 q35 -39 106 -70l81 -35q61 -27 89 -58q27 -32 27 -72q0 -53 -40 -80q-41 -27 -82 -27q-55 0 -92 30q-39 31 -43 95h-46q4 -87 58 -127q53 -40 118 -40q73 0 125 41q50 39 50 112q0 36 -16 68q-15 31 -51 60q43 28 65 66q22 41 22 77zM373 206q0 -37 -21 -68q-19 -29 -52 -48 l-143 64q-28 13 -46 26.5t-28 26.5q-19 25 -19 67q0 37 21 67q10 15 23 27t29 22l143 -65q28 -13 46 -26t28 -26q19 -25 19 -67z" />
<glyph unicode="&#xa8;" horiz-adv-x="333" d="M285 580v64h-64v-64h64zM112 580v64h-64v-64h64z" />
<glyph unicode="&#xa9;" horiz-adv-x="802" d="M773 356q0 154 -109 263t-264 109q-154 0 -263 -109t-109 -264q0 -154 109 -263t264 -109q154 0 263 109t109 264zM726 355q0 -134 -96 -230q-95 -95 -230 -95q-134 0 -230 96q-95 95 -95 230q0 134 96 230q95 95 230 95q134 0 230 -96q95 -95 95 -230zM567 270l-44 16 q-13 -45 -46 -73q-32 -27 -74 -27q-66 0 -100 51q-34 49 -34 124q0 65 36 112q36 45 103 45q41 0 69 -25q27 -24 39 -56l47 14q-23 48 -61 78q-37 28 -93 28q-90 0 -141 -57q-51 -56 -51 -145q0 -96 54 -154q53 -59 134 -59q57 0 101 33q43 32 61 95z" />
<glyph unicode="&#xaa;" horiz-adv-x="333" d="M330 398v27h-51v184q0 41 -30 61q-29 20 -85 20q-50 0 -78 -18q-30 -19 -43 -47l26 -6q9 20 32 34t62 14q37 0 60 -14q22 -13 22 -44v-67q-26 14 -49 18q-12 2 -22.5 3.5t-20.5 1.5q-53 0 -84 -25q-31 -24 -31 -62q0 -34 27 -59q26 -25 69 -25q26 0 56 12q28 11 55 32 v-40h85zM245 465q-21 -21 -48 -34t-55 -13q-32 0 -51 18q-18 16 -18 39q0 28 23 48q22 19 63 19q25 0 46 -7t40 -18v-52z" />
<glyph unicode="&#xab;" horiz-adv-x="469" d="M451 0l-152 239l152 239h-55l-153 -239l153 -239h55zM238 0l-152 239l152 239h-55l-153 -239l153 -239h55z" />
<glyph unicode="&#xac;" horiz-adv-x="1011" d="M1000 0v45h-73l-289 317l275 272h73v45h-93l-45 -45l-282 -277l282 -312l39 -45h113zM653 0v45h-94v312v36l57 57l-21 21l-34 -35l-2 2v196h93v45h-239v-45h90v-140l-90 90q-28 27 -59 26q-31 0 -59 -28q-21 -21 -34 -58q-6 -19 -8.5 -35.5t-2.5 -30.5q-27 13 -51 9 q-23 -4 -45 -26t-34 -53q-11 -32 -12 -65l-30 30l-64 -64l21 -21l40 40l178 -179l21 -21l61 61l-21 21l-36 -36l-146 145q1 33 12 66q11 34 30 52q18 20 38 18q17 0 38 -19l166 -166l24 24l-165 165q0 18 2.5 35t7.5 33q11 34 31 52q17 19 37 17q20 0 38 -19l112 -112v-400 v-45h150zM620 -148q0 33 -24 57q-23 23 -57 23q-33 0 -56 -23q-24 -24 -24 -57q0 -35 24 -57q22 -24 57 -24q33 0 56 24q24 22 24 57z" />
<glyph unicode="&#xae;" horiz-adv-x="802" d="M773 356q0 154 -109 263t-264 109q-154 0 -263 -109t-109 -264q0 -154 109 -263t264 -109q154 0 263 109t109 264zM726 355q0 -134 -96 -230q-95 -95 -230 -95q-134 0 -230 96q-95 95 -95 230q0 134 96 230q95 95 230 95q134 0 230 -96q95 -95 95 -230zM564 155 q-19 42 -34 72.5t-27 50.5q-24 38 -73 54q60 4 90 36q29 32 29 75q0 41 -32 73q-31 31 -100 31h-167v-392h52v170h32q60 0 91 -28q31 -27 79 -142h60zM493 441q0 -35 -23 -55t-88 -20h-80v141h85q49 0 79 -14q27 -14 27 -52z" />
<glyph unicode="&#xaf;" horiz-adv-x="333" d="M327 600v29h-321v-29h321z" />
<glyph unicode="&#xb0;" horiz-adv-x="396" d="M339 549q0 58 -42 100q-41 41 -99 41t-100 -42q-41 -41 -41 -99t42 -100q41 -41 99 -41t100 42q41 41 41 99zM299 549q0 -42 -30 -72q-29 -29 -71 -29t-72 30q-29 29 -29 71t30 72q29 29 71 29t72 -30q29 -29 29 -71z" />
<glyph unicode="&#xb1;" horiz-adv-x="667" d="M595 377v44h-240v241h-44v-241h-240v-44h240v-241h44v241h240zM595 0v44h-524v-44h524z" />
<glyph unicode="&#xb2;" horiz-adv-x="323" d="M276 442h-27l-3 -87h-189q5 38 35 73q30 34 98 69q42 22 63 46q18 22 18 56q0 42 -31 67q-33 25 -83 25q-57 0 -89 -31q-33 -30 -33 -80v-8h29v6q0 40 24 66q22 25 70 25q35 0 58 -20t23 -50q0 -31 -19 -50t-56 -38q-78 -39 -110 -89q-30 -48 -30 -83l1 -7h247z" />
<glyph unicode="&#xb3;" horiz-adv-x="323" d="M295 430q0 39 -25 61q-27 22 -68 28q36 12 53 32q16 21 16 48q0 41 -31 66q-32 26 -79 26q-50 0 -79 -25q-31 -26 -32 -70h30q2 36 23 55q21 18 56 18t58 -20q22 -19 22 -49q0 -33 -26 -53t-65 -20l-11 1v-24l27 2q23 2 41 -4t32 -17q27 -20 27 -55t-29 -58t-72 -23 q-45 0 -74 25q-30 27 -34 67h-29q3 -51 42 -83q37 -31 94 -31q58 0 96 29q37 28 37 74z" />
<glyph unicode="&#xb4;" horiz-adv-x="333" d="M250 691h-57l-100 -155h38z" />
<glyph unicode="&#xb5;" d="M537 0v45h-82v428h-134v-45h82v-303q-35 -35 -82 -60q-46 -25 -89 -25q-38 0 -57 21q-19 20 -19 59v353h-135v-45h83v-640h49v240q11 -14 32 -25q19 -10 47 -10q50 0 94 22q47 22 77 52v-67h134z" />
<glyph unicode="&#xb6;" horiz-adv-x="646" d="M618 612v67h-339q-105 0 -169 -57q-63 -56 -63 -151q0 -86 60 -146q59 -59 159 -59v-478h64v824h130v-824h64v824h94z" />
<glyph unicode="&#xb7;" horiz-adv-x="292" d="M158 287v64h-56v-64h56z" />
<glyph unicode="&#x2219;" horiz-adv-x="292" d="M158 287v64h-56v-64h56z" />
<glyph unicode="&#xb8;" horiz-adv-x="333" d="M239 -118q0 33 -21 54q-20 21 -52 21l7 36h-32l-14 -73q28 0 45 -12t17 -33q0 -29 -25 -42q-13 -7 -29.5 -11t-36.5 -3l-26 1v-32h14q72 0 113 23q40 22 40 71z" />
<glyph unicode="&#xb9;" horiz-adv-x="323" d="M238 332v23h-59v330h-92v-23h59v-307h-60v-23h152z" />
<glyph unicode="&#xba;" horiz-adv-x="354" d="M331 540q0 63 -44 107q-43 43 -109 43t-110 -44q-43 -43 -43 -106t44 -107q43 -43 109 -43q67 0 110 43t43 107zM297 540q0 -54 -34 -88q-33 -34 -85 -34q-51 0 -86 35q-33 34 -33 87t34 87q33 34 85 34q51 0 86 -35q33 -35 33 -86z" />
<glyph unicode="&#xbb;" horiz-adv-x="469" d="M440 239l-153 239h-55l152 -239l-152 -239h55zM227 239l-153 239h-55l152 -239l-152 -239h55z" />
<glyph unicode="&#xbc;" horiz-adv-x="844" d="M710 103v21h-68v232h-28l-178 -232q4 -3 10 -9q3 -5 6 -12h162v-80h-47v-23h112v23h-37v80h68zM614 124h-149l149 199v-199zM639 679h-35l-479 -679h35zM239 332v23h-59v330h-92v-23h59v-307h-60v-23h152z" />
<glyph unicode="&#xbd;" horiz-adv-x="844" d="M750 110h-27l-3 -87h-189q5 38 35 73q30 34 98 69q42 22 63 46q18 22 18 56q0 42 -31 67q-33 25 -83 25q-57 0 -89 -31q-33 -30 -33 -80v-8h29v6q0 40 24 66q22 25 70 25q35 0 58 -20t23 -50q0 -31 -19 -50t-56 -38q-78 -39 -110 -89q-30 -48 -30 -83l1 -7h247zM638 679 h-35l-479 -679h35zM238 332v23h-59v330h-92v-23h59v-307h-60v-23h152z" />
<glyph unicode="&#xbe;" horiz-adv-x="844" d="M783 103v21h-68v232h-28l-178 -232q4 -3 10 -9q3 -5 6 -12h162v-80h-47v-23h112v23h-37v80h68zM687 124h-149l149 199v-199zM713 679h-35l-479 -679h35zM332 430q0 39 -25 61q-27 22 -68 28q36 12 53 32q16 21 16 48q0 41 -31 66q-32 26 -79 26q-50 0 -79 -25 q-31 -26 -32 -70h30q2 36 23 55q21 18 56 18t58 -20q22 -19 22 -49q0 -33 -26 -53t-65 -20l-11 1v-24l27 2q23 2 41 -4t32 -17q27 -20 27 -55t-29 -58t-72 -23q-45 0 -74 25q-30 27 -34 67h-29q3 -51 42 -83q37 -31 94 -31q58 0 96 29q37 28 37 74z" />
<glyph unicode="&#xbf;" horiz-adv-x="448" d="M277 380v94h-56v-94h56zM418 -31h-47q0 -65 -39 -102q-38 -38 -98 -38q-62 0 -103 41q-39 40 -39 97q0 76 49 107q37 24 90 24q18 0 38 -3l8 3l-18 192h-24l-12 -145h-11q-78 0 -125 -53q-45 -53 -45 -124q0 -68 50 -127q48 -57 137 -57q91 0 140 55t49 130z" />
<glyph unicode="&#xc0;" horiz-adv-x="656" d="M402 739l-100 155h-57l119 -155h38zM680 0v45h-84l-207 589h85v45h-192l-15 -45l-204 -589h-86v-45h142v45h-1l73 213h274l75 -213h-85v-45h225zM450 303h-243l122 355z" />
<glyph unicode="&#xc1;" horiz-adv-x="656" d="M412 894h-57l-100 -155h38zM680 0v45h-84l-207 589h85v45h-192l-15 -45l-204 -589h-86v-45h142v45h-1l73 213h274l75 -213h-85v-45h225zM450 303h-243l122 355z" />
<glyph unicode="&#xc2;" horiz-adv-x="656" d="M476 743l-119 145h-58l-118 -145h35l112 104l113 -104h35zM680 0v45h-84l-207 589h85v45h-192l-15 -45l-204 -589h-86v-45h142v45h-1l73 213h274l75 -213h-85v-45h225zM450 303h-243l122 355z" />
<glyph unicode="&#xc3;" horiz-adv-x="656" d="M491 859h-28q-10 -27 -26 -38q-14 -10 -32 -10q-27 0 -71 25q-45 24 -79 24q-28 0 -50 -21q-23 -20 -38 -67h27q11 27 27 38q13 10 32 10q25 0 71 -25q45 -24 79 -24q27 0 50 21q23 20 38 67zM680 0v45h-84l-207 589h85v45h-192l-15 -45l-204 -589h-86v-45h142v45h-1 l73 213h274l75 -213h-85v-45h225zM450 303h-243l122 355z" />
<glyph unicode="&#xc4;" horiz-adv-x="656" d="M447 783v64h-64v-64h64zM274 783v64h-64v-64h64zM680 0v45h-84l-207 589h85v45h-192l-15 -45l-204 -589h-86v-45h142v45h-1l73 213h274l75 -213h-85v-45h225zM450 303h-243l122 355z" />
<glyph unicode="&#xc5;" horiz-adv-x="656" d="M420 815q0 38 -27 65t-65 27t-65 -27q-26 -28 -26 -65q0 -38 27 -65q25 -27 64 -27q38 0 65 27t27 65zM390 815q0 -26 -18 -44t-44 -18t-44 18q-17 19 -17 44q0 26 18 44q16 18 43 18q26 0 44 -18t18 -44zM680 0v45h-84l-207 589h85v45h-192l-15 -45l-204 -589h-86v-45 h142v45h-1l73 213h274l75 -213h-85v-45h225zM450 303h-243l122 355z" />
<glyph unicode="&#xc6;" horiz-adv-x="938" d="M893 0v167h-46v-122h-357v280h284v45h-284v264h357h45v45h-669v-45h112q-29 -53 -66 -120.5t-75.5 -138t-75 -138t-65.5 -120t-46.5 -85l-17.5 -32.5h157v45h-79l156 281h211v-281h-113v-45h572zM434 371h-188l145 263h43v-263z" />
<glyph unicode="&#xc7;" horiz-adv-x="750" d="M719 221l-46 27q-40 -110 -109 -161q-68 -48 -162 -48q-125 0 -204 85q-80 86 -80 216q0 132 79 217q78 84 201 84q86 0 160 -48q72 -46 89 -131h47v157h-46v-51q-50 65 -116 93q-69 29 -132 29q-149 0 -244 -98q-94 -97 -94 -252q0 -157 94 -254q77 -80 200 -94l-14 -72 q28 0 45 -12t17 -33q0 -29 -25 -42q-13 -7 -29.5 -11t-36.5 -3l-26 1v-32h14q72 0 113 23q40 22 40 71q0 33 -21 54q-20 21 -52 21l6 33h14q106 0 189 54q82 54 129 177z" />
<glyph unicode="&#xc8;" horiz-adv-x="604" d="M376 739l-100 155h-57l119 -155h38zM559 0v45h-46h-355v280h282v45h-282v264h355v-120h45v165h-543v-45h87v-589v-45h457z" />
<glyph unicode="&#xc9;" horiz-adv-x="604" d="M386 894h-57l-100 -155h38zM559 0v45h-46h-355v280h282v45h-282v264h355v-120h45v165h-543v-45h87v-589v-45h457z" />
<glyph unicode="&#xca;" horiz-adv-x="604" d="M450 743l-119 145h-58l-118 -145h35l112 104l113 -104h35zM559 0v45h-46h-355v280h282v45h-282v264h355v-120h45v165h-543v-45h87v-589v-45h457z" />
<glyph unicode="&#xcb;" horiz-adv-x="604" d="M421 783v64h-64v-64h64zM248 783v64h-64v-64h64zM559 0v45h-46h-355v280h282v45h-282v264h355v-120h45v165h-543v-45h87v-589v-45h457z" />
<glyph unicode="&#xcc;" horiz-adv-x="281" d="M214 739l-100 155h-57l77 -100h-23v-64h56v21l9 -12h38zM254 0v45h-86v589v45h-56v-45v-589h-85v-45h227z" />
<glyph unicode="&#xcd;" horiz-adv-x="281" d="M224 894h-57l-100 -155h38l6 8v-17h56v64h-20zM254 0v45h-86v589v45h-56v-45v-589h-85v-45h227z" />
<glyph unicode="&#xce;" horiz-adv-x="281" d="M288 743l-119 145h-58l-118 -145h35l112 104l113 -104h35zM167 730v64h-56v-64h56zM254 0v45h-86v589v45h-56v-45v-589h-85v-45h227z" />
<glyph unicode="&#xcf;" horiz-adv-x="281" d="M259 783v64h-64v-64h64zM167 730v64h-56v-64h56zM86 783v64h-64v-64h64zM254 0v45h-86v589v45h-56v-45v-589h-85v-45h227z" />
<glyph unicode="&#xd0;" horiz-adv-x="708" d="M661 339q0 151 -89 246q-88 94 -273 94h-291v-43l94 2v-275h-93v-45h93v-273v-45h196q202 0 283 102q80 103 80 237zM605 339q0 -145 -76 -220q-77 -74 -223 -74h-148v273h209v45h-209v271h146q143 0 223 -77q78 -77 78 -218z" />
<glyph unicode="&#xd1;" horiz-adv-x="708" d="M517 859h-28q-10 -27 -26 -38q-14 -10 -32 -10q-27 0 -71 25q-45 24 -79 24q-28 0 -50 -21q-23 -20 -38 -67h27q11 27 27 38q13 10 32 10q25 0 71 -25q45 -24 79 -24q27 0 50 21q23 20 38 67zM698 634v45h-135v-45v-560q-49 78 -98 153.5t-99 149.5q-49 73 -98 148.5 t-98 153.5h-160v-45h91v-589v-45h143v45h-96v573l409 -627h53v643h88z" />
<glyph unicode="&#xd2;" horiz-adv-x="781" d="M464 739l-100 155h-57l119 -155h38zM734 340q0 151 -97 251q-98 99 -245 99q-148 0 -245 -100q-97 -98 -97 -250q0 -151 97 -251q97 -99 245 -99t245 100q97 98 97 250zM678 340q0 -131 -81 -216q-79 -85 -205 -85q-124 0 -205 86q-81 85 -81 215t81 216q81 85 205 85 q125 0 206 -86q80 -86 80 -215z" />
<glyph unicode="&#xd3;" horiz-adv-x="781" d="M474 894h-57l-100 -155h38zM734 340q0 151 -97 251q-98 99 -245 99q-148 0 -245 -100q-97 -98 -97 -250q0 -151 97 -251q97 -99 245 -99t245 100q97 98 97 250zM678 340q0 -131 -81 -216q-79 -85 -205 -85q-124 0 -205 86q-81 85 -81 215t81 216q81 85 205 85 q125 0 206 -86q80 -86 80 -215z" />
<glyph unicode="&#xd4;" horiz-adv-x="781" d="M538 743l-119 145h-58l-118 -145h35l112 104l113 -104h35zM734 340q0 151 -97 251q-98 99 -245 99q-148 0 -245 -100q-97 -98 -97 -250q0 -151 97 -251q97 -99 245 -99t245 100q97 98 97 250zM678 340q0 -131 -81 -216q-79 -85 -205 -85q-124 0 -205 86q-81 85 -81 215 t81 216q81 85 205 85q125 0 206 -86q80 -86 80 -215z" />
<glyph unicode="&#xd5;" horiz-adv-x="781" d="M553 859h-28q-10 -27 -26 -38q-14 -10 -32 -10q-27 0 -71 25q-45 24 -79 24q-28 0 -50 -21q-23 -20 -38 -67h27q11 27 27 38q13 10 32 10q25 0 71 -25q45 -24 79 -24q27 0 50 21q23 20 38 67zM734 340q0 151 -97 251q-98 99 -245 99q-148 0 -245 -100q-97 -98 -97 -250 q0 -151 97 -251q97 -99 245 -99t245 100q97 98 97 250zM678 340q0 -131 -81 -216q-79 -85 -205 -85q-124 0 -205 86q-81 85 -81 215t81 216q81 85 205 85q125 0 206 -86q80 -86 80 -215z" />
<glyph unicode="&#xd6;" horiz-adv-x="781" d="M509 783v64h-64v-64h64zM336 783v64h-64v-64h64zM734 340q0 151 -97 251q-98 99 -245 99q-148 0 -245 -100q-97 -98 -97 -250q0 -151 97 -251q97 -99 245 -99t245 100q97 98 97 250zM678 340q0 -131 -81 -216q-79 -85 -205 -85q-124 0 -205 86q-81 85 -81 215t81 216 q81 85 205 85q125 0 206 -86q80 -86 80 -215z" />
<glyph unicode="&#xd7;" horiz-adv-x="668" d="M573 114l-206 206l206 206l-33 33l-206 -206l-206 206l-33 -33l206 -206l-206 -206l33 -33l206 206l206 -206z" />
<glyph unicode="&#xd8;" horiz-adv-x="781" d="M734 340q0 153 -97 250l-1 1l63 71l-26 23l-62 -71q-86 76 -219 76q-148 0 -245 -100q-97 -98 -97 -250q0 -76 23.5 -138.5t73.5 -112.5l1 -1l-62 -71l26 -23l62 70q86 -74 218 -74q148 0 245 100q97 98 97 250zM678 340q0 -131 -81 -216q-79 -85 -205 -85 q-110 0 -184 65l393 447q77 -85 77 -211zM576 575l-393 -447q-77 85 -77 212q0 130 81 216q81 85 205 85q112 0 184 -66z" />
<glyph unicode="&#xd9;" horiz-adv-x="646" d="M397 739l-100 155h-57l119 -155h38zM642 634v45h-143v-45v-439q0 -78 -45 -117t-132 -39q-83 0 -130 41q-46 39 -46 117v437h86v45h-229v-45h87v-431q0 -104 61 -159q60 -54 172 -54q113 0 172 55q60 55 60 158v431h87z" />
<glyph unicode="&#xda;" horiz-adv-x="646" d="M407 894h-57l-100 -155h38zM642 634v45h-143v-45v-439q0 -78 -45 -117t-132 -39q-83 0 -130 41q-46 39 -46 117v437h86v45h-229v-45h87v-431q0 -104 61 -159q60 -54 172 -54q113 0 172 55q60 55 60 158v431h87z" />
<glyph unicode="&#xdb;" horiz-adv-x="646" d="M471 743l-119 145h-58l-118 -145h35l112 104l113 -104h35zM642 634v45h-143v-45v-439q0 -78 -45 -117t-132 -39q-83 0 -130 41q-46 39 -46 117v437h86v45h-229v-45h87v-431q0 -104 61 -159q60 -54 172 -54q113 0 172 55q60 55 60 158v431h87z" />
<glyph unicode="&#xdc;" horiz-adv-x="646" d="M442 733v64h-64v-64h64zM269 733v64h-64v-64h64zM642 634v45h-143v-45v-439q0 -78 -45 -117t-132 -39q-83 0 -130 41q-46 39 -46 117v437h86v45h-229v-45h87v-431q0 -104 61 -159q60 -54 172 -54q113 0 172 55q60 55 60 158v431h87z" />
<glyph unicode="&#xdd;" horiz-adv-x="604" d="M386 894h-57l-100 -155h38zM622 634v45h-223v-45h88l-177 -279l-176 279h-1l-28 45h-124v-45h88l208 -328v-261h-94v-45h150v45v261l208 328h81z" />
<glyph unicode="&#xde;" d="M533 339q0 94 -62 148q-63 52 -171 52h-138v95h91v45h-237v-45h90v-589h-90v-45h146v45v95h155q98 0 157 54t59 145zM477 333q0 -73 -47 -111q-46 -37 -133 -37h-135v309h135q93 0 137 -38q43 -37 43 -123z" />
<glyph unicode="&#xdf;" horiz-adv-x="615" d="M573 200q0 83 -44 133q-42 49 -113 63q54 16 75 53q20 37 20 74q0 76 -55 122q-56 45 -148 45t-150 -47q-57 -47 -57 -149v-449h-85v-45h137v45v461q0 72 42 108q43 34 112 34q60 0 107 -30q46 -30 46 -91q0 -56 -35 -86q-35 -29 -89 -29h-10v-40q95 0 146 -45 q51 -44 51 -128q0 -65 -38 -115q-36 -49 -101 -49q-21 0 -34 3q-14 1 -24 6v-44l55 -7q91 0 142 61q50 61 50 146z" />
<glyph unicode="&#xe0;" horiz-adv-x="510" d="M329 536l-100 155h-57l119 -155h38zM500 0v45h-79v307q0 68 -45 101t-131 33q-19 0 -40.5 -4.5t-39.5 -10.5t-29.5 -10.5l-11.5 -4.5l13 -31l11 3.5t27 8t34.5 8.5t33.5 4q57 0 92 -23q34 -22 34 -74v-112q-38 21 -75 30q-38 9 -66 9q-80 0 -129 -42q-48 -41 -48 -104 q0 -57 42 -99q41 -41 105 -41q39 0 87 20q45 19 84 54v-67h131zM369 111q-29 -33 -74 -56q-43 -22 -85 -22q-49 0 -78 29q-28 28 -28 67q0 47 35 79t98 32q35 0 70 -12q32 -11 62 -30v-87z" />
<glyph unicode="&#xe1;" horiz-adv-x="510" d="M339 691h-57l-100 -155h38zM500 0v45h-79v307q0 68 -45 101t-131 33q-19 0 -40.5 -4.5t-39.5 -10.5t-29.5 -10.5l-11.5 -4.5l13 -31l11 3.5t27 8t34.5 8.5t33.5 4q57 0 92 -23q34 -22 34 -74v-112q-38 21 -75 30q-38 9 -66 9q-80 0 -129 -42q-48 -41 -48 -104 q0 -57 42 -99q41 -41 105 -41q39 0 87 20q45 19 84 54v-67h131zM369 111q-29 -33 -74 -56q-43 -22 -85 -22q-49 0 -78 29q-28 28 -28 67q0 47 35 79t98 32q35 0 70 -12q32 -11 62 -30v-87z" />
<glyph unicode="&#xe2;" horiz-adv-x="510" d="M403 540l-119 145h-58l-118 -145h35l112 104l113 -104h35zM500 0v45h-79v307q0 68 -45 101t-131 33q-19 0 -40.5 -4.5t-39.5 -10.5t-29.5 -10.5l-11.5 -4.5l13 -31l11 3.5t27 8t34.5 8.5t33.5 4q57 0 92 -23q34 -22 34 -74v-112q-38 21 -75 30q-38 9 -66 9 q-80 0 -129 -42q-48 -41 -48 -104q0 -57 42 -99q41 -41 105 -41q39 0 87 20q45 19 84 54v-67h131zM369 111q-29 -33 -74 -56q-43 -22 -85 -22q-49 0 -78 29q-28 28 -28 67q0 47 35 79t98 32q35 0 70 -12q32 -11 62 -30v-87z" />
<glyph unicode="&#xe3;" horiz-adv-x="510" d="M418 656h-28q-10 -27 -26 -38q-14 -10 -32 -10q-27 0 -71 25q-45 24 -79 24q-28 0 -50 -21q-23 -20 -38 -67h27q11 27 27 38q13 10 32 10q25 0 71 -25q45 -24 79 -24q27 0 50 21q23 20 38 67zM500 0v45h-79v307q0 68 -45 101t-131 33q-19 0 -40.5 -4.5t-39.5 -10.5 t-29.5 -10.5l-11.5 -4.5l13 -31l11 3.5t27 8t34.5 8.5t33.5 4q57 0 92 -23q34 -22 34 -74v-112q-38 21 -75 30q-38 9 -66 9q-80 0 -129 -42q-48 -41 -48 -104q0 -57 42 -99q41 -41 105 -41q39 0 87 20q45 19 84 54v-67h131zM369 111q-29 -33 -74 -56q-43 -22 -85 -22 q-49 0 -78 29q-28 28 -28 67q0 47 35 79t98 32q35 0 70 -12q32 -11 62 -30v-87z" />
<glyph unicode="&#xe4;" horiz-adv-x="510" d="M374 580v64h-64v-64h64zM201 580v64h-64v-64h64zM500 0v45h-79v307q0 68 -45 101t-131 33q-19 0 -40.5 -4.5t-39.5 -10.5t-29.5 -10.5l-11.5 -4.5l13 -31l11 3.5t27 8t34.5 8.5t33.5 4q57 0 92 -23q34 -22 34 -74v-112q-38 21 -75 30q-38 9 -66 9q-80 0 -129 -42 q-48 -41 -48 -104q0 -57 42 -99q41 -41 105 -41q39 0 87 20q45 19 84 54v-67h131zM369 111q-29 -33 -74 -56q-43 -22 -85 -22q-49 0 -78 29q-28 28 -28 67q0 47 35 79t98 32q35 0 70 -12q32 -11 62 -30v-87z" />
<glyph unicode="&#xe5;" horiz-adv-x="510" d="M347 612q0 38 -27 65t-65 27t-65 -27q-26 -28 -26 -65q0 -38 27 -65q25 -27 64 -27q38 0 65 27t27 65zM317 612q0 -26 -18 -44t-44 -18t-44 18q-17 19 -17 44q0 26 18 44q16 18 43 18q26 0 44 -18t18 -44zM500 0v45h-79v307q0 68 -45 101t-131 33q-19 0 -40.5 -4.5 t-39.5 -10.5t-29.5 -10.5l-11.5 -4.5l13 -31l11 3.5t27 8t34.5 8.5t33.5 4q57 0 92 -23q34 -22 34 -74v-112q-38 21 -75 30q-38 9 -66 9q-80 0 -129 -42q-48 -41 -48 -104q0 -57 42 -99q41 -41 105 -41q39 0 87 20q45 19 84 54v-67h131zM369 111q-29 -33 -74 -56 q-43 -22 -85 -22q-49 0 -78 29q-28 28 -28 67q0 47 35 79t98 32q35 0 70 -12q32 -11 62 -30v-87z" />
<glyph unicode="&#xe6;" horiz-adv-x="865" d="M830 225q-6 113 -67 187q-60 74 -158 74q-60 0 -108 -27q-48 -26 -84 -81q-12 54 -54 81t-114 27q-76 0 -119 -30l24 -31q33 24 93 24q56 0 91 -23q33 -21 33 -74v-112q-37 21 -74 30q-36 9 -65 9q-78 0 -126 -42q-48 -41 -48 -104q0 -57 44 -99q44 -41 111 -41 q69 0 118 31q48 31 82 70q38 -57 90 -83q50 -25 109 -25q18 0 40.5 5.5t43 12t34 12l13.5 5.5l-26 38l-11 -5t-27 -10.5t-34 -10.5t-32 -5q-85 0 -140 59q-50 55 -55 138h416zM772 270h-356q11 70 48 113q51 59 130 59q76 0 123 -48q48 -49 55 -124zM367 111 q-28 -33 -73 -56q-46 -22 -84 -22q-47 0 -76 29q-27 28 -27 67q0 47 35 79t96 32q35 0 68 -12q32 -12 61 -30v-87z" />
<glyph unicode="&#xe7;" horiz-adv-x="510" d="M480 128l-42 18q-21 -50 -62 -82q-40 -31 -100 -31q-82 0 -132 56t-50 147t49 147q48 56 126 56q56 0 103 -36q45 -34 48 -110h43v150h-43v-34q-24 37 -63 57q-38 20 -88 20q-99 0 -163 -72q-65 -73 -65 -178q0 -109 65 -180q52 -55 125 -67l-13 -69q28 0 45 -12t17 -33 q0 -29 -25 -42q-13 -7 -29.5 -11t-36.5 -3l-26 1v-32h14q72 0 113 23q40 22 40 71q0 33 -21 54q-20 21 -52 21l6 29h12q71 0 124 37q54 37 81 105z" />
<glyph unicode="&#xe8;" d="M350 536l-100 155h-57l119 -155h38zM518 225q-6 124 -70 192q-65 69 -167 69q-105 0 -173 -71t-68 -179q0 -109 69 -179q69 -71 175 -71q19 0 43 5.5t45 12t35.5 12l14.5 5.5l-12 38l-13 -5t-31 -10.5t-38.5 -10.5t-35.5 -5q-88 0 -144 59q-52 54 -57 138h427zM463 270 h-370q11 71 50 113q53 59 134 59q77 0 127 -48q49 -49 59 -124z" />
<glyph unicode="&#xe9;" d="M360 691h-57l-100 -155h38zM518 225q-6 124 -70 192q-65 69 -167 69q-105 0 -173 -71t-68 -179q0 -109 69 -179q69 -71 175 -71q19 0 43 5.5t45 12t35.5 12l14.5 5.5l-12 38l-13 -5t-31 -10.5t-38.5 -10.5t-35.5 -5q-88 0 -144 59q-52 54 -57 138h427zM463 270h-370 q11 71 50 113q53 59 134 59q77 0 127 -48q49 -49 59 -124z" />
<glyph unicode="&#xea;" d="M424 540l-119 145h-58l-118 -145h35l112 104l113 -104h35zM518 225q-6 124 -70 192q-65 69 -167 69q-105 0 -173 -71t-68 -179q0 -109 69 -179q69 -71 175 -71q19 0 43 5.5t45 12t35.5 12l14.5 5.5l-12 38l-13 -5t-31 -10.5t-38.5 -10.5t-35.5 -5q-88 0 -144 59 q-52 54 -57 138h427zM463 270h-370q11 71 50 113q53 59 134 59q77 0 127 -48q49 -49 59 -124z" />
<glyph unicode="&#xeb;" d="M395 580v64h-64v-64h64zM222 580v64h-64v-64h64zM518 225q-6 124 -70 192q-65 69 -167 69q-105 0 -173 -71t-68 -179q0 -109 69 -179q69 -71 175 -71q19 0 43 5.5t45 12t35.5 12l14.5 5.5l-12 38l-13 -5t-31 -10.5t-38.5 -10.5t-35.5 -5q-88 0 -144 59q-52 54 -57 138 h427zM463 270h-370q11 71 50 113q53 59 134 59q77 0 127 -48q49 -49 59 -124z" />
<glyph unicode="&#xec;" horiz-adv-x="250" d="M199 536l-100 155h-57l119 -155h38zM241 0v45h-81v428h-135v-45h83v-383h-83v-45h216z" />
<glyph unicode="&#xed;" horiz-adv-x="250" d="M209 691h-57l-100 -155h38zM241 0v45h-81v428h-135v-45h83v-383h-83v-45h216z" />
<glyph unicode="&#xee;" horiz-adv-x="250" d="M273 540l-119 145h-58l-118 -145h35l112 104l113 -104h35zM241 0v45h-81v428h-135v-45h83v-383h-83v-45h216z" />
<glyph unicode="&#xef;" horiz-adv-x="250" d="M244 580v64h-64v-64h64zM71 580v64h-64v-64h64zM241 0v45h-81v428h-135v-45h83v-383h-83v-45h216z" />
<glyph unicode="&#xf0;" horiz-adv-x="563" d="M518 285q0 133 -77 242q-13 19 -31.5 38.5t-42.5 41.5l126 60l-37 26l-124 -59q-41 31 -109 59l-54 -27q76 -34 110 -57l-131 -62l37 -26l131 62q17 -14 29.5 -25.5t20.5 -19.5q61 -68 78 -129q-34 39 -76 58q-39 19 -86 19q-102 0 -169 -73t-67 -180q0 -106 68 -177 t171 -71q107 0 170 83q63 82 63 217zM464 246q0 -92 -52 -153t-131 -61q-78 0 -130 58t-52 143q0 89 51 148q49 58 132 58q78 0 131 -56q51 -56 51 -137z" />
<glyph unicode="&#xf1;" horiz-adv-x="531" d="M428 656h-28q-10 -27 -26 -38q-14 -10 -32 -10q-27 0 -71 25q-45 24 -79 24q-28 0 -50 -21q-23 -20 -38 -67h27q11 27 27 38q13 10 32 10q25 0 71 -25q45 -24 79 -24q27 0 50 21q23 20 38 67zM528 0v45h-75v317q0 56 -35 91q-35 33 -91 33q-49 0 -95 -21t-86 -56v64h-138 v-45h86v-383v-45h129v45h-77v312q35 33 84 58q48 24 90 24q39 0 60 -22q21 -21 21 -61v-311v-45h127z" />
<glyph unicode="&#xf2;" d="M350 536l-100 155h-57l119 -155h38zM513 236q0 105 -68 178q-68 72 -168 72q-102 0 -169 -72q-67 -71 -67 -178q0 -105 68 -178q67 -72 168 -72q100 0 169 72q67 73 67 178zM460 236q0 -88 -52 -146q-51 -57 -131 -57t-132 58q-51 57 -51 145t52 146q51 57 131 57 t132 -58q51 -57 51 -145z" />
<glyph unicode="&#xf3;" d="M360 691h-57l-100 -155h38zM513 236q0 105 -68 178q-68 72 -168 72q-102 0 -169 -72q-67 -71 -67 -178q0 -105 68 -178q67 -72 168 -72q100 0 169 72q67 73 67 178zM460 236q0 -88 -52 -146q-51 -57 -131 -57t-132 58q-51 57 -51 145t52 146q51 57 131 57t132 -58 q51 -57 51 -145z" />
<glyph unicode="&#xf4;" d="M424 540l-119 145h-58l-118 -145h35l112 104l113 -104h35zM513 236q0 105 -68 178q-68 72 -168 72q-102 0 -169 -72q-67 -71 -67 -178q0 -105 68 -178q67 -72 168 -72q100 0 169 72q67 73 67 178zM460 236q0 -88 -52 -146q-51 -57 -131 -57t-132 58q-51 57 -51 145 t52 146q51 57 131 57t132 -58q51 -57 51 -145z" />
<glyph unicode="&#xf5;" d="M439 656h-28q-10 -27 -26 -38q-14 -10 -32 -10q-27 0 -71 25q-45 24 -79 24q-28 0 -50 -21q-23 -20 -38 -67h27q11 27 27 38q13 10 32 10q25 0 71 -25q45 -24 79 -24q27 0 50 21q23 20 38 67zM513 236q0 105 -68 178q-68 72 -168 72q-102 0 -169 -72q-67 -71 -67 -178 q0 -105 68 -178q67 -72 168 -72q100 0 169 72q67 73 67 178zM460 236q0 -88 -52 -146q-51 -57 -131 -57t-132 58q-51 57 -51 145t52 146q51 57 131 57t132 -58q51 -57 51 -145z" />
<glyph unicode="&#xf6;" d="M395 580v64h-64v-64h64zM222 580v64h-64v-64h64zM513 236q0 105 -68 178q-68 72 -168 72q-102 0 -169 -72q-67 -71 -67 -178q0 -105 68 -178q67 -72 168 -72q100 0 169 72q67 73 67 178zM460 236q0 -88 -52 -146q-51 -57 -131 -57t-132 58q-51 57 -51 145t52 146 q51 57 131 57t132 -58q51 -57 51 -145z" />
<glyph unicode="&#xf7;" horiz-adv-x="668" d="M367 492v64h-56v-64h56zM595 298v44h-524v-44h524zM367 57v64h-56v-64h56z" />
<glyph unicode="&#xf8;" d="M519 489l-26 23l-68 -79q-59 53 -148 53q-102 0 -169 -72q-67 -71 -67 -178q0 -103 63 -173l-68 -79l26 -22l66 77q61 -53 149 -53q100 0 169 72q67 73 67 178q0 102 -63 173zM393 396l-256 -296q-43 53 -43 136q0 88 52 146q51 57 131 57q72 0 116 -43zM460 236 q0 -88 -52 -146q-51 -57 -131 -57q-71 0 -117 42l257 296q43 -52 43 -135z" />
<glyph unicode="&#xf9;" horiz-adv-x="542" d="M345 536l-100 155h-57l119 -155h38zM534 0v45h-82v428h-52v-45v-303q-35 -35 -82 -60t-92 -25q-37 0 -58 21q-20 22 -20 59v353h-135v-45h83v-317q0 -56 33 -87q31 -31 88 -31q54 0 101 22q23 11 44 23.5t38 28.5v-67h134z" />
<glyph unicode="&#xfa;" horiz-adv-x="542" d="M355 691h-57l-100 -155h38zM534 0v45h-82v428h-52v-45v-303q-35 -35 -82 -60t-92 -25q-37 0 -58 21q-20 22 -20 59v353h-135v-45h83v-317q0 -56 33 -87q31 -31 88 -31q54 0 101 22q23 11 44 23.5t38 28.5v-67h134z" />
<glyph unicode="&#xfb;" horiz-adv-x="542" d="M419 540l-119 145h-58l-118 -145h35l112 104l113 -104h35zM534 0v45h-82v428h-52v-45v-303q-35 -35 -82 -60t-92 -25q-37 0 -58 21q-20 22 -20 59v353h-135v-45h83v-317q0 -56 33 -87q31 -31 88 -31q54 0 101 22q23 11 44 23.5t38 28.5v-67h134z" />
<glyph unicode="&#xfc;" horiz-adv-x="542" d="M390 580v64h-64v-64h64zM217 580v64h-64v-64h64zM534 0v45h-82v428h-52v-45v-303q-35 -35 -82 -60t-92 -25q-37 0 -58 21q-20 22 -20 59v353h-135v-45h83v-317q0 -56 33 -87q31 -31 88 -31q54 0 101 22q23 11 44 23.5t38 28.5v-67h134z" />
<glyph unicode="&#xfd;" horiz-adv-x="531" d="M349 691h-57l-100 -155h38zM530 428v45h-197v-45h75l-133 -352l-144 352l-17 45h-112v-45h78l170 -415l-80 -225h46l242 640h72z" />
<glyph unicode="&#xfe;" horiz-adv-x="594" d="M551 239q0 106 -66 177q-64 70 -164 70q-50 0 -98 -24q-47 -22 -87 -85v302h-138v-45h86v-801h-86v-45h137v45h1v263q34 -64 83 -87q48 -23 99 -23q103 0 168 71t65 182zM503 236q0 -89 -51 -146t-133 -57q-80 0 -132 57q-53 58 -53 148q0 92 52 147q53 56 130 56 q83 0 135 -58q52 -56 52 -147z" />
<glyph unicode="&#xff;" horiz-adv-x="531" d="M384 580v64h-64v-64h64zM211 580v64h-64v-64h64zM530 428v45h-197v-45h75l-133 -352l-144 352l-17 45h-112v-45h78l170 -415l-80 -225h46l242 640h72z" />
<glyph unicode="&#x152;" horiz-adv-x="1052" d="M993 0v45h-46h-355v280h282v45h-282v264h355v-120h45v165h-585q-163 0 -260 -91q-97 -90 -97 -243q0 -162 98 -254q97 -91 270 -91h575zM536 45h-116q-147 0 -230 76q-84 76 -84 213q0 147 82 223q83 77 235 77h113v-589z" />
<glyph unicode="&#x153;" horiz-adv-x="927" d="M893 225q-6 112 -66 187q-60 74 -157 74q-66 0 -122 -35q-54 -32 -85 -98q-22 61 -78 97q-54 36 -124 36q-95 0 -159 -72q-63 -72 -63 -178q0 -107 64 -178q63 -72 158 -72q69 0 123 33q54 32 79 92q17 -32 39.5 -55.5t48.5 -39.5q52 -30 122 -30q71 0 129 35l-24 38 q-46 -31 -102 -31q-82 0 -135 59q-49 54 -54 138h406zM838 270h-349q11 71 47 113q50 59 126 59q72 0 119 -48t57 -124zM437 236q0 -88 -49 -146q-48 -57 -123 -57q-76 0 -125 58q-48 57 -48 145t49 146q48 57 124 57q75 0 124 -58q48 -57 48 -145z" />
<glyph unicode="&#x160;" horiz-adv-x="542" d="M419 889h-35l-113 -104l-112 104h-35l118 -145h58zM498 178q0 81 -50 128t-187 80q-75 18 -120 48q-44 30 -44 88q0 50 41 85q40 34 102 34q37 0 69 -5.5t58 -25.5q13 -10 21.5 -24t14 -28.5t7.5 -27.5t2 -21v-13h53q0 2 -1 15t-4 33t-10 34t-13.5 23.5t-17.5 21.5 q-18 20 -36 30t-41 21q-23 10 -48 13t-51 3q-83 0 -141 -48q-57 -48 -57 -118q0 -78 49 -121q49 -45 155 -70t150 -59q43 -33 43 -90q0 -64 -46 -104q-47 -41 -115 -41q-80 0 -136 52q-56 51 -56 118v24h-46v-233h46v91q16 -25 36.5 -44t46.5 -32q51 -25 108 -25 q92 0 155 54t63 134z" />
<glyph unicode="&#x161;" horiz-adv-x="448" d="M372 686h-35l-113 -104l-112 104h-35l118 -145h58zM409 127q0 57 -33 89q-32 31 -138 51q-75 14 -101 31q-26 18 -26 57q0 37 28 62q28 26 75 26q55 0 92 -34q37 -33 38 -85h44v135h-44v-37q-25 33 -58 49q-32 15 -73 15q-63 0 -106 -36t-43 -97q0 -62 39 -90 q37 -28 123 -43q79 -13 108 -35q29 -20 29 -63q0 -41 -38 -70q-38 -27 -90 -27q-68 0 -109 37t-42 102h-46v-164h46v60q27 -42 65 -59q36 -16 81 -16q81 0 131 39q48 37 48 103z" />
<glyph unicode="&#x178;" horiz-adv-x="604" d="M421 783v64h-64v-64h64zM248 783v64h-64v-64h64zM622 634v45h-223v-45h88l-177 -279l-176 279h-1l-28 45h-124v-45h88l208 -328v-261h-94v-45h150v45v261l208 328h81z" />
<glyph unicode="&#x192;" d="M538 712q-23 8 -43 12q-11 2 -22 3t-24 1q-52 0 -86 -29q-16 -14 -26.5 -34.5t-17.5 -46.5l-24 -99h-82l-9 -45h82l-124 -573q-6 -29 -25 -45q-18 -15 -51 -15q-20 0 -39 4q-11 2 -18.5 3.5t-12.5 3.5l-11 -49q8 -2 17.5 -5t20.5 -5q25 -5 43 -5q66 0 96 30t45 100 l121 556h108l10 45h-109l20 86q9 38 28 54q18 15 48 15q13 0 24.5 -1t21.5 -3q17 -3 29 -6z" />
<glyph unicode="&#x2c6;" horiz-adv-x="333" d="M314 540l-119 145h-58l-118 -145h35l112 104l113 -104h35z" />
<glyph unicode="&#x2dc;" horiz-adv-x="333" d="M329 656h-28q-10 -27 -26 -38q-14 -10 -32 -10q-27 0 -71 25q-45 24 -79 24q-28 0 -50 -21q-23 -20 -38 -67h27q11 27 27 38q13 10 32 10q25 0 71 -25q45 -24 79 -24q27 0 50 21q23 20 38 67z" />
<glyph unicode="&#x2013;" horiz-adv-x="500" d="M500 224v53h-500v-53h500z" />
<glyph unicode="&#x2014;" horiz-adv-x="1000" d="M1000 224v53h-1000v-53h1000z" />
<glyph unicode="&#x2018;" horiz-adv-x="250" d="M162 643v36q-33 -2 -49 -30q-16 -26 -16 -82v-107h56v93h-25q0 53 7 71q6 19 27 19z" />
<glyph unicode="&#x2019;" horiz-adv-x="250" d="M153 572v107h-56v-93h25q0 -53 -7 -71q-6 -19 -27 -19v-36q33 2 49 30q16 29 16 82z" />
<glyph unicode="&#x201a;" horiz-adv-x="250" d="M153 -14v107h-56v-93h25q0 -53 -7 -71q-6 -19 -27 -19v-36q31 1 49 30q16 29 16 82z" />
<glyph unicode="&#x201c;" horiz-adv-x="479" d="M389 643v36q-33 -2 -49 -30q-16 -26 -16 -82v-107h56v93h-25q0 53 7 71q6 19 27 19zM155 643v36q-33 -2 -49 -30q-16 -26 -16 -82v-107h56v93h-25q0 53 7 71q6 19 27 19z" />
<glyph unicode="&#x201d;" horiz-adv-x="479" d="M389 572v107h-56v-93h25q0 -53 -7 -71q-6 -19 -27 -19v-36q31 1 49 30q16 29 16 82zM155 572v107h-56v-93h25q0 -53 -7 -71q-6 -19 -27 -19v-36q31 1 49 30q16 29 16 82z" />
<glyph unicode="&#x201e;" horiz-adv-x="479" d="M391 -14v107h-56v-93h25q0 -53 -7 -71q-6 -19 -27 -19v-36q31 1 49 30q16 29 16 82zM153 -14v107h-56v-93h25q0 -53 -7 -71q-6 -19 -27 -19v-36q31 1 49 30q16 29 16 82z" />
<glyph unicode="&#x2020;" horiz-adv-x="469" d="M458 398v62q-45 -1 -72 -2.5t-36 -5.5q-15 -7 -102 -10q3 109 10 124q5 14 7 113h-58q0 -99 7 -114q5 -14 10 -123q-88 3 -103 10q-8 4 -35 5.5t-73 2.5v-62q93 0 108 7q8 4 34 6.5t69 4.5q0 -44 -3 -69q-2 -24 -15 -57q0 -85 6 -227q3 -72 6 -137t6 -126h24l18 490 q-7 17 -11 31t-5 27q-1 12 -1.5 29t-0.5 39q43 -2 68.5 -4.5t34.5 -6.5q15 -7 107 -7z" />
<glyph unicode="&#x2021;" horiz-adv-x="490" d="M468 4v62q-45 -1 -72 -2.5t-36 -5.5q-15 -7 -102 -10q1 26 1.5 49.5t2.5 45.5q3 45 27 97q-23 50 -27 95q-2 23 -3 46t-1 47q43 -2 68.5 -4.5t34.5 -6.5q15 -7 107 -7v62q-45 -1 -72 -2.5t-36 -5.5q-15 -7 -102 -10q4 88 11 104q5 17 5 121h-56q0 -106 6 -121 q2 -8 5 -33.5t5 -70.5q-88 3 -103 10q-8 4 -35 5.5t-73 2.5v-62q93 0 108 7q8 4 34 6.5t69 4.5q-1 -24 -2 -47.5t-3 -46.5t-8.5 -46t-17.5 -48q23 -54 26 -97q2 -22 3 -45.5t2 -49.5q-88 3 -103 10q-8 4 -35 5.5t-73 2.5v-62q93 0 108 7q8 4 34 6.5t69 4.5q-4 -91 -11 -106 q-5 -15 -5 -119h56q0 105 -6 119q-2 7 -5 33.5t-5 72.5q43 -2 68.5 -4.5t34.5 -6.5q15 -7 107 -7z" />
<glyph unicode="&#x2022;" horiz-adv-x="500" d="M330 304q0 33 -24 57q-23 23 -57 23q-33 0 -56 -23q-24 -24 -24 -57q0 -35 24 -57q22 -24 57 -24q33 0 56 24q24 22 24 57z" />
<glyph unicode="&#x2026;" horiz-adv-x="1000" d="M866 0v64h-56v-64h56zM533 0v64h-56v-64h56zM200 0v64h-56v-64h56z" />
<glyph unicode="&#x2030;" horiz-adv-x="1000" d="M976 168q0 88 -34 135q-33 47 -101 47q-67 0 -101 -48q-34 -46 -34 -134q0 -89 34 -135q33 -47 101 -47q67 0 102 47q33 46 33 135zM936 168q0 -73 -23 -114q-22 -40 -71 -40q-47 0 -71 40q-23 41 -23 113t24 114q23 41 69 41q48 0 72 -41q23 -41 23 -113zM637 168 q0 88 -34 135q-33 47 -101 47q-67 0 -101 -48q-34 -46 -34 -134q0 -89 34 -135q33 -47 101 -47q67 0 102 47q33 46 33 135zM597 168q0 -73 -23 -114q-22 -40 -71 -40q-47 0 -71 40q-23 41 -23 113t24 114q23 41 69 41q48 0 72 -41q23 -41 23 -113zM588 679h-20h-14h-337 q-25 11 -57 11q-66 0 -101 -47q-34 -46 -34 -134q0 -89 33 -135q33 -47 102 -47q67 0 102 47q33 46 33 135q0 88 -34 134q-10 14 -20 21h302l-467 -664h34zM255 509q0 -74 -24 -114q-22 -40 -70 -40t-71 41t-23 112q0 72 24 113q23 41 69 41q48 0 72 -41q23 -41 23 -112z " />
<glyph unicode="&#x2039;" horiz-adv-x="229" d="M224 0l-152 239l152 239h-55l-153 -239l153 -239h55z" />
<glyph unicode="&#x203a;" horiz-adv-x="229" d="M213 239l-153 239h-55l152 -239l-152 -239h55z" />
<glyph unicode="&#x2122;" horiz-adv-x="938" d="M823 280v399h-75l-103 -323l-100 323h-76v-399h46v361l112 -361h34l118 361v-361h44zM424 636v43h-311v-43h134v-356h44v356h133z" />
<glyph unicode="&#xe000;" horiz-adv-x="475" d="M0 475h475v-475h-475v475z" />
<glyph unicode="&#xe001;" horiz-adv-x="667" d="M595 183v44h-276l73 186h203v44h-186l47 122h-44l-47 -122h-294v-44h277l-73 -186h-204v-44h187l-47 -122h44l47 122h293z" />
<glyph unicode="&#xe002;" horiz-adv-x="713" d="M689 264q0 60 -45 101q-44 39 -97 39q-43 0 -81 -19q-19 -10 -46.5 -31t-62.5 -55q-35 34 -62.5 55t-47.5 31q-37 19 -80 19q-54 0 -98 -40q-44 -39 -44 -100t45 -101q43 -39 97 -39q33 0 75 18q41 18 115 87q74 -69 115 -87q42 -18 75 -18q54 0 98 40q44 39 44 100z M638 264q0 -41 -25 -65q-24 -24 -66 -24q-45 0 -82 27q-19 13 -36 28.5t-34 33.5q32 35 71 63q38 26 81 26q41 0 67 -29q24 -29 24 -60zM319 264q-32 -35 -71 -63q-38 -26 -81 -26q-42 0 -67 24q-24 24 -24 65q0 33 25 61q24 28 66 28q44 0 82 -27q19 -13 36 -28.5t34 -33.5 z" />
<glyph unicode="&#xe003;" horiz-adv-x="667" d="M595 117v50l-463 193l463 193v50l-524 -223v-40zM595 0v35h-524v-35h524z" />
<glyph unicode="&#xe004;" horiz-adv-x="667" d="M596 340v40l-524 223v-50l462 -193l-462 -193v-50zM596 0v35h-524v-35h524z" />
<glyph unicode="&#xe005;" horiz-adv-x="494" d="M462 393q0 158 -78 257t-188 99q-40 0 -75 -11q-16 -5 -30 -10.5t-26 -10.5l39 -50q13 7 26 12.5t27 10.5q24 10 61 10q79 0 124 -71q43 -72 43 -184q0 -25 -3 -53q-1 -14 -3 -28.5t-5 -29.5q-22 19 -40.5 32t-35.5 21q-32 15 -74 15q-82 0 -140 -67q-58 -65 -58 -159 q0 -96 61 -147q62 -50 128 -50q123 0 185 133t62 281zM366 299q-18 -150 -58 -219q-41 -71 -106 -71q-48 0 -69 41q-21 40 -21 98q0 99 46 157t100 58q40 0 66 -20q27 -20 42 -44z" />
<glyph unicode="&#xe006;" horiz-adv-x="713" d="M695 116h-23q-29 -71 -54 -92q-26 -21 -81 -21h-371l294 339l-273 358h263q88 0 114 -30q12 -14 22 -35t17 -49h20l-6 159h-497l-104 7l347 -454l-349 -398l58 3h503q20 0 39 -4q10 -2 19.5 -3.5t18.5 -3.5q4 29 8 56t9 53q5 25 11.5 54t14.5 61z" />
<glyph unicode="&#xe007;" horiz-adv-x="823" d="M803 -101v23q-58 0 -78 20q-19 19 -19 61v626q0 52 24 76q25 23 70 23v23h-773v-23q45 0 71 -24q24 -23 24 -75v-626q0 -43 -19 -62q-18 -19 -78 -19v-23h307v23q-59 1 -78 21q-19 18 -19 60v693h358v-693q0 -43 -19 -62t-77 -19v-23h306z" />
<glyph unicode="&#xe008;" horiz-adv-x="549" d="M530 151h-22q0 -36 -18 -55q-17 -20 -41 -20q-21 0 -43 21t-22 69q0 38 3 112q3 73 9 123h126v86h-373q-56 0 -88 -44t-51 -105h17q20 36 41 50q23 13 46 13h47l-29 -229q-3 -23 -16 -43q-6 -11 -14.5 -21.5t-19.5 -21.5t-18 -24q-7 -11 -7 -27q0 -22 16 -38t38 -16 q29 0 44 21t21 48l46 351h113q-10 -89 -15 -146q-2 -28 -3.5 -53.5t-1.5 -49.5q0 -82 28 -125t68 -43q47 0 82 45q36 46 37 122z" />
<glyph unicode="&#xe009;" horiz-adv-x="274" d="M291 860q0 29 -22 42q-22 14 -44 14q-69 0 -87 -110t-18 -323q0 -253 3 -314q3 -62 3 -95q0 -58 -8 -85q-6 -25 -18 -25q-9 0 -23 17q-13 16 -31 16q-17 0 -30 -13q-14 -14 -14 -31q0 -28 21 -44t39 -16q80 0 105 121q12 61 18.5 156.5t6.5 228.5q0 70 -3 135.5t-8 126.5 t-7.5 100.5t-2.5 56.5q0 8 4 15t14 7q12 0 23 -12q10 -12 28 -12q24 0 38 15q13 15 13 29z" />
<glyph unicode="&#xe00a;" horiz-adv-x="768" d="M736 0v162h-15q-9 -34 -20 -49q-11 -12 -46 -12h-158l2 28q104 24 161 102q56 77 56 168q0 136 -99 213q-97 76 -232 76t-233 -77t-98 -212q0 -103 59 -176q59 -72 158 -94l2 -28h-158q-34 0 -46 12q-11 13 -20 49h-15v-162h295l-16 152q-61 17 -101 78q-41 62 -41 172 q0 126 59 191q57 63 155 63q97 0 156 -65q58 -64 58 -189q0 -111 -43 -172q-44 -60 -99 -78l-16 -152h295z" />
<glyph unicode="&#xe00b;" horiz-adv-x="549" d="M515 912l-35 5l-127 -798l-197 403l-146 -72l16 -33l96 47l243 -502z" />
<glyph unicode="&#xe00c;" horiz-adv-x="667" d="M553 470l-40 13q-19 -27 -45 -40q-26 -14 -55 -14q-18 0 -104 26q-84 26 -116 26q-41 0 -75 -18q-37 -19 -67 -61l40 -16q24 33 48 47q20 13 51 13q26 0 110 -28q85 -27 116 -27q38 0 77 21q38 19 60 58zM553 240l-40 13q-19 -27 -45 -40q-26 -14 -55 -14q-18 0 -104 26 q-84 26 -116 26q-41 0 -75 -18q-37 -19 -67 -61l40 -16q24 33 48 47q20 13 51 13q26 0 110 -28q85 -27 116 -27q38 0 77 21q38 19 60 58z" />
<glyph unicode="&#xe00d;" horiz-adv-x="612" d="M608 0l-282 688l-320 -688h602zM484 49h-412l218 468z" />
<glyph unicode="&#xe00e;" horiz-adv-x="494" d="M466 377l-194 368h-60l-194 -368l194 -377h60zM406 377l-164 -323l-164 323l164 314z" />
<glyph unicode="&#xe00f;" horiz-adv-x="531" d="M532 513v166h-429v-45v-443h-62v-45h62v-101h-88v-45h144v45v101h62v45h-62v136l250 1v44h-250v262h328v-121h45z" />
<glyph unicode="&#xe010;" horiz-adv-x="792" d="M536 872h-42q-16 -36 -44 -54q-26 -17 -58 -17t-59 18q-26 17 -44 53h-42q20 -56 59 -86q40 -32 86 -32q45 0 86 32q40 31 58 86zM738 306h-338v-45h280q-14 -106 -92 -164q-79 -58 -184 -58q-131 0 -215 85q-83 85 -83 216t80 217q79 84 205 84q86 0 161 -48 q76 -49 101 -136h45v172h-45v-67q-44 59 -114 94q-71 34 -149 34q-146 0 -243 -100q-97 -98 -97 -250q0 -155 99 -252q100 -98 254 -98q146 0 241 86q92 85 94 230z" />
<glyph unicode="&#xe011;" horiz-adv-x="594" d="M421 669h-42q-16 -36 -44 -54q-26 -17 -58 -17t-59 18q-26 17 -44 53h-42q20 -56 59 -86q40 -32 86 -32q45 0 86 32q40 31 58 86zM601 428v45h-139v-103q-45 69 -92 93q-48 23 -96 23q-98 0 -167 -74q-68 -74 -68 -180q0 -103 67 -171q68 -68 167 -68q53 0 105 26 q51 26 84 85v-120q0 -77 -51 -119t-132 -42q-12 0 -29 2.5t-32 5.5t-26 5.5l-11 2.5l-12 -45q2 -1 18.5 -5t42 -8.5t44.5 -4.5q106 0 173 58t67 155v439h87zM462 236q0 -85 -54 -142q-53 -57 -132 -57q-80 0 -133 56q-51 55 -51 143q0 85 53 146q53 59 131 59q76 0 132 -60 q54 -60 54 -145z" />
<glyph unicode="&#xe012;" horiz-adv-x="281" d="M167 730v64h-56v-64h56zM254 0v45h-86v589v45h-56v-45v-589h-85v-45h227z" />
<glyph unicode="&#xe013;" horiz-adv-x="542" d="M498 178q0 81 -50 128t-187 80q-75 18 -120 48q-44 30 -44 88q0 50 41 85q40 34 102 34q37 0 69 -5.5t58 -25.5q13 -10 21.5 -24t14 -28.5t7.5 -27.5t2 -21v-13h53q0 2 -1 15t-4 33t-10 34t-13.5 23.5t-17.5 21.5q-18 20 -36 30t-41 21q-23 10 -48 13t-51 3 q-83 0 -141 -48q-57 -48 -57 -118q0 -78 49 -121q49 -45 155 -70t150 -59q43 -33 43 -90q0 -64 -46 -104q-47 -41 -115 -41q-80 0 -136 52q-56 51 -56 118v24h-46v-233h46v91q16 -25 36.5 -44t46.5 -32q44 -21 89 -24l-14 -71q28 0 45 -12t17 -33q0 -29 -25 -42 q-13 -7 -29.5 -11t-36.5 -3l-26 1v-32h14q72 0 113 23q40 22 40 71q0 33 -21 54q-20 21 -52 21l6 33q86 5 143 54q63 54 63 134z" />
<glyph unicode="&#xe014;" horiz-adv-x="448" d="M409 127q0 57 -33 89q-32 31 -138 51q-75 14 -101 31q-26 18 -26 57q0 37 28 62q28 26 75 26q55 0 92 -34q37 -33 38 -85h44v135h-44v-37q-25 33 -58 49q-32 15 -73 15q-63 0 -106 -36t-43 -97q0 -62 39 -90q37 -28 123 -43q79 -13 108 -35q29 -20 29 -63q0 -41 -38 -70 q-38 -27 -90 -27q-68 0 -109 37t-42 102h-46v-164h46v60q27 -41 65 -59q30 -14 66 -15l-13 -66q28 0 45 -12t17 -33q0 -29 -25 -42q-13 -7 -29.5 -11t-36.5 -3l-26 1v-32h14q72 0 113 23q40 22 40 71q0 33 -21 54q-20 21 -52 21l6 28q71 5 114 39q48 37 48 103z" />
<glyph unicode="&#xe015;" horiz-adv-x="750" d="M485 894h-57l-100 -155h38zM719 221l-46 27q-40 -110 -109 -161q-68 -48 -162 -48q-125 0 -204 85q-80 86 -80 216q0 132 79 217q78 84 201 84q86 0 160 -48q72 -46 89 -131h47v157h-46v-51q-50 65 -116 93q-69 29 -132 29q-149 0 -244 -98q-94 -97 -94 -252 q0 -157 94 -254q93 -96 245 -96q106 0 189 54q82 54 129 177z" />
<glyph unicode="&#xe016;" horiz-adv-x="510" d="M350 691h-57l-100 -155h38zM480 128l-42 18q-21 -50 -62 -82q-40 -31 -100 -31q-82 0 -132 56t-50 147t49 147q48 56 126 56q56 0 103 -36q45 -34 48 -110h43v150h-43v-34q-24 37 -63 57q-38 20 -88 20q-99 0 -163 -72q-65 -73 -65 -178q0 -109 65 -180q64 -70 169 -70 q71 0 124 37q54 37 81 105z" />
<glyph unicode="&#xe017;" horiz-adv-x="750" d="M549 889h-35l-113 -104l-112 104h-35l118 -145h58zM719 221l-46 27q-40 -110 -109 -161q-68 -48 -162 -48q-125 0 -204 85q-80 86 -80 216q0 132 79 217q78 84 201 84q86 0 160 -48q72 -46 89 -131h47v157h-46v-51q-50 65 -116 93q-69 29 -132 29q-149 0 -244 -98 q-94 -97 -94 -252q0 -157 94 -254q93 -96 245 -96q106 0 189 54q82 54 129 177z" />
<glyph unicode="&#xe018;" horiz-adv-x="510" d="M414 686h-35l-113 -104l-112 104h-35l118 -145h58zM480 128l-42 18q-21 -50 -62 -82q-40 -31 -100 -31q-82 0 -132 56t-50 147t49 147q48 56 126 56q56 0 103 -36q45 -34 48 -110h43v150h-43v-34q-24 37 -63 57q-38 20 -88 20q-99 0 -163 -72q-65 -73 -65 -178 q0 -109 65 -180q64 -70 169 -70q71 0 124 37q54 37 81 105z" />
<glyph unicode="&#xe019;" horiz-adv-x="594" d="M591 0v45h-86v486h58v42h-58v106h-51v-45h-1v-61h-143v-42h143v-156q-38 62 -86 87q-50 24 -100 24q-100 0 -166 -71q-65 -71 -65 -179q0 -104 67 -174q67 -69 167 -69q51 0 99 23q46 22 84 78v-94h138zM454 239q0 -88 -52 -146q-51 -57 -132 -57q-78 0 -132 58 q-53 59 -53 142q0 87 53 148q51 59 130 59q78 0 132 -59t54 -145z" />
<glyph unicode="&#xe01a;" horiz-adv-x="667" d="M565 142l-64 63q23 31 37 64q12 33 12 72q0 40 -13 72t-36 64l64 63l-32 32l-63 -64q-31 23 -64 37q-33 12 -72 12q-40 0 -72 -13t-64 -36l-62 64l-32 -32l64 -63q-24 -30 -38 -64q-12 -33 -12 -72q0 -40 13 -72t36 -64l-63 -63l31 -32l63 64q31 -23 64 -37 q33 -12 72 -12q40 0 72 13t64 36l63 -64zM503 341q0 -70 -50 -120q-49 -49 -119 -49t-120 50q-49 49 -49 119t50 120q49 49 119 49t120 -50q49 -49 49 -119z" />
<glyph unicode="&#xe01b;" horiz-adv-x="656" d="M489 803v29h-321v-29h321zM680 0v45h-84l-207 589h85v45h-192l-15 -45l-204 -589h-86v-45h142v45h-1l73 213h274l75 -213h-85v-45h225zM450 303h-243l122 355z" />
<glyph unicode="&#xe01c;" horiz-adv-x="510" d="M416 600v29h-321v-29h321zM500 0v45h-79v307q0 68 -45 101t-131 33q-19 0 -40.5 -4.5t-39.5 -10.5t-29.5 -10.5l-11.5 -4.5l13 -31l11 3.5t27 8t34.5 8.5t33.5 4q57 0 92 -23q34 -22 34 -74v-112q-38 21 -75 30q-38 9 -66 9q-80 0 -129 -42q-48 -41 -48 -104 q0 -57 42 -99q41 -41 105 -41q39 0 87 20q45 19 84 54v-67h131zM369 111q-29 -33 -74 -56q-43 -22 -85 -22q-49 0 -78 29q-28 28 -28 67q0 47 35 79t98 32q35 0 70 -12q32 -11 62 -30v-87z" />
<glyph unicode="&#xe01d;" horiz-adv-x="656" d="M473 872h-42q-16 -36 -44 -54q-26 -17 -58 -17t-59 18q-26 17 -44 53h-42q20 -56 59 -86q40 -32 86 -32q45 0 86 32q40 31 58 86zM680 0v45h-84l-207 589h85v45h-192l-15 -45l-204 -589h-86v-45h142v45h-1l73 213h274l75 -213h-85v-45h225zM450 303h-243l122 355z" />
<glyph unicode="&#xe01e;" horiz-adv-x="510" d="M400 669h-42q-16 -36 -44 -54q-26 -17 -58 -17t-59 18q-26 17 -44 53h-42q20 -56 59 -86q40 -32 86 -32q45 0 86 32q40 31 58 86zM500 0v45h-79v307q0 68 -45 101t-131 33q-19 0 -40.5 -4.5t-39.5 -10.5t-29.5 -10.5l-11.5 -4.5l13 -31l11 3.5t27 8t34.5 8.5t33.5 4 q57 0 92 -23q34 -22 34 -74v-112q-38 21 -75 30q-38 9 -66 9q-80 0 -129 -42q-48 -41 -48 -104q0 -57 42 -99q41 -41 105 -41q39 0 87 20q45 19 84 54v-67h131zM369 111q-29 -33 -74 -56q-43 -22 -85 -22q-49 0 -78 29q-28 28 -28 67q0 47 35 79t98 32q35 0 70 -12 q32 -11 62 -30v-87z" />
<glyph unicode="&#xe01f;" horiz-adv-x="656" d="M693 -156v42q-11 -4 -19.5 -6.5t-15.5 -4.5q-6 -1 -13.5 -1.5t-15.5 -0.5q-23 0 -43 14q-18 13 -18 42q0 20 12 40q5 10 11.5 17.5t13.5 13.5h75v45h-84l-207 589h85v45h-192l-15 -45l-204 -589h-86v-45h142v45h-1l73 213h274l75 -213h-85v-45h109q-16 -13 -30 -34 q-14 -22 -14 -46q0 -44 33 -69q31 -25 77 -25q10 0 18.5 1t15.5 4q12 3 29 13zM450 303h-243l122 355z" />
<glyph unicode="&#xe020;" horiz-adv-x="510" d="M543 -156v42q-11 -4 -19.5 -6.5t-15.5 -4.5q-6 -1 -13.5 -1.5t-15.5 -0.5q-23 0 -43 14q-18 13 -18 42q0 20 12 40q5 10 11.5 17.5t13.5 13.5h45v45h-79v307q0 68 -45 101t-131 33q-19 0 -40.5 -4.5t-39.5 -10.5t-29.5 -10.5l-11.5 -4.5l13 -31l11 3.5t27 8t34.5 8.5 t33.5 4q57 0 92 -23q34 -22 34 -74v-112q-38 21 -75 30q-38 9 -66 9q-80 0 -129 -42q-48 -41 -48 -104q0 -57 42 -99q41 -41 105 -41q39 0 87 20q45 19 84 54v-67h45q-16 -13 -30 -34q-14 -22 -14 -46q0 -44 33 -69q31 -25 77 -25q10 0 18.5 1t15.5 4q12 3 29 13zM369 111 q-29 -33 -74 -56q-43 -22 -85 -22q-49 0 -78 29q-28 28 -28 67q0 47 35 79t98 32q35 0 70 -12q32 -11 62 -30v-87z" />
<glyph unicode="&#xe021;" horiz-adv-x="708" d="M469 889h-35l-113 -104l-112 104h-35l118 -145h58zM661 339q0 151 -89 246q-88 94 -273 94h-291v-45h94v-589v-45h196q202 0 283 102q80 103 80 237zM605 339q0 -145 -76 -220q-77 -74 -223 -74h-148v589h146q143 0 223 -77q78 -77 78 -218z" />
<glyph unicode="&#xe022;" horiz-adv-x="674" d="M633 572v107h-56v-93h25q0 -53 -7 -71q-6 -19 -27 -19v-36q31 1 49 30q16 29 16 82zM591 0v45h-86v634h-52v-45v-259q-38 62 -86 87q-50 24 -100 24q-100 0 -166 -71q-65 -71 -65 -179q0 -104 67 -174q67 -69 167 -69q51 0 99 23q46 22 84 78v-94h138zM454 239 q0 -88 -52 -146q-51 -57 -132 -57q-78 0 -132 58q-53 59 -53 142q0 87 53 148q51 59 130 59q78 0 132 -59t54 -145z" />
<glyph unicode="&#xe023;" horiz-adv-x="708" d="M661 339q0 151 -89 246q-88 94 -273 94h-291v-43l94 2v-275h-93v-45h93v-273v-45h196q202 0 283 102q80 103 80 237zM605 339q0 -145 -76 -220q-77 -74 -223 -74h-148v273h209v45h-209v271h146q143 0 223 -77q78 -77 78 -218z" />
<glyph unicode="&#xe024;" horiz-adv-x="604" d="M463 803v29h-321v-29h321zM559 0v45h-46h-355v280h282v45h-282v264h355v-120h45v165h-543v-45h87v-589v-45h457z" />
<glyph unicode="&#xe025;" d="M437 600v29h-321v-29h321zM518 225q-6 124 -70 192q-65 69 -167 69q-105 0 -173 -71t-68 -179q0 -109 69 -179q69 -71 175 -71q19 0 43 5.5t45 12t35.5 12l14.5 5.5l-12 38l-13 -5t-31 -10.5t-38.5 -10.5t-35.5 -5q-88 0 -144 59q-52 54 -57 138h427zM463 270h-370 q11 71 50 113q53 59 134 59q77 0 127 -48q49 -49 59 -124z" />
<glyph unicode="&#xe026;" horiz-adv-x="604" d="M335 783v64h-64v-64h64zM559 0v45h-46h-355v280h282v45h-282v264h355v-120h45v165h-543v-45h87v-589v-45h457z" />
<glyph unicode="&#xe027;" d="M309 580v64h-64v-64h64zM518 225q-6 124 -70 192q-65 69 -167 69q-105 0 -173 -71t-68 -179q0 -109 69 -179q69 -71 175 -71q19 0 43 5.5t45 12t35.5 12l14.5 5.5l-12 38l-13 -5t-31 -10.5t-38.5 -10.5t-35.5 -5q-88 0 -144 59q-52 54 -57 138h427zM463 270h-370 q11 71 50 113q53 59 134 59q77 0 127 -48q49 -49 59 -124z" />
<glyph unicode="&#xe028;" horiz-adv-x="604" d="M559 0v45h-46h-355v280h282v45h-282v264h355v-120h45v165h-543v-45h87v-589v-45h302q-16 -13 -30 -34q-14 -22 -14 -46q0 -44 33 -69q31 -25 77 -25q10 0 18.5 1t15.5 4q12 3 29 13v42q-11 -4 -19.5 -6.5t-15.5 -4.5q-6 -1 -13.5 -1.5t-15.5 -0.5q-23 0 -43 14 q-18 13 -18 42q0 20 12 40q5 10 11.5 17.5t13.5 13.5h114z" />
<glyph unicode="&#xe029;" d="M518 225q-6 124 -70 192q-65 69 -167 69q-105 0 -173 -71t-68 -179q0 -109 69 -179q59 -60 142 -69l-8 -10t-9 -12q-14 -22 -14 -46q0 -44 33 -69q31 -25 77 -25q10 0 18.5 1t15.5 4q12 3 29 13v42q-11 -4 -19.5 -6.5t-15.5 -4.5q-6 -1 -13.5 -1.5t-15.5 -0.5 q-23 0 -43 14q-18 13 -18 42q0 20 12 40q5 10 12 17q19 1 42 6.5t42.5 12t32.5 11.5l13 5l-12 38l-13 -5t-31 -10.5t-38.5 -10.5t-35.5 -5q-88 0 -144 59q-52 54 -57 138h427zM463 270h-370q11 71 50 113q53 59 134 59q77 0 127 -48q49 -49 59 -124z" />
<glyph unicode="&#xe02a;" horiz-adv-x="604" d="M450 889h-35l-113 -104l-112 104h-35l118 -145h58zM559 0v45h-46h-355v280h282v45h-282v264h355v-120h45v165h-543v-45h87v-589v-45h457z" />
<glyph unicode="&#xe02b;" d="M424 686h-35l-113 -104l-112 104h-35l118 -145h58zM518 225q-6 124 -70 192q-65 69 -167 69q-105 0 -173 -71t-68 -179q0 -109 69 -179q69 -71 175 -71q19 0 43 5.5t45 12t35.5 12l14.5 5.5l-12 38l-13 -5t-31 -10.5t-38.5 -10.5t-35.5 -5q-88 0 -144 59q-52 54 -57 138 h427zM463 270h-370q11 71 50 113q53 59 134 59q77 0 127 -48q49 -49 59 -124z" />
<glyph unicode="&#xe02c;" horiz-adv-x="792" d="M738 306h-338v-45h280q-14 -106 -92 -164q-79 -58 -184 -58q-131 0 -215 85q-83 85 -83 216t80 217q79 84 205 84q86 0 161 -48q76 -49 101 -136h45v172h-45v-67q-44 59 -114 94q-71 34 -149 34q-146 0 -243 -100q-97 -98 -97 -250q0 -155 99 -252q92 -92 236 -98 l-13 -70q28 0 45 -12t17 -33q0 -29 -25 -42q-13 -7 -29.5 -11t-36.5 -3l-26 1v-32h14q72 0 113 23q40 22 40 71q0 33 -21 54q-20 21 -52 21l6 33q136 4 227 86q92 85 94 230z" />
<glyph unicode="&#xe02d;" horiz-adv-x="594" d="M360 691h-57l-100 -155h38zM601 428v45h-139v-103q-45 69 -92 93q-48 23 -96 23q-98 0 -167 -74q-68 -74 -68 -180q0 -103 67 -171q68 -68 167 -68q53 0 105 26q51 26 84 85v-120q0 -77 -51 -119t-132 -42q-12 0 -29 2.5t-32 5.5t-26 5.5l-11 2.5l-12 -45q2 -1 18.5 -5 t42 -8.5t44.5 -4.5q106 0 173 58t67 155v439h87zM462 236q0 -85 -54 -142q-53 -57 -132 -57q-80 0 -133 56q-51 55 -51 143q0 85 53 146q53 59 131 59q76 0 132 -60q54 -60 54 -145z" />
<glyph unicode="&#xe02e;" horiz-adv-x="281" d="M301 803v29h-321v-29h321zM254 0v45h-86v589v45h-56v-45v-589h-85v-45h227z" />
<glyph unicode="&#xe02f;" horiz-adv-x="250" d="M286 600v29h-321v-29h321zM241 0v45h-81v428h-135v-45h83v-383h-83v-45h216z" />
<glyph unicode="&#xe030;" horiz-adv-x="281" d="M167 730v64h-56v-64h56zM254 0v45h-86v589v45h-56v-45v-589h-85v-45h97q-16 -13 -30 -34q-14 -22 -14 -46q0 -44 33 -69q31 -25 77 -25q10 0 18.5 1t15.5 4q12 3 29 13v42q-11 -4 -19.5 -6.5t-15.5 -4.5q-6 -1 -13.5 -1.5t-15.5 -0.5q-23 0 -43 14q-18 13 -18 42 q0 20 12 40q5 10 11.5 17.5t13.5 13.5h89z" />
<glyph unicode="&#xe031;" horiz-adv-x="250" d="M159 650q0 16 -12 28t-28 12t-28 -12t-12 -29q0 -16 12 -28t28 -12t28 12t12 29zM243 -156v42q-11 -4 -19.5 -6.5t-15.5 -4.5q-6 -1 -13.5 -1.5t-15.5 -0.5q-23 0 -43 14q-18 13 -18 42q0 20 12 40q5 10 11.5 17.5t13.5 13.5h85v45h-81v428h-135v-45h83v-383h1v-45h6 q-16 -13 -30 -34q-14 -22 -14 -46q0 -44 33 -69q31 -25 77 -25q10 0 18.5 1t15.5 4q12 3 29 13z" />
<glyph unicode="&#xe032;" horiz-adv-x="583" d="M600 0v45h-73l-289 317l275 272h73v45h-93l-45 -45l-282 -277l282 -312l39 -45h113zM253 0v45h-94v312v277h93v45h-239v-45h90v-589v-45h21l-13 -68q27 0 45 -12q17 -12 17 -33q0 -26 -25 -42q-13 -7 -29.5 -11t-36.5 -3l-26 1v-32h14q72 0 113 23q40 25 40 71 q0 33 -21 54q-20 21 -52 21l6 31h97z" />
<glyph unicode="&#xe033;" horiz-adv-x="521" d="M534 0v45h-72l-246 206l259 177h51v45h-64q-2 -1 -22 -15t-56 -39t-76.5 -52.5t-82 -56t-73.5 -49.5v418h-139v-45h87v-589h1v-45h24l-14 -71q28 0 45 -12q17 -11 17 -33q0 -29 -25 -42q-12 -7 -28.5 -11t-37.5 -3l-26 1v-32h14q73 0 113 23q40 22 40 71q0 34 -20 54 q-21 21 -53 21l7 34h82v45h-87v199l280 -244h102z" />
<glyph unicode="&#xe034;" horiz-adv-x="510" d="M295 894h-57l-100 -155h38zM498 0v220h-54v-175h-280v589h1v45h-149v-45h92v-589h-92v-45h482z" />
<glyph unicode="&#xe035;" horiz-adv-x="240" d="M255 882h-57l-100 -155h38zM231 0v45h-85v634h-138v-45h86v-589v-45h137z" />
<glyph unicode="&#xe036;" horiz-adv-x="510" d="M498 0v220h-54v-175h-280v589h1v45h-149v-45h92v-589h-92v-45h227l-14 -71q28 0 45 -12t17 -33q0 -29 -25 -42q-13 -7 -29.5 -11t-36.5 -3l-26 1v-32h14q72 0 113 23q40 22 40 71q0 32 -20 54q-21 21 -53 21l7 34h223z" />
<glyph unicode="&#xe037;" horiz-adv-x="240" d="M231 0v45h-85v634h-138v-45h86v-589v-45h21l-14 -71q28 0 45 -12t17 -33q0 -27 -25 -42q-13 -7 -29.5 -11t-36.5 -3l-26 1v-32h14q72 0 113 23q40 24 40 71q0 33 -21 54q-20 21 -52 21l7 34h84z" />
<glyph unicode="&#xe038;" horiz-adv-x="510" d="M423 572v107h-56v-93h25q0 -53 -7 -71q-6 -19 -27 -19v-36q31 1 49 30q16 29 16 82zM498 0v220h-54v-175h-280v589h1v45h-149v-45h92v-589h-92v-45h482z" />
<glyph unicode="&#xe039;" horiz-adv-x="320" d="M278 572v107h-56v-93h25q0 -53 -7 -71q-6 -19 -27 -19v-36q31 1 49 30q16 29 16 82zM231 0v45h-85v634h-138v-45h86v-589v-45h137z" />
<glyph unicode="&#xe03a;" horiz-adv-x="510" d="M359 330v64h-64v-64h64zM498 0v220h-54v-175h-280v589h1v45h-149v-45h92v-589h-92v-45h482z" />
<glyph unicode="&#xe03b;" horiz-adv-x="320" d="M284 330v64h-64v-64h64zM231 0v45h-85v634h-138v-45h86v-589v-45h137z" />
<glyph unicode="&#xe03c;" horiz-adv-x="708" d="M438 894h-57l-100 -155h38zM698 634v45h-135v-45v-560q-49 78 -98 153.5t-99 149.5q-49 73 -98 148.5t-98 153.5h-160v-45h91v-589v-45h143v45h-96v573l409 -627h53v643h88z" />
<glyph unicode="&#xe03d;" horiz-adv-x="531" d="M349 691h-57l-100 -155h38zM528 0v45h-75v317q0 56 -35 91q-35 33 -91 33q-49 0 -95 -21t-86 -56v64h-138v-45h86v-383v-45h129v45h-77v312q35 33 84 58q48 24 90 24q39 0 60 -22q21 -21 21 -61v-311v-45h127z" />
<glyph unicode="&#xe03e;" horiz-adv-x="708" d="M698 634v45h-135v-45v-560q-49 78 -98 153.5t-99 149.5q-49 73 -98 148.5t-98 153.5h-160v-45h91v-589v-45h26l-14 -69q28 0 45 -12q17 -11 17 -33q0 -29 -25 -42q-12 -7 -28.5 -11t-37.5 -3l-26 1v-32h14q73 0 113 23q40 22 40 71q0 34 -20 54q-21 21 -53 21l7 32h85v45 h-96v573l409 -627h53v643h88z" />
<glyph unicode="&#xe03f;" horiz-adv-x="531" d="M528 0v45h-75v317q0 56 -35 91q-35 33 -91 33q-49 0 -95 -21t-86 -56v64h-138v-45h86v-383v-45h29l-13 -67q28 0 45 -12t17 -33q0 -29 -25 -42q-13 -7 -29.5 -11t-36.5 -3l-26 1v-32h14q72 0 113 23q40 22 40 71q0 33 -21 54q-20 21 -52 21l6 30h68v45h-77v312 q35 33 84 58q48 24 90 24q39 0 60 -22q21 -21 21 -61v-311v-45h127z" />
<glyph unicode="&#xe040;" horiz-adv-x="708" d="M502 889h-35l-113 -104l-112 104h-35l118 -145h58zM698 634v45h-135v-45v-560q-49 78 -98 153.5t-99 149.5q-49 73 -98 148.5t-98 153.5h-160v-45h91v-589v-45h143v45h-96v573l409 -627h53v643h88z" />
<glyph unicode="&#xe041;" horiz-adv-x="531" d="M413 686h-35l-113 -104l-112 104h-35l118 -145h58zM528 0v45h-75v317q0 56 -35 91q-35 33 -91 33q-49 0 -95 -21t-86 -56v64h-138v-45h86v-383v-45h129v45h-77v312q35 33 84 58q48 24 90 24q39 0 60 -22q21 -21 21 -61v-311v-45h127z" />
<glyph unicode="&#xe042;" horiz-adv-x="781" d="M551 803v29h-321v-29h321zM734 340q0 151 -97 251q-98 99 -245 99q-148 0 -245 -100q-97 -98 -97 -250q0 -151 97 -251q97 -99 245 -99t245 100q97 98 97 250zM678 340q0 -131 -81 -216q-79 -85 -205 -85q-124 0 -205 86q-81 85 -81 215t81 216q81 85 205 85 q125 0 206 -86q80 -86 80 -215z" />
<glyph unicode="&#xe043;" d="M437 600v29h-321v-29h321zM513 236q0 105 -68 178q-68 72 -168 72q-102 0 -169 -72q-67 -71 -67 -178q0 -105 68 -178q67 -72 168 -72q100 0 169 72q67 73 67 178zM460 236q0 -88 -52 -146q-51 -57 -131 -57t-132 58q-51 57 -51 145t52 146q51 57 131 57t132 -58 q51 -57 51 -145z" />
<glyph unicode="&#xe044;" horiz-adv-x="781" d="M575 894h-57l-100 -155h38zM460 894h-56l-100 -155h38zM734 340q0 151 -97 251q-98 99 -245 99q-148 0 -245 -100q-97 -98 -97 -250q0 -151 97 -251q97 -99 245 -99t245 100q97 98 97 250zM678 340q0 -131 -81 -216q-79 -85 -205 -85q-124 0 -205 86q-81 85 -81 215 t81 216q81 85 205 85q125 0 206 -86q80 -86 80 -215z" />
<glyph unicode="&#xe045;" d="M461 691h-57l-100 -155h38zM346 691h-56l-100 -155h38zM513 236q0 105 -68 178q-68 72 -168 72q-102 0 -169 -72q-67 -71 -67 -178q0 -105 68 -178q67 -72 168 -72q100 0 169 72q67 73 67 178zM460 236q0 -88 -52 -146q-51 -57 -131 -57t-132 58q-51 57 -51 145t52 146 q51 57 131 57t132 -58q51 -57 51 -145z" />
<glyph unicode="&#xe046;" horiz-adv-x="573" d="M360 894h-57l-100 -155h38zM588 0v45h-87l-136 299q82 17 119 61q37 45 37 111q0 71 -52 117t-132 46h-334v-45h100v-635h56v340h150l153 -339h126zM465 511q0 -62 -42 -95q-41 -32 -116 -32h-148v250h166q65 0 102 -34q38 -33 38 -89z" />
<glyph unicode="&#xe047;" horiz-adv-x="396" d="M310 691h-57l-100 -155h38zM383 436v50l-19 1q-16 1 -34.5 -1t-37 -5.5t-35.5 -9.5t-30 -13q-17 -9 -32 -26t-22.5 -29t-8.5 -14v84h-142v-45h90v-383v-45h149v45h-97v212q0 93 49 136t151 43h19z" />
<glyph unicode="&#xe048;" horiz-adv-x="573" d="M588 0v45h-87l-136 299q82 17 119 61q37 45 37 111q0 71 -52 117t-132 46h-334v-45h100v-635h12l-13 -68q28 0 45 -12q17 -11 17 -33q0 -27 -25 -42q-12 -7 -28.5 -11t-37.5 -3l-26 1v-32h14q73 0 113 23q40 24 40 71q0 34 -20 54q-21 21 -53 21l6 31h12v340h150 l153 -339h126zM465 511q0 -62 -42 -95q-41 -32 -116 -32h-148v250h166q65 0 102 -34q38 -33 38 -89z" />
<glyph unicode="&#xe049;" horiz-adv-x="396" d="M383 436v50l-19 1q-16 1 -34.5 -1t-37 -5.5t-35.5 -9.5t-30 -13q-17 -9 -32 -26t-22.5 -29t-8.5 -14v84h-142v-45h90v-383v-45h15l-13 -67q28 0 45 -12t17 -33q0 -29 -25 -42q-13 -7 -29.5 -11t-36.5 -3l-26 1v-32h14q72 0 113 23q40 22 40 71q0 33 -21 54q-20 21 -52 21 l6 30h102v45h-97v212q0 93 49 136t151 43h19z" />
<glyph unicode="&#xe04a;" horiz-adv-x="573" d="M424 889h-35l-113 -104l-112 104h-35l118 -145h58zM588 0v45h-87l-136 299q82 17 119 61q37 45 37 111q0 71 -52 117t-132 46h-334v-45h100v-635h56v340h150l153 -339h126zM465 511q0 -62 -42 -95q-41 -32 -116 -32h-148v250h166q65 0 102 -34q38 -33 38 -89z" />
<glyph unicode="&#xe04b;" horiz-adv-x="396" d="M374 686h-35l-113 -104l-112 104h-35l118 -145h58zM383 436v50l-19 1q-16 1 -34.5 -1t-37 -5.5t-35.5 -9.5t-30 -13q-17 -9 -32 -26t-22.5 -29t-8.5 -14v84h-142v-45h90v-383v-45h149v45h-97v212q0 93 49 136t151 43h19z" />
<glyph unicode="&#xe04c;" horiz-adv-x="542" d="M355 894h-57l-100 -155h38zM498 178q0 81 -50 128t-187 80q-75 18 -120 48q-44 30 -44 88q0 50 41 85q40 34 102 34q37 0 69 -5.5t58 -25.5q13 -10 21.5 -24t14 -28.5t7.5 -27.5t2 -21v-13h53q0 2 -1 15t-4 33t-10 34t-13.5 23.5t-17.5 21.5q-18 20 -36 30t-41 21 q-23 10 -48 13t-51 3q-83 0 -141 -48q-57 -48 -57 -118q0 -78 49 -121q49 -45 155 -70t150 -59q43 -33 43 -90q0 -64 -46 -104q-47 -41 -115 -41q-80 0 -136 52q-56 51 -56 118v24h-46v-233h46v91q16 -25 36.5 -44t46.5 -32q51 -25 108 -25q92 0 155 54t63 134z" />
<glyph unicode="&#xe04d;" horiz-adv-x="448" d="M308 691h-57l-100 -155h38zM409 127q0 57 -33 89q-32 31 -138 51q-75 14 -101 31q-26 18 -26 57q0 37 28 62q28 26 75 26q55 0 92 -34q37 -33 38 -85h44v135h-44v-37q-25 33 -58 49q-32 15 -73 15q-63 0 -106 -36t-43 -97q0 -62 39 -90q37 -28 123 -43q79 -13 108 -35 q29 -20 29 -63q0 -41 -38 -70q-38 -27 -90 -27q-68 0 -109 37t-42 102h-46v-164h46v60q27 -42 65 -59q36 -16 81 -16q81 0 131 39q48 37 48 103z" />
<glyph unicode="&#xe04e;" horiz-adv-x="573" d="M557 545v134h-540v-214h46v169h196v-589h-93v-45h106l-12 -60q28 0 45 -12q17 -11 17 -33q0 -29 -25 -42q-25 -15 -66 -14l-26 1v-32h14q76 0 113 23q40 22 40 71q0 32 -20 54q-21 21 -53 21l5 23h11v634h196v-89h46z" />
<glyph unicode="&#xe04f;" horiz-adv-x="260" d="M249 -118q0 33 -21 54q-20 21 -52 21l7 34l55 9v45l-56 -9q-23 0 -33 12q-10 11 -10 40v340h99v45h-99v107l-52 -1v-106h-84v-45h84v-350q0 -43 21 -67q16 -16 43 -20l-14 -71q28 0 45 -12t17 -33q0 -29 -25 -42q-13 -7 -29.5 -11t-36.5 -3l-26 1v-32h14q72 0 113 23 q40 22 40 71z" />
<glyph unicode="&#xe050;" horiz-adv-x="573" d="M424 889h-35l-113 -104l-112 104h-35l118 -145h58zM557 545v134h-540v-214h46v169h196v-589h-93v-45h149v634h196v-89h46z" />
<glyph unicode="&#xe051;" horiz-adv-x="360" d="M338 572v107h-56v-93h25q0 -53 -7 -71q-6 -19 -27 -19v-36q31 1 49 30q16 29 16 82zM238 0v45l-56 -9q-23 0 -33 12q-10 11 -10 40v340h99v45h-99v107l-52 -1v-106h-84v-45h84v-350q0 -45 21 -67t64 -22z" />
<glyph unicode="&#xe052;" horiz-adv-x="646" d="M484 803v29h-321v-29h321zM642 634v45h-143v-45v-439q0 -78 -45 -117t-132 -39q-83 0 -130 41q-46 39 -46 117v437h86v45h-229v-45h87v-431q0 -104 61 -159q60 -54 172 -54q113 0 172 55q60 55 60 158v431h87z" />
<glyph unicode="&#xe053;" horiz-adv-x="542" d="M432 600v29h-321v-29h321zM534 0v45h-82v428h-52v-45v-303q-35 -35 -82 -60t-92 -25q-37 0 -58 21q-20 22 -20 59v353h-135v-45h83v-317q0 -56 33 -87q31 -31 88 -31q54 0 101 22q23 11 44 23.5t38 28.5v-67h134z" />
<glyph unicode="&#xe054;" horiz-adv-x="646" d="M415 815q0 38 -27 65t-65 27t-65 -27q-26 -28 -26 -65q0 -38 27 -65q25 -27 64 -27q38 0 65 27t27 65zM385 815q0 -26 -18 -44t-44 -18t-44 18q-17 19 -17 44q0 26 18 44q16 18 43 18q26 0 44 -18t18 -44zM642 634v45h-143v-45v-439q0 -78 -45 -117t-132 -39 q-83 0 -130 41q-46 39 -46 117v437h86v45h-229v-45h87v-431q0 -104 61 -159q60 -54 172 -54q113 0 172 55q60 55 60 158v431h87z" />
<glyph unicode="&#xe055;" horiz-adv-x="542" d="M363 612q0 38 -27 65t-65 27t-65 -27q-26 -28 -26 -65q0 -38 27 -65q25 -27 64 -27q38 0 65 27t27 65zM333 612q0 -26 -18 -44t-44 -18t-44 18q-17 19 -17 44q0 26 18 44q16 18 43 18q26 0 44 -18t18 -44zM534 0v45h-82v428h-52v-45v-303q-35 -35 -82 -60t-92 -25 q-37 0 -58 21q-20 22 -20 59v353h-135v-45h83v-317q0 -56 33 -87q31 -31 88 -31q54 0 101 22q23 11 44 23.5t38 28.5v-67h134z" />
<glyph unicode="&#xe056;" horiz-adv-x="646" d="M508 894h-57l-100 -155h38zM393 894h-56l-100 -155h38zM642 634v45h-143v-45v-439q0 -78 -45 -117t-132 -39q-83 0 -130 41q-46 39 -46 117v437h86v45h-229v-45h87v-431q0 -104 61 -159q60 -54 172 -54q113 0 172 55q60 55 60 158v431h87z" />
<glyph unicode="&#xe057;" horiz-adv-x="646" d="M642 634v45h-143v-45v-439q0 -78 -45 -117t-132 -39q-83 0 -130 41q-46 39 -46 117v437h86v45h-229v-45h87v-431q0 -104 61 -159q53 -48 148 -53q-5 -5 -10 -11t-10 -14q-14 -22 -14 -46q0 -44 33 -69q31 -25 77 -25q10 0 18.5 1t15.5 4q12 3 29 13v42q-11 -4 -19.5 -6.5 t-15.5 -4.5q-6 -1 -13.5 -1.5t-15.5 -0.5q-23 0 -43 14q-18 13 -18 42q0 19 12 40q3 6 7 11l8 10q100 4 155 55q60 55 60 158v431h87z" />
<glyph unicode="&#xe058;" horiz-adv-x="542" d="M573 -156v42q-11 -4 -19.5 -6.5t-15.5 -4.5q-6 -1 -13.5 -1.5t-15.5 -0.5q-23 0 -43 14q-18 13 -18 42q0 20 12 40q5 10 11.5 17.5t13.5 13.5h49v45h-82v428h-52v-45v-303q-35 -35 -82 -60t-92 -25q-37 0 -58 21q-20 22 -20 59v353h-135v-45h83v-317q0 -56 33 -87 q31 -31 88 -31q54 0 101 22q23 11 44 23.5t38 28.5v-67h44q-16 -13 -30 -34q-14 -22 -14 -46q0 -44 33 -69q31 -25 77 -25q10 0 18.5 1t15.5 4q12 3 29 13z" />
<glyph unicode="&#xe059;" d="M360 894h-57l-100 -155h38zM521 0v175h-46v-130h-381l417 590v44h-462v-45h45h349l-416 -589v-45h494z" />
<glyph unicode="&#xe05a;" horiz-adv-x="479" d="M323 691h-57l-100 -155h38zM436 429v44h-367v-45h41h268l-333 -383v-45h390v173h-42v-128h-291z" />
<glyph unicode="&#xe05b;" d="M309 783v64h-64v-64h64zM521 0v175h-46v-130h-381l417 590v44h-462v-45h45h349l-416 -589v-45h494z" />
<glyph unicode="&#xe05c;" horiz-adv-x="479" d="M272 580v64h-64v-64h64zM436 429v44h-367v-45h41h268l-333 -383v-45h390v173h-42v-128h-291z" />
</font>
</defs>
</svg>
